<svg xmlns="http://www.w3.org/2000/svg" width="14.642" height="19.097" viewBox="0 0 14.642 19.097"><g transform="translate(0 0)"><path d="M61.021.809c-1.312.851-1.57,3.511-1.075,5.679a19.583,19.583,0,0,0,2.589,6.086,20.337,20.337,0,0,0,4.5,4.846c1.778,1.336,4.311,2.186,5.624,1.335a6.645,6.645,0,0,0,1.694-1.817l-.7-1.087-1.938-2.989c-.144-.222-1.047-.019-1.506.241a4.369,4.369,0,0,0-1.189,1.292c-.424.245-.78,0-1.523-.341a9.045,9.045,0,0,1-2.756-2.907,9.045,9.045,0,0,1-1.53-3.7c-.009-.818-.087-1.242.31-1.529a4.37,4.37,0,0,0,1.664-.559c.424-.313.978-1.055.834-1.277L64.076,1.089,63.371,0A6.646,6.646,0,0,0,61.021.809Z" transform="translate(-59.712 0.001)" fill="#fff"/></g></svg>