<svg xmlns="http://www.w3.org/2000/svg" width="29.73" height="29.784" viewBox="0 0 29.73 29.784"><path d="M20.347,6.811a6.639,6.639,0,0,1,5.245,5.245M20.347,1.5A11.95,11.95,0,0,1,30.9,12.042m-1.328,10.6v3.983a2.656,2.656,0,0,1-2.895,2.656A26.276,26.276,0,0,1,15.221,25.2a25.891,25.891,0,0,1-7.967-7.967A26.276,26.276,0,0,1,3.179,5.722,2.656,2.656,0,0,1,5.821,2.828H9.8A2.656,2.656,0,0,1,12.46,5.112a17.048,17.048,0,0,0,.929,3.731,2.656,2.656,0,0,1-.6,2.8L11.105,13.33A21.244,21.244,0,0,0,19.072,21.3l1.686-1.686a2.656,2.656,0,0,1,2.8-.6,17.048,17.048,0,0,0,3.731.929A2.656,2.656,0,0,1,29.574,22.638Z" transform="translate(-2.166 -0.506)" fill="none" stroke="#fff" stroke-linejoin="bevel" stroke-width="2"/></svg>