<svg xmlns="http://www.w3.org/2000/svg" width="70.546" height="73.762" viewBox="0 0 70.546 73.762"><g transform="translate(-348.402 -22226)"><g transform="translate(306.35 22152.949)"><path d="M102.649,81.636H59.141a2.654,2.654,0,0,0-.67.091A8.455,8.455,0,0,0,42.7,85.974V137.25h0a8.972,8.972,0,0,0,8.963,8.912H89.651a3.251,3.251,0,0,0,3.249-3.249v-4.1h9.748a1.9,1.9,0,0,0,1.894-1.9V83.53A1.9,1.9,0,0,0,102.649,81.636ZM51.166,80.628a5.352,5.352,0,0,1,5.345,5.345v40.873a8.444,8.444,0,0,0-10.7,0V85.974A5.353,5.353,0,0,1,51.166,80.628Zm38.621,62.285a.135.135,0,0,1-.136.136H51.665a5.854,5.854,0,0,1-5.849-5.849v-3.8a5.348,5.348,0,0,1,10.7,0v3.516a1.9,1.9,0,0,0,1.894,1.9H89.787Zm11.638-7.219h-41.8V84.75h41.8Z" transform="translate(0)" fill="#ad926a" stroke="#fafafa" stroke-width="1.3"/><path d="M49.42,93.41h10.1a2.552,2.552,0,0,0,2.549-2.549V82.588a2.552,2.552,0,0,0-2.549-2.549H49.42a2.552,2.552,0,0,0-2.549,2.549v8.272A2.552,2.552,0,0,0,49.42,93.41Zm.564-10.257h8.968V90.3H49.984Z" transform="translate(16.834 10.192)" fill="#ad926a" stroke="#fafafa" stroke-width="1.3"/><path d="M52.366,83.479h9.542a1.558,1.558,0,0,0,0-3.113H52.366A1.558,1.558,0,0,0,52.366,83.479Z" transform="translate(32.942 11.512)" fill="#ad926a" stroke="#fafafa" stroke-width="1.3"/><path d="M52.366,85.25h9.542a1.56,1.56,0,0,0,0-3.118H52.366A1.56,1.56,0,0,0,52.366,85.25Z" transform="translate(32.942 18.643)" fill="#ad926a" stroke="#fafafa" stroke-width="1.3"/><path d="M76.814,83.9H48.672a1.558,1.558,0,0,0,0,3.113H76.814A1.558,1.558,0,0,0,76.814,83.9Z" transform="translate(18.036 25.778)" fill="#ad926a" stroke="#fafafa" stroke-width="1.3"/><path d="M76.814,85.665H48.672a1.558,1.558,0,0,0,0,3.113H76.814A1.558,1.558,0,0,0,76.814,85.665Z" transform="translate(18.036 32.91)" fill="#ad926a" stroke="#fafafa" stroke-width="1.3"/><path d="M76.814,87.431H48.672a1.558,1.558,0,0,0,0,3.113H76.814A1.558,1.558,0,0,0,76.814,87.431Z" transform="translate(18.036 40.041)" fill="#ad926a" stroke="#fafafa" stroke-width="1.3"/></g><circle cx="11" cy="11" r="11" transform="translate(396.948 22226)" fill="#ad926a" opacity="0.16"/></g></svg>