<svg id="グループ_2406" data-name="グループ 2406" xmlns="http://www.w3.org/2000/svg" xmlns:xlink="http://www.w3.org/1999/xlink" width="74.051" height="58.979" viewBox="0 0 74.051 58.979">
  <defs>
    <clipPath id="clip-path">
      <rect id="長方形_2658" data-name="長方形 2658" width="74.051" height="58.978" fill="none" stroke="#fff" stroke-width="1"/>
    </clipPath>
  </defs>
  <g id="グループ_2405" data-name="グループ 2405" clip-path="url(#clip-path)">
    <path id="パス_1049" data-name="パス 1049" d="M58.255,58.18l-5.8-5.509H41.477a3.628,3.628,0,0,1-3.623-3.624V43.924H35.838L22.963,56.279a2.893,2.893,0,0,1-4.69-3.157l3.66-9.2H4.217A4.222,4.222,0,0,1,0,39.706V4.217A4.223,4.223,0,0,1,4.217,0h52.44a4.221,4.221,0,0,1,4.216,4.217V25.83h9.554a3.628,3.628,0,0,1,3.624,3.624V49.047a3.628,3.628,0,0,1-3.624,3.624H62.218l.793,2.557a2.893,2.893,0,0,1-4.756,2.953ZM40.746,49.047a.731.731,0,0,0,.73.73H53.613l6.635,6.306-1.956-6.306H70.427a.731.731,0,0,0,.732-.73V29.454a.732.732,0,0,0-.732-.731H60.873V39.707a4.221,4.221,0,0,1-4.216,4.217H40.746ZM2.893,4.217V39.706a1.325,1.325,0,0,0,1.324,1.325H26.2L20.96,54.193,34.674,41.031H56.656a1.324,1.324,0,0,0,1.325-1.324V4.217a1.324,1.324,0,0,0-1.325-1.324H4.217A1.324,1.324,0,0,0,2.893,4.217M14.752,31.925a1.446,1.446,0,0,1,0-2.893H46.534a1.446,1.446,0,1,1,0,2.893Zm0-9.034a1.446,1.446,0,0,1,0-2.893H46.534a1.446,1.446,0,1,1,0,2.893Zm0-9.033a1.446,1.446,0,0,1,0-2.893H46.534a1.446,1.446,0,1,1,0,2.893Z" fill="#ad926a" stroke="#fff" stroke-width="1"/>
  </g>
</svg>
