<svg xmlns="http://www.w3.org/2000/svg" width="25.076" height="26.748" viewBox="0 0 25.076 26.748"><path d="M10.929,11.958h3.343V15.3H10.929Zm5.015,0h3.343V15.3H15.945Zm5.015,0H24.3V15.3H20.96ZM5.914,21.989H9.258v3.343H5.914Zm5.015,0h3.343v3.343H10.929Zm5.015,0h3.343v3.343H15.945Zm-5.015-5.015h3.343v3.343H10.929Zm5.015,0h3.343v3.343H15.945Zm5.015,0H24.3v3.343H20.96Zm-15.046,0H9.258v3.343H5.914ZM24.3,1.928V3.6H20.96V1.928H9.258V3.6H5.914V1.928H2.571V28.676H27.647V1.928H24.3ZM25.975,27H4.242V8.615H25.975Z" transform="translate(-2.571 -1.928)" fill="#fff"/></svg>