<svg xmlns="http://www.w3.org/2000/svg" xmlns:xlink="http://www.w3.org/1999/xlink" width="68.304" height="78.111" viewBox="0 0 68.304 78.111"><defs><clipPath id="a"><rect width="68.304" height="49.111" fill="#ad926a"/></clipPath></defs><g transform="translate(-349.848 -22231)"><g transform="translate(349.848 22260)"><g clip-path="url(#a)"><path d="M200.252,3.269A3.425,3.425,0,0,0,197.027.007,3.742,3.742,0,0,0,193.165,3.3a63.074,63.074,0,0,1-2.427,8.444,4.2,4.2,0,0,0-.968-.786,2.552,2.552,0,0,0-3.174.384,12.44,12.44,0,0,0-1.87,2.36,16.622,16.622,0,0,1-2.249,2.846,17.868,17.868,0,0,1-3.142,2.165,25.219,25.219,0,0,0-7.086,5.731c-3.692,4.359-4.6,10-5,14.943a1.246,1.246,0,0,0,2.483.2c.37-4.548,1.185-9.713,4.421-13.535a22.769,22.769,0,0,1,6.456-5.2,19.971,19.971,0,0,0,3.567-2.483,18.522,18.522,0,0,0,2.615-3.273,7.968,7.968,0,0,1,1.654-2.029.509.509,0,0,1,.052.027,1.354,1.354,0,0,1,.715,1c.167,1.02-.3,3.608-5.325,9.477a1.245,1.245,0,0,0,1.785,1.73c6.727-6.128,9.809-20.882,9.937-21.507.175-.854.649-1.341,1.264-1.3a.95.95,0,0,1,.9.963c.1,1.331-.044,14.846-3.724,21.25-2.545,4.43-5.771,7.036-8.618,9.334a31.53,31.53,0,0,0-4.848,4.493,35.307,35.307,0,0,0-5.083,8.879,1.245,1.245,0,1,0,2.32.906,32.673,32.673,0,0,1,4.7-8.219,29.759,29.759,0,0,1,4.476-4.122c3.016-2.436,6.435-5.2,9.213-10.031,4.011-6.98,4.171-21.035,4.048-22.677" transform="translate(-131.974 0)" fill="#ad926a"/><path d="M28.029,29.877a25.223,25.223,0,0,0-7.086-5.731A17.868,17.868,0,0,1,17.8,21.981a16.642,16.642,0,0,1-2.249-2.846,12.431,12.431,0,0,0-1.87-2.36,2.551,2.551,0,0,0-3.174-.383,4.187,4.187,0,0,0-.968.786A63.074,63.074,0,0,1,7.114,8.734,3.745,3.745,0,0,0,3.251,5.445,3.425,3.425,0,0,0,.026,8.708C-.1,10.35.064,24.4,4.074,31.384c2.778,4.835,6.2,7.6,9.213,10.032a29.767,29.767,0,0,1,4.476,4.121,32.493,32.493,0,0,1,4.244,7.119,1.246,1.246,0,0,0,2.282-1,35.1,35.1,0,0,0-4.59-7.687,31.526,31.526,0,0,0-4.848-4.492c-2.846-2.3-6.073-4.9-8.618-9.335C2.555,23.74,2.41,10.225,2.51,8.894a.95.95,0,0,1,.9-.963c.617-.039,1.089.447,1.264,1.3.128.625,3.21,15.38,9.937,21.507A1.245,1.245,0,0,0,16.4,29.01c-5.022-5.869-5.492-8.457-5.325-9.477a1.355,1.355,0,0,1,.715-1,.511.511,0,0,1,.051-.027,7.969,7.969,0,0,1,1.653,2.029,18.507,18.507,0,0,0,2.615,3.273,19.953,19.953,0,0,0,3.567,2.483,22.769,22.769,0,0,1,6.456,5.2c3.236,3.822,4.051,8.986,4.421,13.535a1.246,1.246,0,1,0,2.483-.2c-.4-4.943-1.312-10.583-5-14.943" transform="translate(0 -4.292)" fill="#ad926a"/></g></g><path d="M17.273,2.25H14.148a.574.574,0,0,0-.517.321L10.98,7.988c-.694,1.661-1.3,3.441-1.3,3.441H9.621s-.6-1.78-1.3-3.441L5.673,2.571a.574.574,0,0,0-.517-.321H2.037a.574.574,0,0,0-.507.842l3.833,7.2H2.573A.576.576,0,0,0,2,10.864v1.531a.576.576,0,0,0,.574.574H6.793l.947,1.78v1.282H2.573A.576.576,0,0,0,2,16.606v1.531a.576.576,0,0,0,.574.574H7.741v4.4a.576.576,0,0,0,.574.574h2.68a.576.576,0,0,0,.574-.574v-4.4h5.168a.576.576,0,0,0,.574-.574V16.606a.576.576,0,0,0-.574-.574H11.569V14.749l.947-1.78h4.221a.576.576,0,0,0,.574-.574V10.864a.576.576,0,0,0-.574-.574h-2.79l3.833-7.2a.572.572,0,0,0-.507-.842Z" transform="translate(374.344 22244.031)" fill="#ad926a"/><g transform="translate(364 22237)" fill="none" stroke="#ad926a" stroke-width="1"><circle cx="20" cy="20" r="20" stroke="none"/><circle cx="20" cy="20" r="19.5" fill="none"/></g><circle cx="11" cy="11" r="11" transform="translate(386 22231)" fill="#ad926a" opacity="0.16"/></g></svg>