<?xml version="1.0" encoding="UTF-8"?><svg id="b" xmlns="http://www.w3.org/2000/svg" width="500" height="296.99" xmlns:xlink="http://www.w3.org/1999/xlink" viewBox="0 0 500 296.99"><defs><style>.hd{fill:none;}.he{fill:#f8ad82;}.hf{fill:#fad2bb;}.hg{fill:#65a2b4;}.hh{fill:#e9e9e9;}.hi{fill:#f4f4f4;}.hj{fill:#fff;}.hk{fill:#f68168;}.hl{fill:#f69366;}.hm{fill:#e4f4f9;}.hn{fill:#69ccc3;}.ho{fill:#8cb9c2;}.hp{fill:#303234;}.hq{fill:#a8bbbd;}.hr{fill:#bfe7f9;}.hs{fill:#bde6f9;}.ht{fill:#d38f62;}.hu{fill:#d1d0d0;}.hv{fill:#d3d2d2;}.hw{fill:#e0e0e0;}.hx{fill:#d3edfa;}.hy{fill:#e29969;}.hz{fill:#161514;}.ia{fill:#40ad94;}.ib{fill:#1c63b7;}.ic{fill:#43beb4;}.id{fill:#3da38c;}.ie{fill:#3da9a4;}.if{fill:#0d315d;}.ig{fill:#94dbd3;}.ih{fill:#88bde8;}.ii{fill:#6f99bd;}.ij{fill:#3b3e42;}.ik{fill:#3b9e87;}.il{fill:#45b89e;}.im{fill:#4fc3a3;}.in{clip-path:url(#q);}.io{clip-path:url(#n);}.ip{clip-path:url(#k);}.iq{clip-path:url(#l);}.ir{clip-path:url(#p);}.is{clip-path:url(#r);}.it{clip-path:url(#o);}.iu{clip-path:url(#i);}.iv{clip-path:url(#h);}.iw{clip-path:url(#m);}.ix{clip-path:url(#j);}.iy{clip-path:url(#g);}.iz{clip-path:url(#e);}.ja{clip-path:url(#s);}.jb{clip-path:url(#v);}.jc{clip-path:url(#u);}.jd{clip-path:url(#t);}.je{clip-path:url(#z);}.jf{clip-path:url(#y);}.jg{clip-path:url(#w);}.jh{clip-path:url(#x);}.ji{clip-path:url(#f);}.jj{clip-path:url(#d);}.jk{clip-path:url(#fh);}.jl{clip-path:url(#fd);}.jm{clip-path:url(#fi);}.jn{clip-path:url(#ff);}.jo{clip-path:url(#fg);}.jp{clip-path:url(#fe);}.jq{clip-path:url(#ea);}.jr{clip-path:url(#ec);}.js{clip-path:url(#gv);}.jt{clip-path:url(#gu);}.ju{clip-path:url(#hb);}.jv{clip-path:url(#hc);}.jw{clip-path:url(#gw);}.jx{clip-path:url(#gz);}.jy{clip-path:url(#gx);}.jz{clip-path:url(#ha);}.ka{clip-path:url(#ez);}.kb{clip-path:url(#ey);}.kc{clip-path:url(#ef);}.kd{clip-path:url(#eu);}.ke{clip-path:url(#eh);}.kf{clip-path:url(#eg);}.kg{clip-path:url(#er);}.kh{clip-path:url(#et);}.ki{clip-path:url(#ev);}.kj{clip-path:url(#ex);}.kk{clip-path:url(#ew);}.kl{clip-path:url(#fx);}.km{clip-path:url(#fw);}.kn{clip-path:url(#ft);}.ko{clip-path:url(#fy);}.kp{clip-path:url(#fv);}.kq{clip-path:url(#fc);}.kr{clip-path:url(#fb);}.ks{clip-path:url(#fz);}.kt{clip-path:url(#fu);}.ku{clip-path:url(#gt);}.kv{clip-path:url(#gs);}.kw{clip-path:url(#gm);}.kx{clip-path:url(#gy);}.ky{clip-path:url(#gr);}.kz{clip-path:url(#gq);}.la{clip-path:url(#gp);}.lb{clip-path:url(#go);}.lc{clip-path:url(#gn);}.ld{clip-path:url(#gl);}.le{clip-path:url(#gk);}.lf{clip-path:url(#fk);}.lg{clip-path:url(#fm);}.lh{clip-path:url(#fj);}.li{clip-path:url(#gh);}.lj{clip-path:url(#gi);}.lk{clip-path:url(#ge);}.ll{clip-path:url(#gf);}.lm{clip-path:url(#gg);}.ln{clip-path:url(#fp);}.lo{clip-path:url(#fo);}.lp{clip-path:url(#fl);}.lq{clip-path:url(#fq);}.lr{clip-path:url(#fn);}.ls{clip-path:url(#gc);}.lt{clip-path:url(#ga);}.lu{clip-path:url(#gd);}.lv{clip-path:url(#fs);}.lw{clip-path:url(#gj);}.lx{clip-path:url(#fr);}.ly{clip-path:url(#gb);}.lz{clip-path:url(#fa);}.ma{clip-path:url(#ep);}.mb{clip-path:url(#eo);}.mc{clip-path:url(#en);}.md{clip-path:url(#eq);}.me{clip-path:url(#es);}.mf{clip-path:url(#em);}.mg{clip-path:url(#ei);}.mh{clip-path:url(#el);}.mi{clip-path:url(#ek);}.mj{clip-path:url(#ej);}.mk{clip-path:url(#ee);}.ml{clip-path:url(#eb);}.mm{clip-path:url(#ed);}.mn{clip-path:url(#ak);}.mo{clip-path:url(#az);}.mp{clip-path:url(#au);}.mq{clip-path:url(#al);}.mr{clip-path:url(#ay);}.ms{clip-path:url(#ar);}.mt{clip-path:url(#aw);}.mu{clip-path:url(#av);}.mv{clip-path:url(#aq);}.mw{clip-path:url(#ax);}.mx{clip-path:url(#as);}.my{clip-path:url(#at);}.mz{clip-path:url(#aj);}.na{clip-path:url(#ae);}.nb{clip-path:url(#ao);}.nc{clip-path:url(#an);}.nd{clip-path:url(#ai);}.ne{clip-path:url(#ap);}.nf{clip-path:url(#ab);}.ng{clip-path:url(#ag);}.nh{clip-path:url(#af);}.ni{clip-path:url(#aa);}.nj{clip-path:url(#ah);}.nk{clip-path:url(#cd);}.nl{clip-path:url(#cj);}.nm{clip-path:url(#ci);}.nn{clip-path:url(#ac);}.no{clip-path:url(#ad);}.np{clip-path:url(#am);}.nq{clip-path:url(#dg);}.nr{clip-path:url(#de);}.ns{clip-path:url(#dj);}.nt{clip-path:url(#do);}.nu{clip-path:url(#dy);}.nv{clip-path:url(#dm);}.nw{clip-path:url(#dr);}.nx{clip-path:url(#dx);}.ny{clip-path:url(#dt);}.nz{clip-path:url(#ds);}.oa{clip-path:url(#dp);}.ob{clip-path:url(#dq);}.oc{clip-path:url(#dv);}.od{clip-path:url(#dw);}.oe{clip-path:url(#du);}.of{clip-path:url(#dz);}.og{clip-path:url(#dl);}.oh{clip-path:url(#db);}.oi{clip-path:url(#dk);}.oj{clip-path:url(#dh);}.ok{clip-path:url(#di);}.ol{clip-path:url(#dn);}.om{clip-path:url(#dd);}.on{clip-path:url(#dc);}.oo{clip-path:url(#da);}.op{clip-path:url(#df);}.oq{clip-path:url(#cl);}.or{clip-path:url(#cr);}.os{clip-path:url(#cq);}.ot{clip-path:url(#cz);}.ou{clip-path:url(#cw);}.ov{clip-path:url(#cx);}.ow{clip-path:url(#bn);}.ox{clip-path:url(#cs);}.oy{clip-path:url(#bh);}.oz{clip-path:url(#bm);}.pa{clip-path:url(#cp);}.pb{clip-path:url(#co);}.pc{clip-path:url(#cv);}.pd{clip-path:url(#cu);}.pe{clip-path:url(#ct);}.pf{clip-path:url(#cy);}.pg{clip-path:url(#ck);}.ph{clip-path:url(#cb);}.pi{clip-path:url(#ca);}.pj{clip-path:url(#ch);}.pk{clip-path:url(#cg);}.pl{clip-path:url(#cn);}.pm{clip-path:url(#cm);}.pn{clip-path:url(#cc);}.po{clip-path:url(#cf);}.pp{clip-path:url(#ce);}.pq{clip-path:url(#bv);}.pr{clip-path:url(#bp);}.ps{clip-path:url(#bu);}.pt{clip-path:url(#bt);}.pu{clip-path:url(#by);}.pv{clip-path:url(#bz);}.pw{clip-path:url(#bs);}.px{clip-path:url(#br);}.py{clip-path:url(#bw);}.pz{clip-path:url(#bl);}.qa{clip-path:url(#bq);}.qb{clip-path:url(#bx);}.qc{clip-path:url(#bf);}.qd{clip-path:url(#bk);}.qe{clip-path:url(#be);}.qf{clip-path:url(#bj);}.qg{clip-path:url(#bo);}.qh{clip-path:url(#bd);}.qi{clip-path:url(#bi);}.qj{clip-path:url(#bc);}.qk{clip-path:url(#bb);}.ql{clip-path:url(#bg);}.qm{clip-path:url(#ba);}</style><clipPath id="d"><rect class="hd" x="444.56" y="211.85" width="55.44" height="75.24"/></clipPath><clipPath id="e"><rect class="hd" x="307.7" y="141.7" width="191.56" height="163.34" transform="translate(-41.81 103.33) rotate(-13.88)"/></clipPath><clipPath id="f"><rect class="hd" x="307.7" y="141.7" width="191.56" height="163.34" transform="translate(-41.81 103.33) rotate(-13.88)"/></clipPath><clipPath id="g"><rect class="hd" x="307.7" y="141.7" width="191.56" height="163.34" transform="translate(-41.81 103.33) rotate(-13.88)"/></clipPath><clipPath id="h"><rect class="hd" x="339.63" y="150.8" width="72.93" height="26.4"/></clipPath><clipPath id="i"><rect class="hd" x="307.7" y="141.7" width="191.56" height="163.34" transform="translate(-41.81 103.33) rotate(-13.88)"/></clipPath><clipPath id="j"><rect class="hd" x="307.7" y="141.7" width="191.56" height="163.34" transform="translate(-41.81 103.33) rotate(-13.88)"/></clipPath><clipPath id="k"><rect class="hd" x="307.7" y="141.7" width="191.56" height="163.34" transform="translate(-41.81 103.33) rotate(-13.88)"/></clipPath><clipPath id="l"><rect class="hd" x="342.27" y="159.71" width="35.97" height="16.83"/></clipPath><clipPath id="m"><rect class="hd" x="307.7" y="141.7" width="191.56" height="163.34" transform="translate(-41.81 103.33) rotate(-13.88)"/></clipPath><clipPath id="n"><rect class="hd" x="307.7" y="141.7" width="191.56" height="163.34" transform="translate(-41.81 103.33) rotate(-13.88)"/></clipPath><clipPath id="o"><rect class="hd" x="307.7" y="141.7" width="191.56" height="163.34" transform="translate(-41.81 103.33) rotate(-13.88)"/></clipPath><clipPath id="p"><rect class="hd" x="335.01" y="171.26" width="5.61" height="4.95"/></clipPath><clipPath id="q"><rect class="hd" x="307.7" y="141.7" width="191.56" height="163.34" transform="translate(-41.81 103.33) rotate(-13.88)"/></clipPath><clipPath id="r"><rect class="hd" x="307.7" y="141.7" width="191.56" height="163.34" transform="translate(-41.81 103.33) rotate(-13.88)"/></clipPath><clipPath id="s"><rect class="hd" x="307.7" y="141.7" width="191.56" height="163.34" transform="translate(-41.81 103.33) rotate(-13.88)"/></clipPath><clipPath id="t"><rect class="hd" x="327.75" y="171.92" width="9.24" height="4.95"/></clipPath><clipPath id="u"><rect class="hd" x="307.7" y="141.7" width="191.56" height="163.34" transform="translate(-41.81 103.33) rotate(-13.88)"/></clipPath><clipPath id="v"><rect class="hd" x="307.7" y="141.7" width="191.56" height="163.34" transform="translate(-41.81 103.33) rotate(-13.88)"/></clipPath><clipPath id="w"><rect class="hd" x="307.7" y="141.7" width="191.56" height="163.34" transform="translate(-41.81 103.33) rotate(-13.88)"/></clipPath><clipPath id="x"><rect class="hd" x="335.01" y="171.26" width="2.64" height="5.61"/></clipPath><clipPath id="y"><rect class="hd" x="307.7" y="141.7" width="191.56" height="163.34" transform="translate(-41.81 103.33) rotate(-13.88)"/></clipPath><clipPath id="z"><rect class="hd" x="307.7" y="141.7" width="191.56" height="163.34" transform="translate(-41.81 103.33) rotate(-13.88)"/></clipPath><clipPath id="aa"><rect class="hd" x="307.7" y="141.7" width="191.56" height="163.34" transform="translate(-41.81 103.33) rotate(-13.88)"/></clipPath><clipPath id="ab"><rect class="hd" x="408.92" y="150.14" width="4.62" height="10.89"/></clipPath><clipPath id="ac"><rect class="hd" x="307.7" y="141.7" width="191.56" height="163.34" transform="translate(-41.81 103.33) rotate(-13.88)"/></clipPath><clipPath id="ad"><rect class="hd" x="307.7" y="141.7" width="191.56" height="163.34" transform="translate(-41.81 103.33) rotate(-13.88)"/></clipPath><clipPath id="ae"><rect class="hd" x="307.7" y="141.7" width="191.56" height="163.34" transform="translate(-41.81 103.33) rotate(-13.88)"/></clipPath><clipPath id="af"><rect class="hd" x="411.56" y="146.84" width="22.44" height="11.55"/></clipPath><clipPath id="ag"><rect class="hd" x="307.7" y="141.7" width="191.56" height="163.34" transform="translate(-41.81 103.33) rotate(-13.88)"/></clipPath><clipPath id="ah"><rect class="hd" x="307.7" y="141.7" width="191.56" height="163.34" transform="translate(-41.81 103.33) rotate(-13.88)"/></clipPath><clipPath id="ai"><rect class="hd" x="307.7" y="141.7" width="191.56" height="163.34" transform="translate(-41.81 103.33) rotate(-13.88)"/></clipPath><clipPath id="aj"><rect class="hd" x="412.22" y="149.81" width="21.12" height="5.94"/></clipPath><clipPath id="ak"><rect class="hd" x="307.7" y="141.7" width="191.56" height="163.34" transform="translate(-41.81 103.33) rotate(-13.88)"/></clipPath><clipPath id="al"><rect class="hd" x="307.7" y="141.7" width="191.56" height="163.34" transform="translate(-41.81 103.33) rotate(-13.88)"/></clipPath><clipPath id="am"><rect class="hd" x="307.7" y="141.7" width="191.56" height="163.34" transform="translate(-41.81 103.33) rotate(-13.88)"/></clipPath><clipPath id="an"><rect class="hd" x="431.03" y="145.86" width="3.96" height="8.58"/></clipPath><clipPath id="ao"><rect class="hd" x="307.7" y="141.7" width="191.56" height="163.34" transform="translate(-41.81 103.33) rotate(-13.88)"/></clipPath><clipPath id="ap"><rect class="hd" x="307.7" y="141.7" width="191.56" height="163.34" transform="translate(-41.81 103.33) rotate(-13.88)"/></clipPath><clipPath id="aq"><rect class="hd" x="307.7" y="141.7" width="191.56" height="163.34" transform="translate(-41.81 103.33) rotate(-13.88)"/></clipPath><clipPath id="ar"><rect class="hd" x="295.08" y="175.55" width="33.33" height="9.24"/></clipPath><clipPath id="as"><rect class="hd" x="307.7" y="141.7" width="191.56" height="163.34" transform="translate(-41.81 103.33) rotate(-13.88)"/></clipPath><clipPath id="at"><rect class="hd" x="307.7" y="141.7" width="191.56" height="163.34" transform="translate(-41.81 103.33) rotate(-13.88)"/></clipPath><clipPath id="au"><rect class="hd" x="307.7" y="141.7" width="191.56" height="163.34" transform="translate(-41.81 103.33) rotate(-13.88)"/></clipPath><clipPath id="av"><rect class="hd" x="295.08" y="175.88" width="33.33" height="8.91"/></clipPath><clipPath id="aw"><rect class="hd" x="307.7" y="141.7" width="191.56" height="163.34" transform="translate(-41.81 103.33) rotate(-13.88)"/></clipPath><clipPath id="ax"><rect class="hd" x="307.7" y="141.7" width="191.56" height="163.34" transform="translate(-41.81 103.33) rotate(-13.88)"/></clipPath><clipPath id="ay"><rect class="hd" x="307.7" y="141.7" width="191.56" height="163.34" transform="translate(-41.81 103.33) rotate(-13.88)"/></clipPath><clipPath id="az"><rect class="hd" x="334.68" y="171.92" width="1.65" height="4.62"/></clipPath><clipPath id="ba"><rect class="hd" x="307.7" y="141.7" width="191.56" height="163.34" transform="translate(-41.81 103.33) rotate(-13.88)"/></clipPath><clipPath id="bb"><rect class="hd" x="307.7" y="141.7" width="191.56" height="163.34" transform="translate(-41.81 103.33) rotate(-13.88)"/></clipPath><clipPath id="bc"><rect class="hd" x="307.7" y="141.7" width="191.56" height="163.34" transform="translate(-41.81 103.33) rotate(-13.88)"/></clipPath><clipPath id="bd"><rect class="hd" x="375.92" y="159.05" width="4.62" height="9.24"/></clipPath><clipPath id="be"><rect class="hd" x="307.7" y="141.7" width="191.56" height="163.34" transform="translate(-41.81 103.33) rotate(-13.88)"/></clipPath><clipPath id="bf"><rect class="hd" x="307.7" y="141.7" width="191.56" height="163.34" transform="translate(-41.81 103.33) rotate(-13.88)"/></clipPath><clipPath id="bg"><rect class="hd" x="307.7" y="141.7" width="191.56" height="163.34" transform="translate(-41.81 103.33) rotate(-13.88)"/></clipPath><clipPath id="bh"><rect class="hd" x="342.27" y="161.03" width="35.31" height="11.88"/></clipPath><clipPath id="bi"><rect class="hd" x="307.7" y="141.7" width="191.56" height="163.34" transform="translate(-41.81 103.33) rotate(-13.88)"/></clipPath><clipPath id="bj"><rect class="hd" x="307.7" y="141.7" width="191.56" height="163.34" transform="translate(-41.81 103.33) rotate(-13.88)"/></clipPath><clipPath id="bk"><rect class="hd" x="307.7" y="141.7" width="191.56" height="163.34" transform="translate(-41.81 103.33) rotate(-13.88)"/></clipPath><clipPath id="bl"><rect class="hd" x="376.58" y="152.78" width="33.66" height="11.55"/></clipPath><clipPath id="bm"><rect class="hd" x="307.7" y="141.7" width="191.56" height="163.34" transform="translate(-41.81 103.33) rotate(-13.88)"/></clipPath><clipPath id="bn"><rect class="hd" x="307.7" y="141.7" width="191.56" height="163.34" transform="translate(-41.81 103.33) rotate(-13.88)"/></clipPath><clipPath id="bo"><rect class="hd" x="307.7" y="141.7" width="191.56" height="163.34" transform="translate(-41.81 103.33) rotate(-13.88)"/></clipPath><clipPath id="bp"><rect class="hd" x="376.25" y="160.37" width="3.3" height="3.96"/></clipPath><clipPath id="bq"><rect class="hd" x="307.7" y="141.7" width="191.56" height="163.34" transform="translate(-41.81 103.33) rotate(-13.88)"/></clipPath><clipPath id="br"><rect class="hd" x="307.7" y="141.7" width="191.56" height="163.34" transform="translate(-41.81 103.33) rotate(-13.88)"/></clipPath><clipPath id="bs"><rect class="hd" x="307.7" y="141.7" width="191.56" height="163.34" transform="translate(-41.81 103.33) rotate(-13.88)"/></clipPath><clipPath id="bt"><rect class="hd" x="408.92" y="151.13" width="2.64" height="9.57"/></clipPath><clipPath id="bu"><rect class="hd" x="307.7" y="141.7" width="191.56" height="163.34" transform="translate(-41.81 103.33) rotate(-13.88)"/></clipPath><clipPath id="bv"><rect class="hd" x="307.7" y="141.7" width="191.56" height="163.34" transform="translate(-41.81 103.33) rotate(-13.88)"/></clipPath><clipPath id="bw"><rect class="hd" x="307.7" y="141.7" width="191.56" height="163.34" transform="translate(-41.81 103.33) rotate(-13.88)"/></clipPath><clipPath id="bx"><rect class="hd" x="344.91" y="166.64" width="1.98" height="4.62"/></clipPath><clipPath id="by"><rect class="hd" x="307.7" y="141.7" width="191.56" height="163.34" transform="translate(-41.81 103.33) rotate(-13.88)"/></clipPath><clipPath id="bz"><rect class="hd" x="307.7" y="141.7" width="191.56" height="163.34" transform="translate(-41.81 103.33) rotate(-13.88)"/></clipPath><clipPath id="ca"><rect class="hd" x="307.7" y="141.7" width="191.56" height="163.34" transform="translate(-41.81 103.33) rotate(-13.88)"/></clipPath><clipPath id="cb"><rect class="hd" x="350.85" y="164.99" width="1.65" height="3.3"/></clipPath><clipPath id="cc"><rect class="hd" x="307.7" y="141.7" width="191.56" height="163.34" transform="translate(-41.81 103.33) rotate(-13.88)"/></clipPath><clipPath id="cd"><rect class="hd" x="307.7" y="141.7" width="191.56" height="163.34" transform="translate(-41.81 103.33) rotate(-13.88)"/></clipPath><clipPath id="ce"><rect class="hd" x="307.7" y="141.7" width="191.56" height="163.34" transform="translate(-41.81 103.33) rotate(-13.88)"/></clipPath><clipPath id="cf"><rect class="hd" x="355.79" y="163.67" width="2.31" height="4.95"/></clipPath><clipPath id="cg"><rect class="hd" x="307.7" y="141.7" width="191.56" height="163.34" transform="translate(-41.81 103.33) rotate(-13.88)"/></clipPath><clipPath id="ch"><rect class="hd" x="307.7" y="141.7" width="191.56" height="163.34" transform="translate(-41.81 103.33) rotate(-13.88)"/></clipPath><clipPath id="ci"><rect class="hd" x="307.7" y="141.7" width="191.56" height="163.34" transform="translate(-41.81 103.33) rotate(-13.88)"/></clipPath><clipPath id="cj"><rect class="hd" x="361.73" y="162.35" width="1.65" height="3.3"/></clipPath><clipPath id="ck"><rect class="hd" x="307.7" y="141.7" width="191.56" height="163.34" transform="translate(-41.81 103.33) rotate(-13.88)"/></clipPath><clipPath id="cl"><rect class="hd" x="307.7" y="141.7" width="191.56" height="163.34" transform="translate(-41.81 103.33) rotate(-13.88)"/></clipPath><clipPath id="cm"><rect class="hd" x="307.7" y="141.7" width="191.56" height="163.34" transform="translate(-41.81 103.33) rotate(-13.88)"/></clipPath><clipPath id="cn"><rect class="hd" x="367.67" y="161.03" width="1.98" height="4.62"/></clipPath><clipPath id="co"><rect class="hd" x="307.7" y="141.7" width="191.56" height="163.34" transform="translate(-41.81 103.33) rotate(-13.88)"/></clipPath><clipPath id="cp"><rect class="hd" x="307.7" y="141.7" width="191.56" height="163.34" transform="translate(-41.81 103.33) rotate(-13.88)"/></clipPath><clipPath id="cq"><rect class="hd" x="307.7" y="141.7" width="191.56" height="163.34" transform="translate(-41.81 103.33) rotate(-13.88)"/></clipPath><clipPath id="cr"><rect class="hd" x="373.61" y="159.38" width="1.65" height="3.3"/></clipPath><clipPath id="cs"><rect class="hd" x="307.7" y="141.7" width="191.56" height="163.34" transform="translate(-41.81 103.33) rotate(-13.88)"/></clipPath><clipPath id="ct"><rect class="hd" x="307.7" y="141.7" width="191.56" height="163.34" transform="translate(-41.81 103.33) rotate(-13.88)"/></clipPath><clipPath id="cu"><rect class="hd" x="307.7" y="141.7" width="191.56" height="163.34" transform="translate(-41.81 103.33) rotate(-13.88)"/></clipPath><clipPath id="cv"><rect class="hd" x="378.56" y="158.06" width="2.31" height="4.95"/></clipPath><clipPath id="cw"><rect class="hd" x="307.7" y="141.7" width="191.56" height="163.34" transform="translate(-41.81 103.33) rotate(-13.88)"/></clipPath><clipPath id="cx"><rect class="hd" x="307.7" y="141.7" width="191.56" height="163.34" transform="translate(-41.81 103.33) rotate(-13.88)"/></clipPath><clipPath id="cy"><rect class="hd" x="307.7" y="141.7" width="191.56" height="163.34" transform="translate(-41.81 103.33) rotate(-13.88)"/></clipPath><clipPath id="cz"><rect class="hd" x="384.5" y="156.74" width="1.65" height="3.3"/></clipPath><clipPath id="da"><rect class="hd" x="307.7" y="141.7" width="191.56" height="163.34" transform="translate(-41.81 103.33) rotate(-13.88)"/></clipPath><clipPath id="db"><rect class="hd" x="307.7" y="141.7" width="191.56" height="163.34" transform="translate(-41.81 103.33) rotate(-13.88)"/></clipPath><clipPath id="dc"><rect class="hd" x="307.7" y="141.7" width="191.56" height="163.34" transform="translate(-41.81 103.33) rotate(-13.88)"/></clipPath><clipPath id="dd"><rect class="hd" x="390.11" y="155.42" width="1.98" height="4.62"/></clipPath><clipPath id="de"><rect class="hd" x="307.7" y="141.7" width="191.56" height="163.34" transform="translate(-41.81 103.33) rotate(-13.88)"/></clipPath><clipPath id="df"><rect class="hd" x="307.7" y="141.7" width="191.56" height="163.34" transform="translate(-41.81 103.33) rotate(-13.88)"/></clipPath><clipPath id="dg"><rect class="hd" x="307.7" y="141.7" width="191.56" height="163.34" transform="translate(-41.81 103.33) rotate(-13.88)"/></clipPath><clipPath id="dh"><rect class="hd" x="395.72" y="154.1" width="1.98" height="2.97"/></clipPath><clipPath id="di"><rect class="hd" x="307.7" y="141.7" width="191.56" height="163.34" transform="translate(-41.81 103.33) rotate(-13.88)"/></clipPath><clipPath id="dj"><rect class="hd" x="307.7" y="141.7" width="191.56" height="163.34" transform="translate(-41.81 103.33) rotate(-13.88)"/></clipPath><clipPath id="dk"><rect class="hd" x="307.7" y="141.7" width="191.56" height="163.34" transform="translate(-41.81 103.33) rotate(-13.88)"/></clipPath><clipPath id="dl"><rect class="hd" x="401" y="152.78" width="1.98" height="4.62"/></clipPath><clipPath id="dm"><rect class="hd" x="307.7" y="141.7" width="191.56" height="163.34" transform="translate(-41.81 103.33) rotate(-13.88)"/></clipPath><clipPath id="dn"><rect class="hd" x="307.7" y="141.7" width="191.56" height="163.34" transform="translate(-41.81 103.33) rotate(-13.88)"/></clipPath><clipPath id="do"><rect class="hd" x="307.7" y="141.7" width="191.56" height="163.34" transform="translate(-41.81 103.33) rotate(-13.88)"/></clipPath><clipPath id="dp"><rect class="hd" x="299.37" y="175.55" width="29.04" height="7.59"/></clipPath><clipPath id="dq"><rect class="hd" x="307.7" y="141.7" width="191.56" height="163.34" transform="translate(-41.81 103.33) rotate(-13.88)"/></clipPath><clipPath id="dr"><rect class="hd" x="307.7" y="141.7" width="191.56" height="163.34" transform="translate(-41.81 103.33) rotate(-13.88)"/></clipPath><clipPath id="ds"><rect class="hd" x="307.7" y="141.7" width="191.56" height="163.34" transform="translate(-41.81 103.33) rotate(-13.88)"/></clipPath><clipPath id="dt"><rect class="hd" x="336.33" y="171.92" width="4.29" height="3.96"/></clipPath><clipPath id="du"><rect class="hd" x="307.7" y="141.7" width="191.56" height="163.34" transform="translate(-41.81 103.33) rotate(-13.88)"/></clipPath><clipPath id="dv"><rect class="hd" x="307.7" y="141.7" width="191.56" height="163.34" transform="translate(-41.81 103.33) rotate(-13.88)"/></clipPath><clipPath id="dw"><rect class="hd" x="307.7" y="141.7" width="191.56" height="163.34" transform="translate(-41.81 103.33) rotate(-13.88)"/></clipPath><clipPath id="dx"><rect class="hd" x="448.52" y="211.52" width="33.33" height="40.26"/></clipPath><clipPath id="dy"><rect class="hd" x="307.7" y="141.7" width="191.56" height="163.34" transform="translate(-41.81 103.33) rotate(-13.88)"/></clipPath><clipPath id="dz"><rect class="hd" x="307.7" y="141.7" width="191.56" height="163.34" transform="translate(-41.81 103.33) rotate(-13.88)"/></clipPath><clipPath id="ea"><rect class="hd" x="307.7" y="141.7" width="191.56" height="163.34" transform="translate(-41.81 103.33) rotate(-13.88)"/></clipPath><clipPath id="eb"><rect class="hd" x="372.29" y="140.25" width="109.56" height="111.21"/></clipPath><clipPath id="ec"><rect class="hd" x="307.7" y="141.7" width="191.56" height="163.34" transform="translate(-41.81 103.33) rotate(-13.88)"/></clipPath><clipPath id="ed"><rect class="hd" x="307.7" y="141.7" width="191.56" height="163.34" transform="translate(-41.81 103.33) rotate(-13.88)"/></clipPath><clipPath id="ee"><rect class="hd" x="307.7" y="141.7" width="191.56" height="163.34" transform="translate(-41.81 103.33) rotate(-13.88)"/></clipPath><clipPath id="ef"><rect class="hd" x="372.29" y="163.01" width="109.56" height="88.44"/></clipPath><clipPath id="eg"><rect class="hd" x="307.7" y="141.7" width="191.56" height="163.34" transform="translate(-41.81 103.33) rotate(-13.88)"/></clipPath><clipPath id="eh"><rect class="hd" x="307.7" y="141.7" width="191.56" height="163.34" transform="translate(-41.81 103.33) rotate(-13.88)"/></clipPath><clipPath id="ei"><rect class="hd" x="307.7" y="141.7" width="191.56" height="163.34" transform="translate(-41.81 103.33) rotate(-13.88)"/></clipPath><clipPath id="ej"><rect class="hd" x="387.14" y="163.67" width="19.14" height="9.24"/></clipPath><clipPath id="ek"><rect class="hd" x="307.7" y="141.7" width="191.56" height="163.34" transform="translate(-41.81 103.33) rotate(-13.88)"/></clipPath><clipPath id="el"><rect class="hd" x="307.7" y="141.7" width="191.56" height="163.34" transform="translate(-41.81 103.33) rotate(-13.88)"/></clipPath><clipPath id="em"><rect class="hd" x="307.7" y="141.7" width="191.56" height="163.34" transform="translate(-41.81 103.33) rotate(-13.88)"/></clipPath><clipPath id="en"><rect class="hd" x="377.24" y="179.51" width="22.44" height="9.9"/></clipPath><clipPath id="eo"><rect class="hd" x="307.7" y="141.7" width="191.56" height="163.34" transform="translate(-41.81 103.33) rotate(-13.88)"/></clipPath><clipPath id="ep"><rect class="hd" x="307.7" y="141.7" width="191.56" height="163.34" transform="translate(-41.81 103.33) rotate(-13.88)"/></clipPath><clipPath id="eq"><rect class="hd" x="307.7" y="141.7" width="191.56" height="163.34" transform="translate(-41.81 103.33) rotate(-13.88)"/></clipPath><clipPath id="er"><rect class="hd" x="380.21" y="197.99" width="17.82" height="8.25"/></clipPath><clipPath id="es"><rect class="hd" x="307.7" y="141.7" width="191.56" height="163.34" transform="translate(-41.81 103.33) rotate(-13.88)"/></clipPath><clipPath id="et"><rect class="hd" x="307.7" y="141.7" width="191.56" height="163.34" transform="translate(-41.81 103.33) rotate(-13.88)"/></clipPath><clipPath id="eu"><rect class="hd" x="307.7" y="141.7" width="191.56" height="163.34" transform="translate(-41.81 103.33) rotate(-13.88)"/></clipPath><clipPath id="ev"><rect class="hd" x="377.57" y="139.59" width="100.98" height="71.28"/></clipPath><clipPath id="ew"><rect class="hd" x="307.7" y="141.7" width="191.56" height="163.34" transform="translate(-41.81 103.33) rotate(-13.88)"/></clipPath><clipPath id="ex"><rect class="hd" x="307.7" y="141.7" width="191.56" height="163.34" transform="translate(-41.81 103.33) rotate(-13.88)"/></clipPath><clipPath id="ey"><rect class="hd" x="307.7" y="141.7" width="191.56" height="163.34" transform="translate(-41.81 103.33) rotate(-13.88)"/></clipPath><clipPath id="ez"><rect class="hd" x="353.81" y="63.03" width="73.59" height="80.52"/></clipPath><clipPath id="fa"><rect class="hd" x="213.94" y="-24.57" width="250.96" height="192.55" transform="translate(-.93 138.88) rotate(-23.1)"/></clipPath><clipPath id="fb"><rect class="hd" x="213.94" y="-24.57" width="250.96" height="192.55" transform="translate(-.93 138.88) rotate(-23.1)"/></clipPath><clipPath id="fc"><rect class="hd" x="213.94" y="-24.57" width="250.96" height="192.55" transform="translate(-.93 138.88) rotate(-23.1)"/></clipPath><clipPath id="fd"><rect class="hd" x="302.01" width="49.5" height="10.23"/></clipPath><clipPath id="fe"><rect class="hd" x="213.94" y="-24.57" width="250.96" height="192.55" transform="translate(-.93 138.88) rotate(-23.1)"/></clipPath><clipPath id="ff"><rect class="hd" x="213.94" y="-24.57" width="250.96" height="192.55" transform="translate(-.93 138.88) rotate(-23.1)"/></clipPath><clipPath id="fg"><rect class="hd" x="213.94" y="-24.57" width="250.96" height="192.55" transform="translate(-.93 138.88) rotate(-23.1)"/></clipPath><clipPath id="fh"><rect class="hd" x="361.4" width="34.65" height="51.15"/></clipPath><clipPath id="fi"><rect class="hd" x="213.94" y="-24.57" width="250.96" height="192.55" transform="translate(-.93 138.88) rotate(-23.1)"/></clipPath><clipPath id="fj"><rect class="hd" x="213.94" y="-24.57" width="250.96" height="192.55" transform="translate(-.93 138.88) rotate(-23.1)"/></clipPath><clipPath id="fk"><rect class="hd" x="213.94" y="-24.57" width="250.96" height="192.55" transform="translate(-.93 138.88) rotate(-23.1)"/></clipPath><clipPath id="fl"><rect class="hd" x="313.89" width="74.91" height="64.02"/></clipPath><clipPath id="fm"><rect class="hd" x="213.94" y="-24.57" width="250.96" height="192.55" transform="translate(-.93 138.88) rotate(-23.1)"/></clipPath><clipPath id="fn"><rect class="hd" x="213.94" y="-24.57" width="250.96" height="192.55" transform="translate(-.93 138.88) rotate(-23.1)"/></clipPath><clipPath id="fo"><rect class="hd" x="213.94" y="-24.57" width="250.96" height="192.55" transform="translate(-.93 138.88) rotate(-23.1)"/></clipPath><clipPath id="fp"><rect class="hd" x="261.09" y="53.13" width="20.46" height="52.47"/></clipPath><clipPath id="fq"><rect class="hd" x="213.94" y="-24.57" width="250.96" height="192.55" transform="translate(-.93 138.88) rotate(-23.1)"/></clipPath><clipPath id="fr"><rect class="hd" x="213.94" y="-24.57" width="250.96" height="192.55" transform="translate(-.93 138.88) rotate(-23.1)"/></clipPath><clipPath id="fs"><rect class="hd" x="213.94" y="-24.57" width="250.96" height="192.55" transform="translate(-.93 138.88) rotate(-23.1)"/></clipPath><clipPath id="ft"><rect class="hd" x="309.27" y="17.49" width="48.84" height="112.53"/></clipPath><clipPath id="fu"><rect class="hd" x="213.94" y="-24.57" width="250.96" height="192.55" transform="translate(-.93 138.88) rotate(-23.1)"/></clipPath><clipPath id="fv"><rect class="hd" x="213.94" y="-24.57" width="250.96" height="192.55" transform="translate(-.93 138.88) rotate(-23.1)"/></clipPath><clipPath id="fw"><rect class="hd" x="213.94" y="-24.57" width="250.96" height="192.55" transform="translate(-.93 138.88) rotate(-23.1)"/></clipPath><clipPath id="fx"><rect class="hd" x="238.65" y="113.85" width="90.75" height="61.71"/></clipPath><clipPath id="fy"><rect class="hd" x="213.94" y="-24.57" width="250.96" height="192.55" transform="translate(-.93 138.88) rotate(-23.1)"/></clipPath><clipPath id="fz"><rect class="hd" x="213.94" y="-24.57" width="250.96" height="192.55" transform="translate(-.93 138.88) rotate(-23.1)"/></clipPath><clipPath id="ga"><rect class="hd" x="213.94" y="-24.57" width="250.96" height="192.55" transform="translate(-.93 138.88) rotate(-23.1)"/></clipPath><clipPath id="gb"><rect class="hd" x="247.23" y="9.24" width="80.19" height="127.05"/></clipPath><clipPath id="gc"><rect class="hd" x="213.94" y="-24.57" width="250.96" height="192.55" transform="translate(-.93 138.88) rotate(-23.1)"/></clipPath><clipPath id="gd"><rect class="hd" x="213.94" y="-24.57" width="250.96" height="192.55" transform="translate(-.93 138.88) rotate(-23.1)"/></clipPath><clipPath id="ge"><rect class="hd" x="213.94" y="-24.57" width="250.96" height="192.55" transform="translate(-.93 138.88) rotate(-23.1)"/></clipPath><clipPath id="gf"><rect class="hd" x="279.57" y="49.17" width="46.86" height="48.18"/></clipPath><clipPath id="gg"><rect class="hd" x="213.94" y="-24.57" width="250.96" height="192.55" transform="translate(-.93 138.88) rotate(-23.1)"/></clipPath><clipPath id="gh"><rect class="hd" x="213.94" y="-24.57" width="250.96" height="192.55" transform="translate(-.93 138.88) rotate(-23.1)"/></clipPath><clipPath id="gi"><rect class="hd" x="213.94" y="-24.57" width="250.96" height="192.55" transform="translate(-.93 138.88) rotate(-23.1)"/></clipPath><clipPath id="gj"><rect class="hd" x="311.58" y="55.11" width="39.93" height="34.98"/></clipPath><clipPath id="gk"><rect class="hd" x="213.94" y="-24.57" width="250.96" height="192.55" transform="translate(-.93 138.88) rotate(-23.1)"/></clipPath><clipPath id="gl"><rect class="hd" x="213.94" y="-24.57" width="250.96" height="192.55" transform="translate(-.93 138.88) rotate(-23.1)"/></clipPath><clipPath id="gm"><rect class="hd" x="213.94" y="-24.57" width="250.96" height="192.55" transform="translate(-.93 138.88) rotate(-23.1)"/></clipPath><clipPath id="gn"><rect class="hd" x="314.22" y="32.67" width="11.22" height="20.46"/></clipPath><clipPath id="go"><rect class="hd" x="213.94" y="-24.57" width="250.96" height="192.55" transform="translate(-.93 138.88) rotate(-23.1)"/></clipPath><clipPath id="gp"><rect class="hd" x="213.94" y="-24.57" width="250.96" height="192.55" transform="translate(-.93 138.88) rotate(-23.1)"/></clipPath><clipPath id="gq"><rect class="hd" x="213.94" y="-24.57" width="250.96" height="192.55" transform="translate(-.93 138.88) rotate(-23.1)"/></clipPath><clipPath id="gr"><rect class="hd" x="364.37" width="108.57" height="70.62"/></clipPath><clipPath id="gs"><rect class="hd" x="213.94" y="-24.57" width="250.96" height="192.55" transform="translate(-.93 138.88) rotate(-23.1)"/></clipPath><clipPath id="gt"><rect class="hd" x="213.94" y="-24.57" width="250.96" height="192.55" transform="translate(-.93 138.88) rotate(-23.1)"/></clipPath><clipPath id="gu"><rect class="hd" x="213.94" y="-24.57" width="250.96" height="192.55" transform="translate(-.93 138.88) rotate(-23.1)"/></clipPath><clipPath id="gv"><rect class="hd" x="245.25" y="121.11" width="83.49" height="21.12"/></clipPath><clipPath id="gw"><rect class="hd" x="213.94" y="-24.57" width="250.96" height="192.55" transform="translate(-.93 138.88) rotate(-23.1)"/></clipPath><clipPath id="gx"><rect class="hd" x="213.94" y="-24.57" width="250.96" height="192.55" transform="translate(-.93 138.88) rotate(-23.1)"/></clipPath><clipPath id="gy"><rect class="hd" x="213.94" y="-24.57" width="250.96" height="192.55" transform="translate(-.93 138.88) rotate(-23.1)"/></clipPath><clipPath id="gz"><rect class="hd" x="403.44" width="96.56" height="71.78"/></clipPath><clipPath id="ha"><rect class="hd" x="483.5" y="275.21" width="16.5" height="21.78"/></clipPath><clipPath id="hb"><rect class="hd" x="490.04" y="275.79" width="11.88" height="23.51" transform="translate(-58.07 434.91) rotate(-45)"/></clipPath><clipPath id="hc"><rect class="hd" x="490.04" y="275.79" width="11.88" height="23.51" transform="translate(-58.07 434.91) rotate(-45)"/></clipPath></defs><g id="c"><path class="he" d="M238.22,273.72c17.03-1.89,36.41,0,36.41,0,48.21,14.26,97.36-5.21,97.36-5.21,66.64,10.44,82.25-26.45,82.25-26.45,19.86-66.18,45.38-61.44,45.38-61.44V116.33s-25.52,4.74-45.38-61.42c0,0-15.61-36.9-82.25-26.47,0,0-49.16-19.45-97.36-5.2,0,0-19.39,1.87-36.41-.01,0,0-35.44-9.44-145.11,7.1,0,0-38.76-4.71-55.79,11.35,0,0-3.46,4.09,11.34-.94,0,0,6.53-1.26,13.97-2.02,0,0,6.5,2.51,6.15,4.27-.32,1.72-4.58,4.18-4.98,5.93,0,0-8.25,4.34-13.59,4.34,0,0-4.43,1.59-4.73,4.73,0,0,13.27-1.51,18.63-.88,0,0,21.38-5.24,25.46-11.55,0,0,26.7,1.31,44.19,3.66,0,0,80.36,17.5,107.77,6.63,0,0,17.96-4.26,32.15-.94,0,0,40.19,15.45,76.06,12.18-12.19,2.12-29.87,11.89-49.12,16.16,0,0-55.79,3.78-86.04-5.2,0,0-52.45-17.02-122.89,.48,0,0-59.55,4.73-91.69,7.53v50.13l92.84,12.28L0,160.76v50.1c32.14,2.83,91.69,7.55,91.69,7.55,70.45,17.5,122.89,.48,122.89,.48,30.25-8.98,86.04-5.2,86.04-5.2,19.25,4.27,36.93,14.04,49.12,16.17-35.86-3.27-76.06,12.19-76.06,12.19-14.19,3.3-32.15-.96-32.15-.96-27.41-10.86-107.77,6.62-107.77,6.62-17.49,2.37-44.19,3.67-44.19,3.67-4.08-6.29-25.46-11.55-25.46-11.55-5.36,.65-18.63-.86-18.63-.86,.31,3.16,4.73,4.73,4.73,4.73,5.34,0,13.59,4.33,13.59,4.33,.4,1.75,4.66,4.24,4.98,5.94,.34,1.75-6.15,4.27-6.15,4.27-7.44-.76-13.97-2.02-13.97-2.02-14.8-5.04-11.34-.95-11.34-.95,17.03,16.07,55.79,11.34,55.79,11.34,109.67,16.54,145.11,7.11,145.11,7.11"/><path class="hf" d="M337.65,70.61c1.09-.4,2.16-.78,3.2-1.13h.02c-1.05,.35-2.12,.73-3.22,1.13"/><path class="hl" d="M0,102.94v-16.88c12.85-1.12,30.07-2.55,46.12-3.86-2.37,6.38-3.8,13.37-4.61,20.29-17.23,.15-31.7,.32-41.52,.45m225.27,.82c1.7-11.46,3.37-19.72,3.96-22.54,14.28,2.23,30.71,2.82,44.2,2.82,15.54,0,27.19-.79,27.19-.79,13.6-3.01,26.39-8.76,37.03-12.63,1.1-.4,2.17-.78,3.22-1.13,12.1-1.55,21.88-2.48,21.88-2.48-55.78,10.12-62.02,39.4-62.02,52,0,3.63,.52,5.87,.52,5.87-3.05-7.37-3.88-13.57-3.88-18.12,0-5.38,1.15-8.46,1.15-8.46-8.46-.11-31.85,8.61-31.85,8.61-8.02-1.41-22.74-2.42-41.4-3.14"/><path class="ic" d="M229.47,80.15s-19.06,85.79-.86,136.58c0,0-73.52,23.13-189.18,5.49,0,0-7.57-56.26,3.15-72.62l23.48-1.89-23.65-3.15s-7.21-43.93,7.1-69.8c0,0,69-20.63,179.96,5.39"/><path class="ie" d="M40.79,111.33c.62-12.39,2.87-25.99,8.72-36.56,0,0,25.95-7.76,71.62-7.76,28.8,0,65.43,3.09,108.34,13.15h0c-.02,.09-3.12,14.02-5.61,33.92-24.67-5.61-129.9-27.33-183.07-2.74"/><path class="hj" d="M216.76,219.75c7.76-1.74,11.84-3.03,11.84-3.03-18.2-50.79,.86-136.58,.86-136.58-3.44-.8-6.83-1.55-10.16-2.27-8.35,22.77-23.62,78.69-2.55,141.87"/><path class="hf" d="M456.51,62.05h0c19.44,58.54,43.03,54.29,43.12,54.28-.09,.02-23.68,4.27-43.12-54.28"/><path class="hl" d="M452,85.6c0-6.9,1.37-14.71,4.51-23.55,19.44,58.55,43.03,54.29,43.12,54.28v18.23c-18.32-4.63-47.64-17.03-47.64-48.96"/><path class="hf" d="M65.47,39.98c1.62,.83,3.33,1.93,3.33,2.85,0,.04,0,.08-.01,.12,0-.04,.01-.08,.01-.12,0-.92-1.71-2.02-3.33-2.86m306.53-11.55c40.32-6.31,61.95,4.7,72.76,14.38h0c-10.81-9.68-32.44-20.69-72.75-14.38"/><path class="hl" d="M36.98,42.49c0-.4,.35-.82,.35-.82,10.73-10.13,30.11-11.99,42.96-11.99,7.54,0,12.83,.65,12.83,.65,51.2-7.72,86.21-9.78,109.01-9.78,26.03,0,36.1,2.68,36.1,2.68,5.69,.63,11.64,.83,17.04,.84,10.77,0,19.37-.83,19.37-.83,12.92-3.83,25.91-5.22,38.01-5.22,33.02,0,59.36,10.42,59.36,10.42,40.31-6.31,61.94,4.7,72.75,14.38-22.2-2.42-64.52-5.3-73.5,6.43,0,0-69.23-25.51-104.58-14.16,0,0-25.87,2.83-37.21,.94,0,0-127.31-3.51-146.48,4.68l-14.2,2.26s.01-.08,.01-.12c0-.92-1.71-2.02-3.33-2.85-1.45-.75-2.83-1.28-2.84-1.28-7.44,.76-13.97,2.02-13.97,2.02-5.63,1.92-8.62,2.51-10.16,2.51-1.22,0-1.53-.37-1.53-.75"/><path class="hl" d="M45.49,238.97s8.99,1.02,15.17,1.02c1.33,0,2.52-.05,3.47-.16,0,0,21.38,5.25,25.46,11.55,0,0,26.7-1.3,44.19-3.67,0,0,46.74-10.17,81.09-10.17,10.69,0,20.17,.98,26.68,3.56,0,0,9.33,2.21,19.85,2.21,4.08,0,8.33-.33,12.3-1.26,0,0,32.87-12.64,65.68-12.65,3.47,0,6.94,.14,10.38,.45-.91-.16-1.86-.38-2.84-.61,17.06,.42,45.54,.9,56.51-.4,0,0-34.34,16.05-55.94,16.99,0,0-70.5-1.88-77.71,10.4,0,0-35.57-4.72-40.29-8.5,0,0-54.77-.93-75.13,8.5,0,0-46.58,6.09-86.38-.85,.13-.11,.24-.21,.35-.32,.28-.29,.46-.58,.49-.85,0-.03,0-.07,0-.11,0-.05,0-.09-.01-.14-.32-1.7-4.58-4.2-4.98-5.94,0,0-8.25-4.33-13.59-4.33,0,0-4.43-1.58-4.73-4.73"/><path class="ie" d="M36.87,179.97c0-.26,0-.51,.01-.77,.07-3.11,.22-6.17,.47-9.11,.31-3.68,.78-7.16,1.45-10.3,.88-4.13,2.11-7.65,3.78-10.2l17.72-1.42,72.85,.64-96.28,31.16"/><g class="jj"><g class="iz"><g class="ji"><g class="iy"><g><path class="hy" d="M478.72,212.07l24.09,13.99,13.24,53.59-29.11,7.19-42.33-41.33,34.11-33.44"/><path class="ht" d="M478.72,212.07l3.51,2.04c-1.36,3.09-3.8,5.5-6.01,8.05-2.55,2.95-4.76,6.12-6.15,9.85-2.6,6.97-.86,13.93,2.37,20.42,3.4,6.85,7.63,13.61,13.71,18.24,7.92,6.04,19.38,8.63,29.26,6.43l.63,2.57-29.11,7.19-42.33-41.33,34.11-33.44"/></g></g></g></g></g><g class="iv"><g class="iu"><g class="ix"><g class="ip"><path class="hx" d="M343,167.41l-3.32,4.02,.86,3.47,4.81,2.02,67.05-16.57-2.35-9.51-67.05,16.57"/></g></g></g></g><g class="iq"><g class="iw"><g class="io"><g class="it"><path class="hn" d="M342.87,168.09c-.93,3.07-.2,6.01,2.05,8.29l33.15-8.19-2.05-8.29-33.15,8.19"/></g></g></g></g><g class="ir"><g class="in"><g class="is"><g class="ja"><path class="hx" d="M335.11,172.56l.86,3.47,4.57-1.13-.86-3.47-4.57,1.13"/></g></g></g></g><g class="jd"><g class="jc"><g class="jb"><g class="jg"><path class="ib" d="M335.78,171.99l-7.74,3.59,.27,1.08,8.52-.43-1.05-4.24"/></g></g></g></g><g class="jh"><g class="jf"><g class="je"><g class="ni"><path class="ib" d="M336.95,176.72c-.42,.1-.85-.17-.96-.61l-.89-3.62c-.11-.44,.15-.88,.56-.98,.42-.1,.85,.17,.96,.61l.89,3.62c.11,.44-.15,.88-.57,.98"/></g></g></g></g><g class="nf"><g class="nn"><g class="no"><g class="na"><path class="hx" d="M412.61,160.88c-.66,.16-1.35-.27-1.52-.96l-2-8.09c-.17-.69,.23-1.39,.9-1.56,.66-.16,1.35,.27,1.52,.96l2,8.09c.17,.69-.23,1.39-.9,1.56"/></g></g></g></g><g class="nh"><g class="ng"><g class="nj"><g class="nd"><path class="ih" d="M433.84,153.3l-20.57,5.08-1.54-6.21,20.57-5.08,1.54,6.21"/></g></g></g></g><g class="mz"><g class="mn"><g class="mq"><g class="np"><path class="ii" d="M433,149.87l-20.57,5.09,.16,.64,20.57-5.08-.16-.64"/></g></g></g></g><g class="nc"><g class="nb"><g class="ne"><g class="mv"><path class="hx" d="M433.97,154.31c-.52,.13-1.06-.21-1.2-.76l-1.53-6.18c-.14-.55,.18-1.1,.71-1.23,.52-.13,1.06,.21,1.2,.76l1.53,6.18c.14,.55-.18,1.1-.71,1.23"/></g></g></g></g><g class="ms"><g class="mx"><g class="my"><g class="mp"><path class="hw" d="M295.24,184.6l33.02-8.16-.16-.64-28.57,7.06-4.29,1.74"/></g></g></g></g><g class="mu"><g class="mt"><g class="mw"><g class="mr"><path class="hu" d="M295.24,184.6l33.02-8.16-.08-.32-29.58,7.36-3.36,1.12"/></g></g></g></g><g class="mo"><g class="qm"><g class="qk"><g class="qj"><path class="if" d="M335.03,172.07s.27,.23,.52,.61c.06,.09,.13,.2,.19,.31,.06,.11,.13,.23,.17,.35,.05,.13,.12,.25,.15,.39,.04,.14,.08,.27,.12,.41,.03,.14,.05,.28,.08,.42,.03,.14,.03,.28,.05,.41,.02,.13,.01,.27,.01,.4,0,.13-.01,.25-.02,.36-.04,.45-.17,.78-.17,.78l-.07,.02s-.29-1.1-.58-2.21c-.26-1.11-.51-2.23-.51-2.23l.07-.02"/></g></g></g></g><g class="qh"><g class="qe"><g class="qc"><g class="ql"><path class="hp" d="M380.31,167.6l-2.29,.56-2.04-8.26,2.29-.56,2.04,8.26"/></g></g></g></g><g class="oy"><g class="qi"><g class="qf"><g class="qd"><path class="ig" d="M377.25,164.26l-34.48,8.52s-.21-.89-.28-1.75c-.07-.86,.09-1.61,.09-1.61l33.88-8.37,.79,3.21"/></g></g></g></g><g class="pz"><g class="oz"><g class="ow"><g class="qg"><path class="hm" d="M410.15,156.13l-32.46,8.02-.79-3.21,32.46-8.02,.79,3.21"/></g></g></g></g><g class="pr"><g class="qa"><g class="px"><g class="pw"><path class="ij" d="M378.56,160.53l-2.29,.56,.79,3.21,2.29-.57-.79-3.21"/></g></g></g></g><g class="pt"><g class="ps"><g class="pq"><g class="py"><path class="hr" d="M408.93,151.18s.26,.56,.56,1.42c.15,.43,.32,.93,.48,1.48,.08,.27,.17,.55,.24,.84,.08,.29,.15,.58,.23,.87,.07,.29,.14,.59,.2,.88,.07,.29,.12,.58,.18,.86,.11,.56,.2,1.08,.26,1.53,.13,.9,.16,1.52,.16,1.52,0,0-.26-.56-.57-1.42-.15-.43-.32-.93-.48-1.48-.08-.27-.17-.55-.24-.84-.07-.29-.15-.58-.23-.87-.07-.3-.14-.59-.2-.88-.07-.29-.12-.58-.18-.85-.11-.56-.2-1.08-.26-1.53-.13-.9-.16-1.52-.16-1.52"/></g></g></g></g><g class="qb"><g class="pu"><g class="pv"><g class="pi"><path class="hz" d="M345.07,166.89l1.01,4.08c.02,.1,.2,.14,.4,.09,.2-.05,.34-.17,.31-.27l-1.01-4.08-.71,.18"/></g></g></g></g><g class="ph"><g class="pn"><g class="nk"><g class="pp"><path class="hz" d="M350.87,165.46l.66,2.67c.02,.1,.2,.14,.4,.09,.2-.05,.34-.17,.31-.27l-.66-2.67-.71,.18"/></g></g></g></g><g class="po"><g class="pk"><g class="pj"><g class="nm"><path class="hz" d="M356.09,164.17l1.01,4.08c.02,.1,.2,.14,.4,.09,.2-.05,.34-.17,.31-.27l-1.01-4.08-.71,.18"/></g></g></g></g><g class="nl"><g class="pg"><g class="oq"><g class="pm"><path class="hz" d="M361.9,162.73l.66,2.67c.02,.1,.2,.14,.4,.09,.2-.05,.34-.17,.31-.27l-.66-2.67-.71,.18"/></g></g></g></g><g class="pl"><g class="pb"><g class="pa"><g class="os"><path class="hz" d="M367.83,161.27l1.01,4.08c.02,.1,.2,.14,.4,.09,.2-.05,.34-.17,.31-.27l-1.01-4.08-.71,.18"/></g></g></g></g><g class="or"><g class="ox"><g class="pe"><g class="pd"><path class="hz" d="M373.63,159.83l.66,2.67c.02,.1,.2,.14,.4,.09,.2-.05,.34-.17,.31-.27l-.66-2.67-.71,.18"/></g></g></g></g><g class="pc"><g class="ou"><g class="ov"><g class="pf"><path class="hz" d="M378.85,158.54l1.01,4.08c.02,.1,.2,.14,.4,.09,.2-.05,.34-.17,.31-.27l-1.01-4.08-.71,.18"/></g></g></g></g><g class="ot"><g class="oo"><g class="oh"><g class="on"><path class="hz" d="M384.66,157.11l.66,2.67c.02,.1,.2,.14,.4,.09,.2-.05,.34-.17,.31-.27l-.66-2.67-.71,.18"/></g></g></g></g><g class="om"><g class="nr"><g class="op"><g class="nq"><path class="hz" d="M390.23,155.73l1.01,4.08c.02,.1,.2,.14,.4,.09,.2-.05,.34-.17,.31-.27l-1.01-4.08-.71,.18"/></g></g></g></g><g class="oj"><g class="ok"><g class="ns"><g class="oi"><path class="hz" d="M396.04,154.29l.66,2.67c.02,.1,.2,.14,.4,.09,.2-.05,.34-.17,.31-.27l-.66-2.67-.71,.18"/></g></g></g></g><g class="og"><g class="nv"><g class="ol"><g class="nt"><path class="hz" d="M401.26,153l1.01,4.08c.02,.1,.2,.14,.4,.09,.2-.05,.33-.17,.31-.27l-1.01-4.08-.71,.18"/></g></g></g></g><g class="oa"><g class="ob"><g class="nw"><g class="nz"><path class="hi" d="M299.52,182.86l28.57-7.06s-12.63,3.32-28.57,7.06"/></g></g></g></g><g class="ny"><g class="oe"><g class="oc"><g class="od"><path class="hs" d="M337.49,175.66l-.86-3.47,.61-.15,3.3,2.87-3.05,.75"/></g></g></g></g><g class="nx"><g class="nu"><g class="of"><g class="jq"><path class="ik" d="M450.37,251.39l31.06-38.15c.34-.41,.28-1.04-.13-1.4-.4-.36-1.01-.31-1.34,.1l-31.06,38.14c-.34,.41-.28,1.04,.12,1.4,.4,.36,1.01,.31,1.34-.1"/></g></g></g></g><g class="ml"><g class="jr"><g class="mm"><g class="mk"><path class="il" d="M481.66,212.59s-17.61-8.15-22.4-25.82c-3.05-11.26-5.39-21.01-6.68-26.59-.75-3.25-2.28-6.26-4.43-8.77-2.91-3.4-6.81-8.17-7.54-10.12-1.2-3.18-10.67,3.37-7.88,13,2.79,9.63,3.67,11.54,1.4,12.33-2.27,.78-42.65-17.95-42.65-17.95,0,0-7.69-4.53-11.17-1.95-3.47,2.57-3.73,8.21-3.73,8.21,0,0,1.27,6.81,10.81,8.82,0,0-10.49-2.54-12.76,4.91-2.27,7.45,2.74,11.09,2.74,11.09,0,0-4.97,3.15-5.07,9.42-.09,6.27,7.99,9.05,7.99,9.05,0,0-4.5,5.33-3.77,9,.68,3.41,21.16,23.23,45.05,29.67,5.28,1.43,10.46,3.29,15.38,5.78,5.21,2.63,10.91,5.94,12.81,8.61l31.88-38.69"/></g></g></g></g><g class="kc"><g class="kf"><g class="ke"><g class="mg"><path class="ia" d="M380.31,198.21s-8.08-2.79-7.99-9.05c.09-6.27,5.07-9.42,5.07-9.42,0,0-5.01-3.64-2.74-11.09,1.32-4.34,5.43-5.29,8.63-5.33-1.78,1.16-3.04,3.11-3.5,5.87-.8,4.88,.75,9.46,2.51,13.94,.83,2.11,.91,2.57,.6,4.73-.39,2.71-.86,5.59-.73,8.35,.27,5.75,1.72,12.2,4.9,17.05,3.44,5.26,8.73,8.67,14.11,11.46,6,3.11,12.37,5.37,18.93,6.66,12.73,2.51,26.52,2.53,38.44-2.82,8.51-3.82,15.57-10.16,22.81-16.12,.2,.1,.32,.16,.32,.16l-31.88,38.69c-1.9-2.67-7.6-5.98-12.81-8.61-4.92-2.49-10.1-4.35-15.38-5.78-23.89-6.44-44.36-26.26-45.05-29.67-.73-3.67,3.77-9,3.77-9"/></g></g></g></g><g class="mj"><g class="mi"><g class="mh"><g class="mf"><path class="id" d="M387.41,163.74s.25,.25,.7,.64c.45,.4,1.11,.93,1.92,1.51,.81,.58,1.78,1.21,2.84,1.83,.53,.31,1.08,.62,1.65,.91,.57,.3,1.15,.58,1.74,.87,.59,.27,1.18,.54,1.77,.79,.59,.25,1.18,.48,1.75,.69,1.14,.42,2.23,.76,3.19,1.01,.95,.25,1.77,.41,2.35,.5,.58,.09,.92,.12,.92,.12,0,0-.25-.26-.7-.64-.45-.4-1.11-.93-1.92-1.51-.81-.58-1.78-1.21-2.84-1.83-.53-.31-1.08-.62-1.65-.91-.57-.3-1.15-.58-1.74-.87-.59-.27-1.18-.54-1.77-.79-.59-.25-1.18-.48-1.75-.69-1.14-.42-2.24-.76-3.19-1.01-.95-.25-1.77-.41-2.34-.5-.58-.1-.92-.12-.92-.12"/></g></g></g></g><g class="mc"><g class="mb"><g class="ma"><g class="md"><path class="id" d="M377.39,179.74s.3,.26,.85,.67c.55,.41,1.34,.97,2.32,1.58,.98,.61,2.13,1.27,3.39,1.92,.63,.33,1.29,.65,1.96,.96,.67,.32,1.36,.62,2.05,.92,.7,.29,1.39,.58,2.08,.84,.69,.27,1.38,.51,2.04,.74,1.34,.45,2.6,.82,3.7,1.09s2.04,.45,2.7,.55c.66,.11,1.05,.14,1.05,.14,0,0-.3-.26-.85-.67-.55-.41-1.34-.97-2.32-1.58-.97-.61-2.13-1.27-3.39-1.92-.63-.32-1.28-.65-1.96-.96-.67-.32-1.36-.62-2.05-.92-.69-.29-1.39-.58-2.08-.84-.69-.27-1.38-.51-2.04-.74-1.34-.45-2.6-.82-3.7-1.09-1.1-.27-2.04-.45-2.7-.56-.66-.11-1.05-.14-1.05-.14"/></g></g></g></g><g class="kg"><g class="me"><g class="kh"><g class="kd"><path class="id" d="M380.31,198.21s.23,.24,.65,.61c.42,.37,1.03,.87,1.79,1.41,.76,.54,1.66,1.12,2.65,1.69,.49,.28,1.01,.56,1.54,.83,.53,.27,1.08,.53,1.62,.78,.55,.24,1.1,.49,1.66,.7,.55,.22,1.1,.42,1.63,.61,1.07,.37,2.09,.66,2.98,.86,.89,.21,1.65,.33,2.2,.4,.54,.07,.86,.08,.86,.08,0,0-.23-.24-.65-.61-.42-.37-1.03-.87-1.79-1.41-.76-.54-1.66-1.12-2.65-1.68-.5-.28-1.01-.57-1.54-.83-.53-.27-1.08-.53-1.62-.78-.55-.24-1.1-.48-1.66-.7-.55-.22-1.1-.42-1.63-.61-1.07-.37-2.09-.66-2.98-.87-.89-.21-1.65-.33-2.2-.4-.54-.07-.86-.08-.86-.08"/></g></g></g></g><g class="ki"><g class="kk"><g class="kj"><g class="kb"><path class="im" d="M478.47,210.82c-1.77-1.03-3.43-2.26-5.03-3.56-1.6-1.29-3.09-2.73-4.52-4.22l-1.03-1.16-.51-.58-.48-.61-.96-1.22c-.31-.41-.59-.85-.89-1.27-.28-.43-.6-.84-.86-1.29l-.78-1.34c-.55-.87-.96-1.83-1.43-2.74-.25-.46-.43-.94-.62-1.42l-.57-1.44c-.21-.47-.32-.98-.48-1.47l-.44-1.48c-.53-2-.99-4.07-1.49-6.1l-2.94-12.23-1.5-6.11-.38-1.53-.19-.76-.05-.19-.02-.1-.04-.14-.13-.39c-.34-1.02-.72-2.02-1.14-3.01-.86-1.96-1.85-3.89-3.25-5.62-1.34-1.6-2.69-3.17-3.99-4.78-.65-.8-1.28-1.61-1.86-2.44-.58-.82-1.15-1.69-1.46-2.49l-.1-.25-.09-.18c-.08-.13-.18-.27-.28-.38-.1-.1-.18-.16-.28-.24-.38-.26-.77-.35-1.12-.38-.69-.05-1.28,.1-1.83,.31-1.09,.42-1.99,1.12-2.76,1.93-1.53,1.64-2.43,3.76-2.87,5.9-.44,2.16-.44,4.37-.2,6.52v.06s.02,.06,.02,.06l2.72,10.36-.02-.11s0,.12-.01,.18c-.01,.07-.03,.14-.05,.2-.05,.11-.1,.21-.21,.27-.18,.16-.59,.23-1.02,.19-.89-.04-1.85-.39-2.82-.78-1-.39-1.96-.8-2.94-1.21l-2.94-1.25-11.76-5.02-11.75-5.05-5.88-2.52-5.89-2.5h.03c-.53-.27-1.06-.49-1.61-.68-.27-.1-.55-.18-.83-.26-.28-.09-.56-.14-.84-.2-.28-.07-.57-.1-.86-.13-.28-.04-.57-.06-.86-.06-.29-.01-.58-.01-.86,.03-.29,.03-.58,.03-.85,.12-.28,.07-.56,.12-.83,.22l-.8,.33c-.26,.13-.49,.3-.73,.45-.25,.14-.46,.34-.67,.54-.2,.2-.45,.36-.61,.6l-.53,.68c-.19,.21-.3,.49-.45,.73l-.42,.75,.46-.73c.16-.24,.28-.5,.48-.71l.55-.65c.17-.23,.42-.37,.63-.56,.22-.18,.42-.37,.68-.49,.24-.13,.48-.29,.73-.4l.78-.29c.26-.09,.54-.12,.81-.18,.27-.07,.55-.06,.82-.09,.27-.03,.55-.02,.83,0,.28,.01,.55,.03,.82,.08,.28,.04,.55,.08,.82,.16,.27,.07,.54,.13,.81,.22,.27,.08,.53,.17,.79,.28,.52,.2,1.04,.44,1.51,.72h.01s.02,.01,.02,.01l5.8,2.71c1.93,.91,3.88,1.79,5.82,2.68l11.65,5.31c3.89,1.76,7.77,3.54,11.68,5.25l2.94,1.28c.98,.42,1.97,.86,2.96,1.26,1,.4,2.06,.83,3.29,.92,.6,.04,1.31,.02,1.99-.46,.34-.23,.6-.59,.76-.97,.08-.19,.13-.39,.16-.58,.03-.21,.04-.36,.02-.64v-.04s-.02-.07-.02-.07l-2.67-10.37,.02,.12c-.21-2.01-.21-4.04,.2-5.96,.39-1.91,1.21-3.72,2.46-5.07,.63-.67,1.37-1.23,2.16-1.54,.39-.15,.8-.24,1.12-.21,.16,0,.27,.06,.32,.09h.02s-.03-.07-.03-.07l.08,.17v.02s-.06-.17-.02-.07l.02,.06,.04,.11c.45,1.15,1.07,2.02,1.69,2.91,.62,.87,1.28,1.7,1.94,2.52,1.32,1.63,2.69,3.2,4.02,4.79,1.24,1.49,2.22,3.31,3.05,5.17,.42,.93,.79,1.89,1.12,2.86l.12,.36v.05s.02,.02,.02,.02c0,.02-.02-.06,0-.02l.07,.29,.19,.76,.39,1.52,1.57,6.09,3.19,12.17c.54,2.03,1.04,4.05,1.62,6.09l.49,1.52c.17,.5,.3,1.02,.53,1.51l.62,1.47c.2,.49,.4,.98,.67,1.44,.51,.93,.94,1.91,1.54,2.78l.85,1.34c.28,.45,.62,.85,.92,1.28,.32,.42,.61,.85,.95,1.26l1.52,1.8,.54,.57,1.08,1.14c1.49,1.45,3.04,2.84,4.7,4.09,1.66,1.23,3.38,2.38,5.19,3.32"/></g></g></g></g><g class="ka"><g class="lz"><g class="kr"><g class="kq"><path class="hh" d="M357.13,63.84c-.45,1.98-1.08,3.93-1.82,5.82-.38,.99-.8,1.96-1.24,2.92,1.55,17.65,4.95,35.58,15.46,50.13,5.54,7.67,13.05,14.16,21.91,17.66,8.66,3.42,18.48,3.96,27.46,1.53,2.32-.63,4.58-1.4,6.77-2.4,1.23-.56,1.86-2.01,1.32-3.28-.52-1.22-2.04-1.88-3.28-1.32-8.15,3.7-17.44,4.54-26.23,2.22-8.58-2.26-16.15-7.77-21.81-14.63-13.27-16.1-15.93-38.11-17.23-58.39-.02-.26-.03-.52-.05-.77-.07,.03-.15,.06-.22,.09-.34,.14-.69,.28-1.04,.41"/></g></g></g></g><g class="jl"><g class="jp"><g class="jn"><g class="jo"><path class="hh" d="M306.98,10.2c.11-.83,.21-1.66,.33-2.49,.58-4.37,1.17-8.58,2.63-12.55,1.48-4.03,3.44-7.38,6.33-10.6,.35-.39,1.2-1.19,1.86-1.74,.34-.28,.68-.55,1.03-.81,.21-.15,.42-.3,.63-.45,.05-.04,.52-.33,.6-.39,.77-.45,1.58-.84,2.42-1.16,.35-.13,.71-.25,1.07-.36,.11-.02,.44-.11,.45-.12,.33-.07,.66-.14,.99-.19,.42-.06,.84-.11,1.27-.14,.68-.05,.61-.04,1.17,0,.44,.03,.88,.07,1.31,.13,.25,.04,.49,.08,.74,.13,.07,.01,.61,.15,.67,.15,.82,.24,1.63,.54,2.4,.91,.18,.09,.36,.18,.54,.27,.05,.02,.08,.04,.1,.05,.03,.02,.05,.03,.09,.05,.48,.29,.96,.6,1.42,.93,2.8,2.03,5.28,5.33,6.87,8.26,2.08,3.81,3.5,7.93,4.72,12.08,.03,.11,.06,.22,.09,.33,1.76-.77,3.48-1.43,4.69-1.66-2.24-7.81-5.31-15.64-11.33-21.3-2.92-2.75-6.61-4.69-10.61-5.2-4.39-.57-8.64,.67-12.33,3.03-7.48,4.78-11.79,13.71-13.53,22.14-.68,3.28-1.11,6.61-1.53,9.93,1.55-.24,3.19-.03,4.94,.75"/></g></g></g></g><g class="jk"><g class="jm"><g class="lh"><g class="lf"><path class="hk" d="M388.39,50.13c.07,.29,.13,.6,.19,.92,2.48-.81,4.96-1.61,7.44-2.42-.84-2.02-1.7-4.02-2.6-6.01-3.92-8.66-8.56-16.98-13.77-24.93-3.79-5.77-7.89-11.18-12.21-16.64-.36-.45-.71-.85-1.03-1.21-1.56,.43-3.12,.86-4.67,1.29,3.3,3.47,5.92,7.61,8.46,11.62,7.45,11.76,15.02,23.81,18.19,37.37"/></g></g></g></g><g class="lp"><g class="lg"><g class="lr"><g class="lo"><path class="ho" d="M346.68,2.5c-2.96,1.29-6.01,2.89-6.91,3.28-5.08,2.19-10.03,4.66-14.83,7.41-3.62,2.07-7.31,4.18-10.78,6.58,.07,.24,.15,.48,.22,.72,.5-.27,1-.53,1.51-.79,8.73-4.34,19.81-1.71,27.21,4.64s11.55,15.77,13.66,25.28c.7,3.17,1.21,6.42,1.04,9.66-.08,1.53-.32,3.05-.66,4.55,.35-.14,.7-.27,1.04-.41,.07-.03,.15-.06,.22-.09,7.09-2.88,14.19-5.76,21.28-8.64,.69-.28,1.49-.55,2.14-.18,.39,.23,.62,.64,.91,.99,1.02,1.22,2.94,1.56,4.32,.76,1.82-1.05,1.87-3.3,1.54-5.21-.06-.32-.12-.63-.19-.92-3.18-13.56-10.74-25.61-18.19-37.37-2.54-4.01-5.17-8.15-8.46-11.62-1.18-1.24-2.44-2.39-3.82-3.42-1.67-1.25-2.8-2.83-4.86-.91-1.08,1.01-1.62,3.12-.22,4.1-.27-.19-.79-.19-1.46-.07-1.21,.23-2.93,.89-4.69,1.66"/></g></g></g></g><g class="ln"><g class="lq"><g class="lx"><g class="lv"><path class="ho" d="M277.58,80.35c1.5-8.94,2.4-17.98,3.78-26.94-2.74,3.63-5.42,7.19-8.09,10.54-1.89,2.36-3.8,4.82-5.53,7.37-3.87,5.71-6.79,11.92-6.33,18.66,.37,5.36,2.91,10.77,6.31,15.43,6.5-5.44,8.55-17.24,9.86-25.06"/></g></g></g></g><g class="kn"><g class="kt"><g class="kp"><g class="km"><path class="ho" d="M357.13,63.84c.34-1.5,.58-3.02,.66-4.55,.17-3.25-.34-6.49-1.04-9.66-2.11-9.52-6.26-18.93-13.66-25.28s-18.48-8.99-27.21-4.64c-.51,.25-1.01,.52-1.51,.79,2.24,7.72,2.46,18.38,2.06,27.97,2.98-4.44,5.85-9.26,6.42-14.57,.17-1.6,2.65-1.29,2.48,.31-.6,5.62-3.55,10.71-6.67,15.41,.11-.04,.23-.08,.35-.11,1.57-.33,2.98,1.01,3.87,2.35,2.81,4.26,3.54,9.6,3.21,14.7-.3,4.6-1.26,13.19-4.76,16.55-1.11,1.06-2.34,2.08-3.64,3.05,2.25-.68,4.49-1.41,6.7-2.23,6.21-2.32,12.34-5.49,16.91-10.4,4.46-4.8,6.65-10.82,7.55-17.22,.22-1.59,2.7-1.28,2.48,.31-.53,3.75-1.44,7.49-3.03,10.93-2.85,6.16-7.84,10.89-13.62,14.31-6.58,3.9-13.97,6.04-21.27,8.13-.31,.09-.63,.1-.92,0-.19,1.32-.37,2.65-.56,3.97-.81,5.55-4.54,15.12-1.09,20.21,.91,1.34,2.27,2.29,3.62,3.18,2.24,1.49,13.49,7.4,12.83,12.03,.07,.12,.14,.24,.2,.36,1.19-.43,2.31-1.04,3.27-1.88,2.47-2.16,3.59-6.02,1.96-8.86-.74-1.28-1.93-2.24-3.13-3.11-2.37-1.71-11.64-4.89-11.36-8.05,.29-3.27,5.17-5.37,7.6-6.59,4.49-2.25,8.71-4.87,12.56-8.12,6.64-5.6,12.07-12.65,15.67-20.56,.44-.96,.86-1.93,1.24-2.92,.74-1.89,1.37-3.84,1.82-5.82"/></g></g></g></g><g class="kl"><g class="ko"><g class="ks"><g class="lt"><path class="hv" d="M245.85,121.65c.57-.45,1.28-.28,1.76,.2,4.12,4.16,9.25,7.24,14.55,9.63,10.01,4.52,20.95,6.79,31.85,7.75,11.21,.99,22.69,0,32.76-5.38,1.42-.76,2.39,1.55,.98,2.3-5.77,3.08-12.15,4.87-18.64,5.56-5.84,.62-11.76,.42-17.6-.21-5.68-.61-11.32-1.58-16.85-3.02-10.54-2.76-21.24-7.22-29.01-15.07-.47-.48-.29-1.37,.2-1.75Zm28.35,52.19c12.14,2.64,24.99,2.12,36.83-1.71,2.8-.91,6.27-2.43,9.25-4.47,2.69-1.83,4.98-4.08,6.04-6.66,2.55-6.23,2.8-13.74,2.85-20.37,.02-3.31-.04-7.74-1.67-10.89-.06-.12-.13-.24-.2-.36-.14,.99-.81,1.92-2.23,2.74-7.17,4.11-15.87,4.3-24.13,4.01-9.42-.34-18.89-1.19-27.94-3.83-5.08-1.48-10.02-3.55-14.55-6.32-3.42-2.09-8.81-5.26-10.48-9.07-.28-.65-.5-1.35-.45-2.05,.02-.32,.09-.62,.2-.92-4.04,4.28-7.14,19.26-7.85,22.61-1.95,9.21-1.23,18.77,6.4,25.1,7.81,6.48,18.12,10.06,27.92,12.2"/></g></g></g></g><g class="ly"><g class="ls"><g class="lu"><g class="lk"><path class="hh" d="M247.99,116.91c1.67,3.81,7.06,6.99,10.48,9.07,4.53,2.76,9.46,4.83,14.55,6.32,9.05,2.64,18.52,3.49,27.94,3.83,8.26,.3,16.96,.1,24.13-4.01,1.43-.82,2.09-1.75,2.23-2.74,.66-4.64-10.6-10.54-12.83-12.03-1.35-.9-2.71-1.85-3.62-3.18-3.46-5.09,.27-14.66,1.09-20.21,.19-1.32,.38-2.65,.56-3.97-.16-.05-.3-.13-.43-.24-6.44,3.58-13.87,6.13-20.33,7.22-4.02,.68-8.94,.52-11.16-2.9-1.72-2.66-.96-6.33,.9-8.89,1.87-2.56,4.63-4.29,7.25-6.08,10.38-7.08,19.51-15.99,26.86-26.19-.77-.18-1.42-1.11-.83-1.97,.55-.81,1.12-1.64,1.68-2.48,.39-9.59,.18-20.25-2.06-27.97-.07-.24-.14-.49-.22-.72-1.33-4.2-3.29-7.46-6.16-9.06-.35-.19-.69-.36-1.02-.51-1.75-.77-3.39-.99-4.94-.75-10.6,1.63-16.62,24.3-18.29,31.39-.98,4.16-1.74,8.35-2.39,12.57-1.38,8.95-2.28,18-3.78,26.94-1.31,7.82-3.36,19.61-9.86,25.06,0,0,0,0,0,0-1.89,1.58-4.13,2.24-6.46,2.66-4.38,.78-9.09,.69-12.38,4.09-.49,.51-.91,1.11-1.15,1.77-.11,.29-.18,.6-.2,.92-.04,.71,.17,1.41,.45,2.05"/></g></g></g></g><g class="ll"><g class="lm"><g class="li"><g class="lj"><path class="ho" d="M312.43,87.69c1.76-.5,3.51-1.01,5.26-1.54,1.31-.97,2.54-1.98,3.64-3.05,3.5-3.36,4.46-11.95,4.76-16.55,.33-5.1-.4-10.44-3.21-14.7-.88-1.34-2.29-2.68-3.87-2.35-.12,.02-.24,.06-.35,.11-.63,.96-1.27,1.9-1.9,2.82-.32,.46-.76,.58-1.17,.49-7.34,10.2-16.47,19.11-26.86,26.19-2.62,1.78-5.38,3.52-7.25,6.08-1.87,2.56-2.63,6.23-.9,8.89,2.22,3.42,7.14,3.58,11.16,2.9,6.46-1.09,13.89-3.64,20.33-7.22-.12-.11-.22-.25-.3-.43-.23-.57,0-1.45,.66-1.64"/></g></g></g></g><g class="lw"><g class="le"><g class="ld"><g class="kw"><path class="hg" d="M334.68,81.85c5.78-3.43,10.77-8.15,13.62-14.31,1.59-3.45,2.5-7.19,3.03-10.93,.22-1.6-2.26-1.91-2.48-.31-.9,6.4-3.1,12.43-7.55,17.22-4.57,4.92-10.69,8.09-16.91,10.4-2.21,.82-4.45,1.54-6.7,2.23-1.75,.53-3.5,1.04-5.26,1.54-.65,.19-.89,1.07-.66,1.64,.07,.18,.18,.32,.3,.43,.13,.11,.27,.19,.43,.24,.28,.09,.61,.08,.92,0,7.3-2.09,14.69-4.23,21.27-8.13"/></g></g></g></g><g class="lc"><g class="lb"><g class="la"><g class="kz"><path class="hg" d="M316.76,52.43c.63-.92,1.27-1.87,1.9-2.82,3.12-4.7,6.08-9.79,6.67-15.41,.17-1.6-2.31-1.91-2.48-.31-.56,5.32-3.44,10.13-6.42,14.57-.56,.84-1.13,1.67-1.68,2.48-.59,.86,.06,1.8,.83,1.97,.41,.09,.86-.02,1.17-.49"/></g></g></g></g><g class="ky"><g class="kv"><g class="ku"><g class="jt"><path class="hh" d="M379.65,17.7c5.21,7.94,9.85,16.27,13.77,24.92,.9,1.99,1.76,3.99,2.6,6.01,2.88,6.96,5.36,14.08,7.42,21.32,11.33,.32,22.66,.43,33.98,.25,5.68-.09,11.36-.25,17.03-.5,4.14-.18,13.41,1.04,16.96-1,2.51-1.44,1.25-2.64,.09-5.43-1.08-2.6-2.2-5.18-3.37-7.74-2.24-4.89-4.65-9.7-7.22-14.41-5.15-9.44-10.96-18.51-17.38-27.14-6.09-8.2-12.72-15.99-19.84-23.31-6.43-6.6-11.88-14.55-21.65-9.78-9.33,4.56-19.16,7.93-28.84,11.62-2.06,.78-5.56,1.43-7.24,2.84-2.22,1.85-1.24,2.62,.45,4.49,.32,.36,.67,.75,1.03,1.21,4.33,5.46,8.43,10.87,12.22,16.64"/></g></g></g></g><g class="js"><g class="jw"><g class="jy"><g class="kx"><path class="hq" d="M274.66,138.48c5.53,1.44,11.17,2.41,16.85,3.02,5.83,.63,11.75,.83,17.6,.21,6.49-.69,12.87-2.47,18.64-5.56,1.41-.75,.44-3.06-.98-2.3-10.07,5.39-21.55,6.37-32.76,5.38-10.9-.96-21.84-3.23-31.85-7.75-5.3-2.39-10.43-5.48-14.55-9.63-.48-.48-1.18-.65-1.76-.2-.49,.38-.67,1.28-.2,1.75,7.77,7.85,18.48,12.32,29.01,15.07"/></g></g></g></g><g class="jx"><path class="hh" d="M403.44-49.24h97.26V71.78h-97.26V-49.24"/></g><g class="jz"><g class="ju"><g class="jv"><path class="ht" d="M492.19,275.38l15.96,15.96c.18,.18,.18,.49,0,.67l-7.71,7.71c-.19,.19-.49,.19-.67,0l-15.96-15.96c-.19-.18-.18-.49,0-.67l7.71-7.71c.19-.19,.49-.19,.67,0Z"/></g></g></g></g></svg>