<svg xmlns="http://www.w3.org/2000/svg" xmlns:xlink="http://www.w3.org/1999/xlink" width="612.58" height="610.81" viewBox="0 0 612.58 610.81"><defs><style>.a,.j,.x{fill:none;}.b{clip-path:url(#a);}.c{clip-path:url(#b);}.d{clip-path:url(#c);}.e{opacity:0;}.f{fill:#fff;}.g{fill:#dcdcdc;}.h{fill:#c6be92;}.i{fill:gray;}.j{stroke:#795a2c;stroke-linejoin:round;stroke-width:0.75px;}.k{fill:#795a2c;}.l{clip-path:url(#e);}.m{isolation:isolate;}.n{clip-path:url(#f);}.o{clip-path:url(#i);}.p{clip-path:url(#j);}.q{clip-path:url(#l);}.r{fill:#ad926a;}.s{clip-path:url(#m);}.t{opacity:0.2;}.u{clip-path:url(#n);}.v{clip-path:url(#o);}.w{clip-path:url(#p);}.x{stroke:#726d6d;stroke-linecap:square;stroke-miterlimit:8;stroke-width:8.75px;stroke-dasharray:0 26.5;}</style><clipPath id="a"><rect class="a" width="612.58" height="610.81"/></clipPath><clipPath id="b"><rect class="a" x="-216.12" y="-126.81" width="953.4" height="819.25"/></clipPath><clipPath id="c"><rect class="a" x="1.43" y="-0.8" width="611.33" height="611.33"/></clipPath><clipPath id="e"><rect class="a" x="213.94" y="250.32" width="105.99" height="45.7"/></clipPath><clipPath id="f"><rect class="a" x="223.11" y="345.07" width="105.99" height="45.7"/></clipPath><clipPath id="i"><rect class="a" x="257.69" y="440.33" width="102.69" height="40.42"/></clipPath><clipPath id="j"><rect class="a" x="525.51" y="495.87" width="20.94" height="80.35"/></clipPath><clipPath id="l"><rect class="a" x="138.98" y="189.71" width="78.11" height="45.7"/></clipPath><clipPath id="m"><rect class="a" x="183.11" y="110.45" width="14.22" height="74.99"/></clipPath><clipPath id="n"><rect class="a" x="184.55" y="111.89" width="11.35" height="72.11"/></clipPath><clipPath id="o"><rect class="a" x="149.07" y="110.45" width="48.26" height="14.22"/></clipPath><clipPath id="p"><rect class="a" x="150.51" y="111.89" width="45.38" height="11.35"/></clipPath></defs><g class="b"><g class="c"><g class="d"><g class="e"><g class="d"><rect class="f" x="1.43" y="-0.8" width="611.33" height="611.33"/></g></g></g><path class="g" d="M1.43,234,612.76,481.76V375.36L1.43,127.62Z"/><path class="g" d="M356.14-.8,249.21,231.58l26.23,12.07L387.92-.8Z"/><path class="g" d="M334.69,101.37l278.06,125.4v-53.5l-258-116.35Z"/><path class="g" d="M475.55,335.63l48,21.64,89.2-197.8V31.4Z"/><path class="g" d="M170.21-.8l188.44,85,4.65-10.3L197.7-.79Z"/><path class="g" d="M1.43,27.48l294.87,133,4.51-10L1.43,15.43Z"/><path class="g" d="M183.33-.8l-99,224.35L92.2,227,192.66-.63l-.38-.17Z"/><rect class="g" x="88.47" y="140.43" width="248.89" height="8.61" transform="translate(-5.49 281.05) rotate(-66.18)"/><path class="g" d="M1.43-.8V81.32L38.46-.8Z"/><path class="g" d="M98.67,610.53h55.67l106-286.66-49-18.11Z"/><path class="g" d="M1.43,338.58,217.2,435.89l4.51-10L1.43,326.54Z"/><path class="g" d="M1.43,498.1l156.74,70.69,4.52-10L1.43,486.06Z"/><path class="g" d="M571,610.53h41.75V517.94Z"/><path class="h" d="M340.28,382.21V610.53h187.3V475.87l-93.65-93.66Z"/><path class="f" d="M374.74,504.6V505a7.93,7.93,0,0,0,.46,2.93,2.18,2.18,0,0,0,3.51-.08A4.83,4.83,0,0,0,379,506V493.43h3.76V506a7.15,7.15,0,0,1-.8,3.63c-.89,1.52-2.51,2.27-4.84,2.27s-3.91-.61-4.7-1.84a9.06,9.06,0,0,1-1.2-5v-.41Zm15.47-8v4.83h4.26a4.94,4.94,0,0,0,1.9-.29,2,2,0,0,0,1.12-2,2.24,2.24,0,0,0-1.09-2.2,4.22,4.22,0,0,0-1.83-.32Zm5.15-3.13a8.22,8.22,0,0,1,2.91.47,4.48,4.48,0,0,1,1.73,1.25,5.37,5.37,0,0,1,.92,1.52,4.88,4.88,0,0,1,.35,1.89,5.43,5.43,0,0,1-.65,2.52,3.62,3.62,0,0,1-2.14,1.75,3.41,3.41,0,0,1,1.77,1.42,5.94,5.94,0,0,1,.52,2.82v1.21a8.56,8.56,0,0,0,.1,1.67,1.51,1.51,0,0,0,.68,1v.45h-4.14q-.17-.6-.24-1a9,9,0,0,1-.16-1.55l0-1.67a3.26,3.26,0,0,0-.62-2.3,3.39,3.39,0,0,0-2.27-.57h-3.88v7.05h-3.67v-18Z"/><path class="f" d="M415.93,495a25.36,25.36,0,0,1-1.12,3.28l1.72.37H411l1.45-.37a11.75,11.75,0,0,0-1-3.28Zm2.78,13.28c-.58-.48-2.88-2.35-3.78-3v-.42h4.43v-2h-4.43v-2.27h4.65v-2h-2.92c.42-.85.9-2.07,1.37-3.25l-1.75-.4h3V493.1h-4.38v-2.38h-2.25v2.38h-4.37V495h3.07l-1.7.43a12,12,0,0,1,.88,3.22H408v2h4.7v2.27h-4.62v2h4.17a17.23,17.23,0,0,1-4.77,5.25,10.35,10.35,0,0,1,1.5,1.67,18.63,18.63,0,0,0,3.72-4.2v5.85h2.25v-5.92a33.79,33.79,0,0,1,2.43,2.47Zm12-9.45h-8.1V494.8a38.35,38.35,0,0,0,7.85-2.28l-1.88-1.67a32.89,32.89,0,0,1-6.65,2.15l-1.55-.45v8.65c0,3.45-.3,7.72-3.32,10.8a5.71,5.71,0,0,1,1.65,1.6c3.45-3.48,3.9-8.68,3.9-12.38V501h3.22v12.37h2.25V501h2.63Zm8.87-.85h2.58v-2.15h-2.58v-5.28h-2.12v5.28h-3.13V498h2.95a28.14,28.14,0,0,1-3.5,8.92,10.2,10.2,0,0,1,1.1,2,23.7,23.7,0,0,0,2.58-5.93V513.5h2.12V502.32c.63,1.18,1.3,2.53,1.6,3.3l1.23-1.67c-.4-.65-2.13-3.33-2.83-4.3Zm11.33,9.9v1.87H448V507.9Zm1.72,3.27V506.5h-6.32v5.72H448v-1.05Zm3.68-7.65H442.68v10h2.13v-8.2h9.32v5.9c0,.28-.07.35-.4.38s-1.32,0-2.35,0a7.62,7.62,0,0,1,.7,1.9,9.65,9.65,0,0,0,3.3-.3c.73-.35.93-.92.93-1.92Zm-4.85-2.45h-4.08v-1.8h4.08Zm-.7-4.6a9.32,9.32,0,0,0,.9,1.35h-4.35a13.51,13.51,0,0,0,.87-1.35Zm5.9,0v-1.82h-7.58c.2-.5.35-1,.5-1.48a43.67,43.67,0,0,0,5.7-.8l-1.35-1.52a73.41,73.41,0,0,1-11.07,1,6.68,6.68,0,0,1,.5,1.57c1.27,0,2.62-.07,4-.15a8.86,8.86,0,0,1-.5,1.33h-4.42v1.82h3.35a12.14,12.14,0,0,1-4.2,3.6,5,5,0,0,1,1.42,1.55,13.76,13.76,0,0,0,2.45-1.77v2.67h8.08v-2.65a10.92,10.92,0,0,0,2.37,1.73,7.08,7.08,0,0,1,1.4-1.68,11.6,11.6,0,0,1-4.37-3.45Zm4.57,15.75c1-1.42,1.25-3.8,1.38-6.1l-1.33-.25c-.1,2.18-.42,4.38-1.3,5.65Zm1.83-5.82a26.86,26.86,0,0,1,.3,4.57l1.17-.17a26.44,26.44,0,0,0-.35-4.53Zm.32-5.55h2.05v1.92h-2.05Zm2.05-7.4v1.85h-2.05v-1.85Zm0,5.57h-2.05v-1.9h2.05Zm1.93,3.75v-1.92h2.9V499h-2.9v-1.9h2.9V495.3h-2.9v-1.85h3.35v-1.93h-9.3v13.1H469c0,1.35-.13,2.45-.2,3.35a14.47,14.47,0,0,0-1.18-2.52l-1,.35a13.42,13.42,0,0,1,1.3,3.22l.83-.32a6.52,6.52,0,0,1-.6,2.75.82.82,0,0,1-.7.27,13.39,13.39,0,0,1-1.8-.1,5.19,5.19,0,0,1,.5,1.85,13.25,13.25,0,0,0,2.27,0,1.89,1.89,0,0,0,1.4-.73c.63-.77.9-3,1.2-9.07,0-.28,0-.88,0-.88Zm-.48,7.18a18.8,18.8,0,0,0-.95-4l-1.07.22a19.19,19.19,0,0,1,.87,4Zm13.38-16.3v6.25h-5.55v-6.25Zm2.1,8.4V491.52h-9.83V501c0,3.6-.17,8.23-2.4,11.4a8.58,8.58,0,0,1,1.88,1.2c2.15-3.07,2.62-7.77,2.7-11.52h1.77c.83,5.2,2.3,9.3,5.48,11.55a6.66,6.66,0,0,1,1.5-1.88c-2.73-1.77-4.18-5.37-4.9-9.67Z"/><rect class="i" x="265.45" y="168.82" width="12.1" height="239.48" transform="translate(-99.54 427.53) rotate(-67.28)"/><path class="h" d="M313.8,339.43l299,125.45V401.42L336.45,285.47Z"/><path class="f" d="M461.29,364.45l5.74,2.48-1,2.22-5.74-2.47Zm7.45-1.49-.93,2.15-5.74-2.47.93-2.16ZM452,359.1a23.26,23.26,0,0,0,4.26-2.49,28.71,28.71,0,0,1,1.64,5Zm14.38,13.41a25.84,25.84,0,0,1-3.62,1.16,20.07,20.07,0,0,1,.38-3.54l4.15,1.8,4.31-10-9.82-4.23-7.55,17.48-.89-.19.56-1.64-3.66-.84L453,366.3l3.24,1.4.79-1.84-3.23-1.4.91-2.11,2.7,1.17.75-1.72,2-.95a29.61,29.61,0,0,0-2.33-6l-1.81-.78a17.22,17.22,0,0,1-6.82,3.86,7,7,0,0,1,.73,2l.93-.33-.38.89,2.41,1-.91,2.11-3.49-1.5-.79,1.83,3.48,1.51L448.27,372c-1.55-.37-2.95-.73-4.07-1l-.36,2.15c2.31.51,5.42,1.2,8.43,1.85l-.3,2.07c2.3.42,5.23.89,8,1.34l.65-2.06c-1.39-.25-2.81-.5-4.11-.76l3-7.05,1.72.74c-1.07,5.12-.87,9.59,1.71,12.88a7.69,7.69,0,0,1,2.14-1.17,9.58,9.58,0,0,1-2.22-5.4,39,39,0,0,0,4.4-1Zm-19.08-6.87a20.86,20.86,0,0,1-.92,4.48l1.7.22a20.38,20.38,0,0,0,.8-4.45Zm5.17,6.75c.83-.84,2-2.24,3-3.4l-1.43-1.16a41.74,41.74,0,0,1-2.75,3.6ZM478,368.65l17.1,7.38.85-2-8.49-3.66,1-2.27-2.23-1-1,2.27-8.46-3.65L474,372c-1.42,3.3-3.59,7.89-6.74,10.4a10.29,10.29,0,0,1,1.26,2c3.42-2.69,6-7.91,7.57-11.49Zm2.91,2.67c-1.58,2.64-3.51,4.42-6,4.95a13.72,13.72,0,0,1,1.05,1.92,9.65,9.65,0,0,0,3.53-1.88,31.57,31.57,0,0,1,1.11,3.23l1.83-.9a26.45,26.45,0,0,0-1.48-3.76,15.4,15.4,0,0,0,1.86-2.55Zm1.68,12.95,6.31,2.72.8-1.86-6.31-2.72.92-2.14a8.64,8.64,0,0,1,.74,1.57,9.92,9.92,0,0,0,3.46-1.71,37.61,37.61,0,0,1,1.72,4.09l1.94-.89a49.34,49.34,0,0,0-2.16-4.6,16.89,16.89,0,0,0,1.87-2.43l-1.84-1a9.67,9.67,0,0,1-5.54,4.58l2.69-6.25-2.08-.9-3.81,8.82-6-2.6-.8,1.86,6,2.6-1.25,2.89L471.73,383l-.8,1.86,17.24,7.43.8-1.86-7.67-3.3Zm12.92,2.47a18.8,18.8,0,0,1-3.6,4.81,14,14,0,0,1,1.24,1.43,22.63,22.63,0,0,0,4-5.18Zm6.58.79c0,.53-.1,1.06-.19,1.58l1.95-.05a20.39,20.39,0,0,0-.08-5.68h-1.79a18.48,18.48,0,0,1,.12,2.1l-2.77-1c2.31-1.26,5-3,7.18-4.47l-1.42-1.56a46.22,46.22,0,0,1-4,3,14,14,0,0,0-.47-1.68c1.37-.91,3.15-2.32,4.62-3.53l-1.58-1.5a30.8,30.8,0,0,1-3.66,3.38c-.12-.3-.24-.6-.36-.87l-1.7,1a23.38,23.38,0,0,1,1.34,4.41c-.67.42-1.36.81-2,1.14l-1.65-.6-.59,1.95c1,.39,2.21.79,3.48,1.26l-4.05,9.39,1.88.81,4.11-9.53Zm-1.9,1.69a17.08,17.08,0,0,1-.69,4.49l1.85.2a18.86,18.86,0,0,0,.57-4.49Zm7,1.51-.32-.09-3.51-1.51-.76,1.77,2.71,1.17a9.11,9.11,0,0,1-5.85,2.94,7.54,7.54,0,0,1,.7,2.05c2.82-.36,5.62-2.07,8-5.35Zm1-5.55,7,3-.71,1.66-7-3Zm1.4-3.23,7,3-.72,1.65-7-3Zm5,10.9a25.86,25.86,0,0,1-3.59,1.44,17.44,17.44,0,0,1,.17-3.68l.07-.16,4.52,1.95,3.56-8.24L514.22,382c.6-.44,1.25-1,1.88-1.47l-2.23-1.45a20.42,20.42,0,0,1-1.86,2l-3.67-1.58-3.55,8.24,4.5,1.94L505.68,398c-.11.26-.21.3-.48.18s-1.16-.48-2.07-.89a8.08,8.08,0,0,1-.24,2.07,8.4,8.4,0,0,0,3.12,1c.8,0,1.17-.5,1.59-1.46l1.62-3.77a11.94,11.94,0,0,0,2.42,6.95,9.28,9.28,0,0,1,2-1.16,10,10,0,0,1-2.43-4.72c1.38-.31,3-.79,4.52-1.27ZM530,390.91a22.61,22.61,0,0,1-2.33,2.56l1.44,1-5-2.18,1.48.23a11.8,11.8,0,0,0,.38-3.4ZM527.3,404.2c-.34-.67-1.7-3.3-2.28-4.23l.17-.39,4.06,1.75.78-1.81L526,397.77l.9-2.09,4.27,1.84.78-1.81-2.69-1.16c.73-.61,1.65-1.55,2.55-2.44l-1.44-1.06,2.77,1.2.76-1.77-4-1.73.94-2.18-2.07-.89-.94,2.18-4-1.73-.77,1.76,2.83,1.22-1.73-.28a11.51,11.51,0,0,1-.48,3.3l-2.36-1-.78,1.81,4.31,1.86-.9,2.09-4.24-1.83-.79,1.81,3.84,1.65a17,17,0,0,1-6.47,2.93,9.55,9.55,0,0,1,.72,2.13,18.42,18.42,0,0,0,5.08-2.38l-2.32,5.37,2.07.89,2.35-5.44c.5,1.17,1,2.49,1.24,3.24Zm14.76-3.93-7.43-3.2,1.6-3.72a38.23,38.23,0,0,0,8.11,1l-1.06-2.28a32.52,32.52,0,0,1-7-.66l-1.24-1-3.43,7.94c-1.36,3.17-3.33,7-7.33,8.6a5.67,5.67,0,0,1,.89,2.12c4.54-1.82,7-6.42,8.48-9.81l.09-.21,3,1.28-4.9,11.36,2.06.89,4.9-11.36,2.41,1Zm8.49,2.74,2.36,1,.85-2-2.36-1,2.09-4.85-2-.84-2.09,4.84L546.58,399l-.85,2,2.71,1.17a28.53,28.53,0,0,1-6.75,6.81,11,11,0,0,1,.21,2.29,23.79,23.79,0,0,0,4.71-4.42l-4.15,9.62,1.95.84L548.83,407c.11,1.33.2,2.83.17,3.66l1.78-1.05c-.11-.76-.63-3.89-.89-5.07ZM557,416.58l-.74,1.72-2.64-1.14.74-1.72Zm.29,3.69,1.85-4.29-5.81-2.5-2.26,5.25,1.58.68.42-1Zm6.4-5.57-12.51-5.39-4,9.18,2,.84,3.24-7.53,8.56,3.7-2.33,5.41c-.11.25-.21.29-.52.19s-1.22-.53-2.15-1a7.28,7.28,0,0,1-.11,2,9.8,9.8,0,0,0,3.15,1c.81,0,1.22-.49,1.61-1.4Zm-3.48-4.17-3.74-1.61.71-1.65,3.74,1.61Zm1.18-4.5a10.73,10.73,0,0,0,.29,1.6l-4-1.72a13.07,13.07,0,0,0,1.34-.9Zm5.42,2.34.72-1.67-7-3c.39-.38.71-.76,1-1.16a42.56,42.56,0,0,0,5.55,1.52l-.64-1.93A72.51,72.51,0,0,1,556,398.71a6.06,6.06,0,0,1-.17,1.64c1.18.48,2.44,1,3.71,1.44a9.35,9.35,0,0,1-1,1l-4.06-1.75-.73,1.68,3.08,1.32a12.06,12.06,0,0,1-5.28,1.65,5,5,0,0,1,.69,2,13.41,13.41,0,0,0,2.95-.66l-1.06,2.46,7.42,3.2,1.05-2.44a10.72,10.72,0,0,0,1.49,2.53,7,7,0,0,1,1.95-1,11.84,11.84,0,0,1-2.65-4.9Zm-2,16.27c1.48-.91,2.65-3,3.68-5.05l-1.12-.76c-1,2-2.12,3.85-3.43,4.67Zm4-4.62a26.77,26.77,0,0,1-1.54,4.32l1.15.3a27.15,27.15,0,0,0,1.47-4.29Zm2.5-5,1.88.81-.76,1.77-1.89-.81Zm4.81-6-.73,1.7-1.89-.81.74-1.7Zm-2.21,5.12-1.88-.82.75-1.74,1.88.81Zm.28,4.2.77-1.77,2.66,1.15.72-1.67L575.64,415l.75-1.75,2.66,1.15.73-1.67-2.67-1.15.74-1.7,3.07,1.33.76-1.77-8.53-3.68-5.19,12,6.93,3c-.58,1.22-1.09,2.2-1.51,3a14.34,14.34,0,0,0-.08-2.78l-1.06-.08a13.08,13.08,0,0,1-.08,3.48l.89,0a6.4,6.4,0,0,1-1.64,2.28.82.82,0,0,1-.76,0,14.26,14.26,0,0,1-1.61-.81,4.9,4.9,0,0,1-.27,1.9,12.93,12.93,0,0,0,2.1.88,1.92,1.92,0,0,0,1.57-.11c.88-.47,2-2.42,4.69-7.86.14-.24.4-.78.4-.78Zm-3.27,6.4a19.21,19.21,0,0,0,.71-4.05l-1.08-.22a18.52,18.52,0,0,1-.79,4Zm18.73-9.67-2.48,5.74-5.09-2.2,2.47-5.73Zm-1.4,8.55,4.17-9.67-9-3.89-3.74,8.68c-1.43,3.3-3.42,7.48-6.72,9.51a8.55,8.55,0,0,1,1.24,1.85c3.2-2,5.49-6.1,7.05-9.51l1.63.7c-1.31,5.1-1.57,9.45.45,12.77a6.77,6.77,0,0,1,2.12-1.13c-1.8-2.71-1.71-6.58-.67-10.82Z"/><path class="i" d="M41.55,185.57l-.49,1.14-2.74-1.18a8.75,8.75,0,0,1-1.5-.75,11.66,11.66,0,0,1-.59,1.52l-.86,2a11.28,11.28,0,0,1-.59,1.27l-.09.17a8.65,8.65,0,0,1,1.63.61l2,.86a8.26,8.26,0,0,1-2.62.78,12.08,12.08,0,0,1-4,0,3.7,3.7,0,0,1,.15,1.05,14.28,14.28,0,0,0,4.7-.36,9.05,9.05,0,0,0,2.31-.86c-.2.37-.39.78-.5,1l-.6,1.39a10.44,10.44,0,0,1-.76,1.49l1,.44a8.66,8.66,0,0,1,.57-1.57l.6-1.41c.12-.26.3-.72.43-1.09a11.19,11.19,0,0,0,1.75,3.44,16.44,16.44,0,0,0,2.51,2.7,3.78,3.78,0,0,1,.9-.64,11.82,11.82,0,0,1-4.36-5.51l2.37,1a10,10,0,0,1,1.54.76,10.26,10.26,0,0,1,.57-1.48l.87-2a14.24,14.24,0,0,1,.68-1.42,11.46,11.46,0,0,1-1.6-.61l-3-1.3.5-1.15,4.14,1.79a14.21,14.21,0,0,1,1.66.82l.42-1a10.11,10.11,0,0,1-1.77-.64l-4.11-1.78,0-.11a9.4,9.4,0,0,1,.67-1.3l-1-.43a8.24,8.24,0,0,1-.48,1.37l0,.11L38,183.09a11.24,11.24,0,0,1-1.63-.81l-.41,1a11.06,11.06,0,0,1,1.66.62Zm-.8,1.86-.55,1.26-3.36-1.45.55-1.26Zm.82.35,3.67,1.59-.55,1.26L41,189.05ZM39.9,189.4l-.6,1.39-3.36-1.45.6-1.39Zm.82.35,3.67,1.58-.6,1.4-3.67-1.59ZM55.51,191l-3.92-1.69a9.35,9.35,0,0,1-1.48-.75l-.42,1a8.18,8.18,0,0,1,1.5.55L60.34,194a8.65,8.65,0,0,1,1.46.73l.43-1a9.45,9.45,0,0,1-1.57-.56l-4.26-1.84.22-.5a5.21,5.21,0,0,1,.59-1.12l-1.08-.47a6.54,6.54,0,0,1-.41,1.2Zm-2.27,5.77-1.6,3.71c-.12.27-.25.28-.86,0a9.81,9.81,0,0,1-1.42-.78,3.18,3.18,0,0,1-.16,1c.45.23,1,.51,1.32.64,1.16.5,1.63.4,2-.38l1.66-3.83,2.39,1c.53.22.89.4,1.24.58.12-.36.23-.64.43-1.12l.67-1.55a8.94,8.94,0,0,1,.55-1.12,11.8,11.8,0,0,1-1.29-.49l-6-2.59a11.11,11.11,0,0,1-1.2-.59,9.68,9.68,0,0,1-.44,1.17L49.83,194a7.37,7.37,0,0,1-.54,1.09,12.43,12.43,0,0,1,1.25.48Zm-1.74-4.21,6.64,2.86-.94,2.17-6.63-2.87Zm-1.2,3.68a7.3,7.3,0,0,1-2.13,1.27,8.71,8.71,0,0,1-2.36.6,3.11,3.11,0,0,1,.32,1A11.23,11.23,0,0,0,50.88,197Zm5,2.7a14.42,14.42,0,0,0,.78,2.73,10.48,10.48,0,0,0,1.11,2.19,3.32,3.32,0,0,1,1-.48,8.71,8.71,0,0,1-1.29-2.28,7.78,7.78,0,0,1-.6-2.32Zm17.61-1.53a6.35,6.35,0,0,1-1.11,1.26,20.66,20.66,0,0,1-3,2.51,44.3,44.3,0,0,0-2.55-4l-1,.44a28.66,28.66,0,0,1,2.63,4.08A16,16,0,0,1,60.37,204a2.51,2.51,0,0,1,.36,1.13,18,18,0,0,0,7.61-2.4A21.81,21.81,0,0,1,70.05,207l1.14-.53a37.66,37.66,0,0,0-1.89-4.32A25.73,25.73,0,0,0,73.06,199a4.2,4.2,0,0,1,.79-.66Zm4.7,15.23a11.65,11.65,0,0,1,.56-1.49L79.93,207a6,6,0,0,0,.3-.84h0a1.7,1.7,0,0,0,.33.42,31.42,31.42,0,0,1,4,4.94l1-.76a36.81,36.81,0,0,0-4.88-5.55l1.12-2.58a8.67,8.67,0,0,1,.69-1.4l-1.19-.51a9.54,9.54,0,0,1-.52,1.44l-3.7,8.55a9.25,9.25,0,0,1-.7,1.41Zm19.76,6.69-.42,1,1,.45c.1-.3.24-.67.42-1.08l3.22-7.45a7.78,7.78,0,0,1,.5-1,8.51,8.51,0,0,1-1.09-.43l-7.34-3.17a11.33,11.33,0,0,1-1.06-.5,7.65,7.65,0,0,1-.4,1.1L89,215.62a7.35,7.35,0,0,1-.51,1l1.07.46.42-1Zm.39-.9-7.38-3.19,2.91-6.75,7.39,3.18Zm8.77-2.33-.63,1.44-1.05-.45a9.69,9.69,0,0,1-1.25-.62l-.37.87a7.93,7.93,0,0,1,1.31.48l1,.45-1.81,4.2a14.66,14.66,0,0,1-2.7-.61l-.17,1,.38.06a46.66,46.66,0,0,0,5.26.66l.31-.79c-1-.07-1.41-.1-2.18-.2l1.72-4,.79.34a8.8,8.8,0,0,1,1.23.61l.37-.87a8.16,8.16,0,0,1-1.28-.47l-.8-.34.63-1.45.56.24a6.36,6.36,0,0,1,.9.46l.34-.8a6.2,6.2,0,0,1-.94-.34l-1.78-.77a5.92,5.92,0,0,1-.87-.44,9.48,9.48,0,0,0,2.92-1.81,9.21,9.21,0,0,0,.95,3.48,3.21,3.21,0,0,1,.82-.48,6.91,6.91,0,0,1-1-3.49l-1-.42a7.49,7.49,0,0,1-4.06,2.17,2.67,2.67,0,0,1,.21,1c.53-.16.73-.24,1.12-.39l-.33.76a7.77,7.77,0,0,1,.92.33Zm8.08,6.35a9.11,9.11,0,0,1-2.89.91,7.66,7.66,0,0,1,.27-2.48l1.52.65c.56.24.87.39,1.17.55a10.39,10.39,0,0,1,.57-1.43l1.22-2.84a13.27,13.27,0,0,1,.69-1.48,8.25,8.25,0,0,1-1.36-.51l-3-1.29a12.52,12.52,0,0,1-1.33-.64c-.17.47-.33.92-.56,1.46L107,224.43a9,9,0,0,1-1.67-.38l-.13,1a8.2,8.2,0,0,1,.85.1,33.65,33.65,0,0,0,4.25.45l.3-.82a20.18,20.18,0,0,1-2.68-.22l2-4.63,1.31.57a9.09,9.09,0,0,0,1.29,7.72,3.05,3.05,0,0,1,1-.53,8.24,8.24,0,0,1-1.63-3.55,27,27,0,0,0,3.15-.82Zm-2.6-7.36,4,1.7-.71,1.66-4-1.71Zm-1,2.39,4,1.71-.76,1.74-4-1.7Zm-7.58,3.93a14.28,14.28,0,0,0,.5-3l-.8-.07a12.94,12.94,0,0,1-.54,3Zm2.72,1a13.72,13.72,0,0,0,1.73-2l-.56-.57a10.48,10.48,0,0,1-1.69,2.07Zm16.14-1.23a7.67,7.67,0,0,1-1.29,1.76,7.15,7.15,0,0,1-2.54,1.77,2.2,2.2,0,0,1,.42.8,8.54,8.54,0,0,0,2.42-1.7,9.91,9.91,0,0,0,.65,2.68,3.56,3.56,0,0,1,.83-.47,6.68,6.68,0,0,1-.82-2.89c.2-.25.37-.45,1.15-1.43Zm5.53,2.32a6.72,6.72,0,0,1-1.19,1.66,7,7,0,0,1-2.58,1.8,2.38,2.38,0,0,1,.46.8,9.06,9.06,0,0,0,2.24-1.55,8.71,8.71,0,0,0,1.07,3.16,3.34,3.34,0,0,1,.87-.47,6.63,6.63,0,0,1-1.3-3.36l.59-.71c.49-.6.49-.6.64-.8Zm-5.44,4.34-2.56-1.11a6.07,6.07,0,0,1-1.14-.57l-.39.91a7.28,7.28,0,0,1,1.21.44l2.55,1.1-.88,2-3.47-1.5a9,9,0,0,1-1.32-.65l-.4.93a12.13,12.13,0,0,1,1.46.54l7.9,3.41a12.19,12.19,0,0,1,1.4.7l.41-.95a9.58,9.58,0,0,1-1.39-.5L122,231l.88-2,2.9,1.25a7,7,0,0,1,1.19.6l.39-.91a8.88,8.88,0,0,1-1.25-.46l-2.89-1.25,2-4.6a6.24,6.24,0,0,1,.61-1.21l-1-.43a7.17,7.17,0,0,1-.47,1.27Zm2.67-7.24L121.4,219a13.64,13.64,0,0,1-1.43-.7c-.12.38-.25.73-.44,1.2l-.18.43a37.33,37.33,0,0,1-3,5.92,7.7,7.7,0,0,1-2.12,2.21,3.15,3.15,0,0,1,.46,1c2.06-1.56,3.22-3.41,5.85-9.46l8.81,3.81a12.4,12.4,0,0,1,1.42.69l.41-.95a11.79,11.79,0,0,1-1.54-.56l-3.79-1.64.21-.48a6,6,0,0,1,.45-.87l-1-.44a5,5,0,0,1-.3.92Zm5.49,8.9a4,4,0,0,1,.59.17l1.65.58-1.93,4.48a13,13,0,0,1-.68,1.34l1,.42a8.9,8.9,0,0,1,.51-1.42l2-4.55c.55.17.67.2,1.31.38l-.12.75.82,0a16.18,16.18,0,0,0,.1-2.87l-.75,0a7.61,7.61,0,0,1,0,1.35c-.88-.25-.91-.26-2.19-.71q1.74-1,2.88-1.74l1.51-1-.61-.77a14,14,0,0,1-2.43,1.84c-.18-.6-.25-.79-.43-1.31a21.4,21.4,0,0,0,2.32-1.68,6.13,6.13,0,0,1,.58-.42l-.7-.73a10.05,10.05,0,0,1-2.48,2.07c-.12-.31-.2-.48-.39-.92l-.77.43a18.29,18.29,0,0,1,1.15,3l-1.53.9c-.27-.1-.49-.2-.58-.24a4.25,4.25,0,0,1-.52-.27Zm9.06-2.82a11.41,11.41,0,0,1-1.27-.61,12,12,0,0,1-.5,1.3l-1,2.22a11.11,11.11,0,0,1-.61,1.25c.46.15.9.32,1.34.51l1.29.56-2.31,5.36c-.1.22-.24.24-.6.09a10.35,10.35,0,0,1-1.26-.7,2.56,2.56,0,0,1-.14,1l1,.49c1,.43,1.44.34,1.76-.4l.75-1.74c.27-.63.53-1.34,1-2.62a9.38,9.38,0,0,0,.25,4,9.11,9.11,0,0,0,1,2.42,2.76,2.76,0,0,1,.91-.52,9.67,9.67,0,0,1-1.39-3.54,22.48,22.48,0,0,0,2.73-1l-.37-.84a14.09,14.09,0,0,1-2.49,1.08,7.86,7.86,0,0,1,0-2.65l1.39.59a12.41,12.41,0,0,1,1.27.62,10.06,10.06,0,0,1,.49-1.29l1-2.22a11.41,11.41,0,0,1,.61-1.27c-.45-.15-.9-.32-1.33-.51l-1.74-.76c.44-.39.6-.52,1-.87l-.87-.59a6.63,6.63,0,0,1-1,1.08Zm-.77.5,4.45,1.92-.54,1.26-4.45-1.93Zm-.85,2,4.45,1.92-.56,1.3-4.45-1.93Zm-7.1,1.34a13.22,13.22,0,0,1-2.39,3.48l.58.7a15.93,15.93,0,0,0,2.51-3.69Zm2.78,1.42a17.41,17.41,0,0,1-.64,2.93l.82,0a19,19,0,0,0,.56-2.9Zm4,.92a3.4,3.4,0,0,1-.74-.25l-.7-.31a4.25,4.25,0,0,1-.92-.48l-.38.87a4.65,4.65,0,0,1,1,.34l.9.38a7.66,7.66,0,0,1-4.15,2.2,2.31,2.31,0,0,1,.31.89,11.27,11.27,0,0,0,2-.76,10.45,10.45,0,0,0,2.09-1.52c.26-.25.53-.5.81-.73Z"/><rect class="f" x="213.81" y="250.19" width="106.25" height="35.89"/><rect class="j" x="213.81" y="250.19" width="106.25" height="35.89"/><path class="k" d="M231.42,261.25h10.77v1.44a27.35,27.35,0,0,0-3.1,4.23,31.89,31.89,0,0,0-2.08,4.23A24.34,24.34,0,0,0,235.8,275a19.17,19.17,0,0,0-.47,3h-1.68a17.6,17.6,0,0,1,.73-3.88,31,31,0,0,1,1.52-4.06,36.19,36.19,0,0,1,2.06-3.9,30.66,30.66,0,0,1,2.38-3.38h-8.92Z"/><g class="l"><g class="m"><g class="m"><path class="k" d="M254.57,262.06c-2,.14-4,.24-6,.26a3.91,3.91,0,0,0-.54-1.16c.8,0,1.22,0,1.64,0a43.17,43.17,0,0,0,11.75-1.38l.9,1.14-.38.06-.42.08c-1.47.3-4.07.68-5.71.86v3h2.4a14.13,14.13,0,0,0,1.6-3l1.23.46a19.41,19.41,0,0,1-1.55,2.56h2.41a11,11,0,0,0,2-.12v1.3a14,14,0,0,0-2-.12h-4.93a18.77,18.77,0,0,0,7.69,3.85,4.28,4.28,0,0,0-.7,1.2c-1.64-.64-1.76-.7-2.5-1,0,.46,0,.62,0,1.12v5a12,12,0,0,0,.12,1.88h-1.3v-1.08h-9.77V278h-1.3a12.62,12.62,0,0,0,.12-1.86v-5c0-.4,0-.82,0-1.12-.86.42-1.26.6-2.28,1a3.28,3.28,0,0,0-.72-1.12,17.8,17.8,0,0,0,7.14-3.91h-4.68a14,14,0,0,0-2,.12v-1.3a13.09,13.09,0,0,0,2,.12H251a12.4,12.4,0,0,0-1.24-2l1.06-.46a16.11,16.11,0,0,1,1.44,2.46h2.34Zm5.2,7.51h.68a17,17,0,0,1-4.76-3.45c0,.12,0,.18,0,.32s0,.36,0,.46v.72a11.86,11.86,0,0,0,.06,1.37h-1.34a9.54,9.54,0,0,0,.08-1.37v-.7a5.65,5.65,0,0,1,.08-.78,15.23,15.23,0,0,1-4.44,3.43h9.56Zm-9.32,3.08h4.14v-2h-4.14Zm0,3.22h4.14v-2.2h-4.14Zm5.3-3.22h4.47v-2h-4.47Zm0,3.22h4.43v-2.2h-4.43Z"/><path class="k" d="M274.05,261.74a8.09,8.09,0,0,0-.14-1.82h1.62a9.07,9.07,0,0,0-.14,1.82v5.06h5.27V263a10.89,10.89,0,0,0-.08-1.46h1.5a9.86,9.86,0,0,0-.1,1.52v4c0,.4,0,.69,0,1-.4,0-.86,0-1.24,0h-5.39v7.33h6v-3.8a10.61,10.61,0,0,0-.1-1.72h1.52a11.11,11.11,0,0,0-.1,1.78v4.52a10,10,0,0,0,.12,1.68h-1.44v-1.2h-13v1.2h-1.44a10.51,10.51,0,0,0,.12-1.68v-4.4a11.11,11.11,0,0,0-.1-1.78h1.52a10.05,10.05,0,0,0-.1,1.7v3.7h5.7V268h-5c-.36,0-.82,0-1.24,0,0-.37,0-.67,0-1v-4a14.18,14.18,0,0,0-.1-1.54h1.5a10.27,10.27,0,0,0-.08,1.48v3.76h4.88Z"/><path class="k" d="M286.47,277.13a16.14,16.14,0,0,0,.14-2.3V263.74a16.55,16.55,0,0,0-.1-2.12,16.69,16.69,0,0,0,2.14.1h10.52a17.1,17.1,0,0,0,2.17-.1,15.81,15.81,0,0,0-.1,2.12v11.09a16,16,0,0,0,.14,2.3h-1.51v-1.6H288v1.6Zm1.5-2.84h11.9V263H288Z"/></g></g></g><rect class="f" x="220.98" y="344.94" width="106.25" height="35.89"/><rect class="j" x="220.98" y="344.94" width="106.25" height="35.89"/><path class="k" d="M242,364.37a6,6,0,0,0-1.63.22,3.56,3.56,0,0,0-1.3.66,3.12,3.12,0,0,0-.87,1.13,3.9,3.9,0,0,0-.31,1.62,3.5,3.5,0,0,0,.3,1.46,3.6,3.6,0,0,0,.84,1.17,4.19,4.19,0,0,0,1.32.78,5.16,5.16,0,0,0,1.74.28,4.38,4.38,0,0,0,1.56-.27,3.92,3.92,0,0,0,1.26-.78,3.57,3.57,0,0,0,.84-1.2,3.88,3.88,0,0,0,.3-1.54,3.61,3.61,0,0,0-.31-1.55,3.17,3.17,0,0,0-.86-1.1,3.81,3.81,0,0,0-1.3-.66A6,6,0,0,0,242,364.37Zm-.07-7.34a4.62,4.62,0,0,0-1.34.19,3.32,3.32,0,0,0-1.1.58,2.76,2.76,0,0,0-.73,1,3.11,3.11,0,0,0-.26,1.32,2.75,2.75,0,0,0,.3,1.35,2.56,2.56,0,0,0,.8.93,3.78,3.78,0,0,0,1.15.54,5.09,5.09,0,0,0,1.34.18,4.74,4.74,0,0,0,1.3-.18,2.63,2.63,0,0,0,1-.59,3,3,0,0,0,.67-1,4.05,4.05,0,0,0,.25-1.54,2.43,2.43,0,0,0-.84-2,3.94,3.94,0,0,0-2.58-.71Zm-2.62,6.52a11.11,11.11,0,0,1-1.07-.72,3.76,3.76,0,0,1-.73-.76,2.65,2.65,0,0,1-.42-.92,5.14,5.14,0,0,1-.13-1.29,3.68,3.68,0,0,1,.38-1.63,4.33,4.33,0,0,1,1-1.33,4.59,4.59,0,0,1,1.53-.88,5.25,5.25,0,0,1,1.88-.29,7.53,7.53,0,0,1,1.89.24,5.08,5.08,0,0,1,1.64.75,3.63,3.63,0,0,1,1.58,3.14,4.34,4.34,0,0,1-.54,2.26,3.9,3.9,0,0,1-1.76,1.53,4.54,4.54,0,0,1,2.2,1.61,4.32,4.32,0,0,1,.8,2.59,5.57,5.57,0,0,1-.42,2.21,4.34,4.34,0,0,1-1.2,1.61,5.46,5.46,0,0,1-1.88,1,8.15,8.15,0,0,1-2.45.34,5.9,5.9,0,0,1-1.86-.31,5.25,5.25,0,0,1-1.7-.94,4.81,4.81,0,0,1-1.24-1.56,4.72,4.72,0,0,1-.48-2.18,5,5,0,0,1,.76-2.7A4.39,4.39,0,0,1,239.31,363.55Z"/><g class="n"><g class="m"><g class="m"><path class="k" d="M260.74,356.81c-2,.14-4,.24-6,.26a3.91,3.91,0,0,0-.54-1.16c.8,0,1.22,0,1.64,0a43.17,43.17,0,0,0,11.75-1.38l.9,1.14-.38.06-.42.08c-1.47.3-4.07.68-5.71.86v3h2.4a14.13,14.13,0,0,0,1.6-3l1.22.46a18.29,18.29,0,0,1-1.54,2.56H268a11,11,0,0,0,2-.12v1.3a14,14,0,0,0-2-.12H263.1a18.77,18.77,0,0,0,7.69,3.85,4.28,4.28,0,0,0-.7,1.2c-1.64-.64-1.76-.7-2.51-1,0,.46,0,.62,0,1.12v5a12,12,0,0,0,.12,1.88h-1.3v-1.08h-9.77v1.08h-1.3a12.62,12.62,0,0,0,.12-1.86v-5c0-.4,0-.82,0-1.12-.86.42-1.26.6-2.28,1a3.28,3.28,0,0,0-.72-1.12,17.8,17.8,0,0,0,7.14-3.91h-4.68a14,14,0,0,0-2,.12v-1.3a13.09,13.09,0,0,0,2,.12h2.26a12.4,12.4,0,0,0-1.24-2l1.06-.46a16.11,16.11,0,0,1,1.44,2.46h2.34Zm5.2,7.51h.68a17,17,0,0,1-4.76-3.45c0,.12,0,.18,0,.32s0,.36,0,.46v.72a11.86,11.86,0,0,0,.06,1.37h-1.34a9.54,9.54,0,0,0,.08-1.37v-.7a5.65,5.65,0,0,1,.08-.78,15.23,15.23,0,0,1-4.44,3.43h9.56Zm-9.32,3.08h4.14v-2h-4.14Zm0,3.22h4.14v-2.2h-4.14Zm5.3-3.22h4.47v-2h-4.47Zm0,3.22h4.43v-2.2h-4.43Z"/><path class="k" d="M280.22,356.49a8.09,8.09,0,0,0-.14-1.82h1.62a9.18,9.18,0,0,0-.13,1.82v5.06h5.26v-3.78a9.37,9.37,0,0,0-.09-1.46h1.51a9.86,9.86,0,0,0-.1,1.52v4c0,.4,0,.69,0,1-.4,0-.86,0-1.24,0h-5.38v7.33h6v-3.8a10.61,10.61,0,0,0-.1-1.72H289a11.11,11.11,0,0,0-.1,1.78v4.52a10,10,0,0,0,.12,1.68h-1.44v-1.2h-13v1.2h-1.44a10.51,10.51,0,0,0,.12-1.68v-4.4a11.11,11.11,0,0,0-.1-1.78h1.52a10.05,10.05,0,0,0-.1,1.7v3.7h5.7v-7.33h-5c-.36,0-.82,0-1.24,0,0-.37,0-.67,0-1v-4a14.18,14.18,0,0,0-.1-1.54h1.5a10.27,10.27,0,0,0-.08,1.48v3.76h4.88Z"/><path class="k" d="M292.64,371.88a16.14,16.14,0,0,0,.14-2.3V358.49a16.55,16.55,0,0,0-.1-2.12,16.69,16.69,0,0,0,2.14.1h10.52a17.1,17.1,0,0,0,2.17-.1,15.81,15.81,0,0,0-.1,2.12v11.09a16,16,0,0,0,.14,2.3h-1.5v-1.6H294.14v1.6Zm1.5-2.84h11.91V357.71H294.14Z"/></g></g></g><g class="d"><path class="k" d="M197.87,323.44a7.94,7.94,0,0,1,.33,11.23l-.33.33a8.76,8.76,0,0,1-12,0,8,8,0,0,1-.33-11.23l.33-.33a8.76,8.76,0,0,1,12,0"/><path class="k" d="M236.73,509.13a8,8,0,0,1,.32,11.23c-.1.11-.21.22-.32.32a8.75,8.75,0,0,1-12,0,7.94,7.94,0,0,1-.32-11.23c.1-.11.21-.22.32-.32a8.75,8.75,0,0,1,12,0"/><path class="k" d="M207.19,589.09a8,8,0,0,1,.33,11.23l-.33.33a8.77,8.77,0,0,1-12,0,8,8,0,0,1-.32-11.24l.32-.32a8.77,8.77,0,0,1,12,0"/><path class="k" d="M280.13,11.79A8,8,0,0,1,280.46,23l-.33.33a8.77,8.77,0,0,1-12,0,7.94,7.94,0,0,1-.32-11.23l.32-.33a8.77,8.77,0,0,1,12,0"/><path class="k" d="M302.54,227.7a8,8,0,0,1,.32,11.23l-.32.33a8.77,8.77,0,0,1-12,0,8,8,0,0,1-.32-11.24c.1-.11.21-.22.32-.32a8.77,8.77,0,0,1,12,0"/></g><path class="k" d="M196.19,44.72v1.9h-5.45c.15-.63.3-1.28.45-1.9Zm2.28-4h5.62v2.08h-5.62Zm0,5.93v-1.9h7.92v-6h-18.2v1.95h8v2.08h-6.9c-.4,2-1,4.57-1.57,6.25l2.3.32.22-.75h4a23.46,23.46,0,0,1-8.2,4.15,9.75,9.75,0,0,1,1.5,1.83,24.26,24.26,0,0,0,8.6-5.08v5.4h2.28v-6.3h6.87c-.2,1.85-.42,2.7-.75,3a1.28,1.28,0,0,1-.87.2,18.64,18.64,0,0,1-2.7-.13,5.18,5.18,0,0,1,.65,2.13,27.06,27.06,0,0,0,3.12,0,2.41,2.41,0,0,0,1.73-.73c.62-.65.95-2.17,1.25-5.57,0-.3,0-.9,0-.9ZM200.82,34c.27-.52.52-1.07.75-1.62l-2.23-.55a13,13,0,0,1-2.32,4V34h-6.1c.25-.52.5-1.07.72-1.6l-2.2-.57a15.47,15.47,0,0,1-3.77,5.75c.52.3,1.45.92,1.9,1.25a17.54,17.54,0,0,0,2.3-3h.67a15,15,0,0,1,1.18,2.85l2-.82a10.13,10.13,0,0,0-.88-2H197a9.94,9.94,0,0,1-1.58,1.53,11.2,11.2,0,0,1,1.9,1.3,15.27,15.27,0,0,0,2.43-2.83h1.42a14.08,14.08,0,0,1,1.73,2.85l2-.8a13.06,13.06,0,0,0-1.25-2h5V34ZM211,41.92v2.55h22.75V41.92Zm38.18-8.78h-2.95a11.73,11.73,0,0,1,.2,2v2.33h-6.7a16.78,16.78,0,0,1-2.25-.15v2.62c.7,0,1.5-.07,2.27-.07h6.68v.1c0,1.2,0,9.45,0,10.62,0,.68-.27.93-.92.93a16,16,0,0,1-2.85-.28l.22,2.48a36.52,36.52,0,0,0,3.78.2c1.62,0,2.35-.78,2.35-2.15V39.82h6.3c.62,0,1.47,0,2.2,0V37.29a20.84,20.84,0,0,1-2.23.13H249v-2.3A12.08,12.08,0,0,1,249.22,33.14Zm-5.68,10.4-2.22-1.07A26.65,26.65,0,0,1,236.59,49l2.15,1.45A37.84,37.84,0,0,0,243.54,43.54Zm10.58-1.1L252,43.62a45.85,45.85,0,0,1,4.15,6.67l2.3-1.27A53.12,53.12,0,0,0,254.12,42.44Z"/><path class="k" d="M267.76,34.14v2.58c.7,0,1.63-.08,2.45-.08h10.08c.77,0,1.7,0,2.5.08V34.14a20.86,20.86,0,0,1-2.5.18h-10.1A19.86,19.86,0,0,1,267.76,34.14Zm-2.95,6.35v2.58c.68,0,1.53-.08,2.28-.08h7.22a11.61,11.61,0,0,1-1.5,5.93,10.71,10.71,0,0,1-4.62,3.72l2.3,1.68a12,12,0,0,0,5-4.65A15.44,15.44,0,0,0,277,43h6.43c.65,0,1.52,0,2.1.08V40.49a20.18,20.18,0,0,1-2.1.13H267.09A19.36,19.36,0,0,1,264.81,40.49Z"/><path class="k" d="M300,52.39l1.65,1.38a8.69,8.69,0,0,1,.95-.63,26.16,26.16,0,0,0,8.53-6.9l-1.53-2.15a17.53,17.53,0,0,1-6.8,5.75V36a14.82,14.82,0,0,1,.13-2H300c.08.66.13,1.33.15,2v14.8A6.87,6.87,0,0,1,300,52.39Zm-11.52-.22,2.4,1.6a14.09,14.09,0,0,0,4.45-7c.67-2.5.77-7.83.77-10.68a19.36,19.36,0,0,1,.13-2h-2.9a8.18,8.18,0,0,1,.2,2c0,2.87,0,7.75-.73,10A11.56,11.56,0,0,1,288.49,52.17Zm29.72-8.55h5.15v2h-5.15Zm0-3.68h5.15v2h-5.15Zm13,0v2h-5.45v-2Zm0,5.7h-5.45v-2h5.45Zm2.35,1.78V38.17h-7.8V36.34h9.77V34.19h-9.77V32h-2.43v2.22h-9.55v2.15h9.55v1.83h-7.42v9.25h5.62a23.85,23.85,0,0,1-8.4,5.2,10.65,10.65,0,0,1,1.6,2,25.34,25.34,0,0,0,8.6-6v6.3h2.43v-6.4a25.32,25.32,0,0,0,8.75,6.1,10,10,0,0,1,1.67-2,23.73,23.73,0,0,1-8.6-5.17Zm26.9-12.8h-9.68V31.94h-2.47v2.68h-9.55v2.22h21.7Zm-17.85,13.1a16.41,16.41,0,0,1-4.43,4.92,12.28,12.28,0,0,1,1.9,1.38A22.68,22.68,0,0,0,345,48.47Zm1.42-6.8h11.23v3.55H344.06Zm13.68,5.55v-7.6h-16v7.6h6.65v5.82c0,.33-.13.43-.58.43s-2,0-3.47,0a9.53,9.53,0,0,1,.75,2.2,15.15,15.15,0,0,0,4.5-.32c1-.33,1.22-1,1.22-2.23V46.47Zm-3.68,2.27a38.55,38.55,0,0,1,4.48,5.48L360.81,53a44.78,44.78,0,0,0-4.6-5.32Z"/><path class="k" d="M117.72,491.53a23.93,23.93,0,0,1-1.12,3.28l1.72.37h-5.5l1.45-.37a11.43,11.43,0,0,0-1-3.28Zm2.78,13.28c-.58-.48-2.88-2.35-3.78-3v-.42h4.43v-2h-4.43v-2.27h4.65v-2h-2.92c.42-.85.9-2.07,1.37-3.25l-1.75-.4h3v-1.92h-4.38v-2.38h-2.25v2.38H110.1v1.92h3.07l-1.7.43a12,12,0,0,1,.88,3.22h-2.58v2h4.7v2.27h-4.62v2H114a17.1,17.1,0,0,1-4.77,5.25,9.53,9.53,0,0,1,1.5,1.67,18.63,18.63,0,0,0,3.72-4.2V510h2.25v-5.92a33.79,33.79,0,0,1,2.43,2.47Zm12-9.45h-8.1v-4.05a38.35,38.35,0,0,0,7.85-2.28l-1.88-1.67a32.89,32.89,0,0,1-6.65,2.15l-1.55-.45v8.65c0,3.45-.3,7.72-3.32,10.8a5.59,5.59,0,0,1,1.65,1.6c3.45-3.48,3.9-8.68,3.9-12.38v-.22h3.22v12.37h2.25V497.51h2.63Zm7.62-.85h2.58v-2.15h-2.58v-5.28H138v5.28h-3.13v2.15h2.95a28.14,28.14,0,0,1-3.5,8.92,10.2,10.2,0,0,1,1.1,2,23.34,23.34,0,0,0,2.58-5.93V510h2.12V498.83c.63,1.18,1.3,2.53,1.6,3.3l1.23-1.67c-.4-.65-2.13-3.33-2.83-4.3Zm11.33,9.9v1.87h-2.88v-1.87Zm1.72,3.27V503h-6.32v5.72h1.72v-1.05Zm3.68-7.65H143.22v10h2.13v-8.2h9.32v5.9c0,.28-.07.35-.4.38s-1.32,0-2.35,0a7.24,7.24,0,0,1,.7,1.9,9.65,9.65,0,0,0,3.3-.3c.73-.35.93-.92.93-1.92ZM152,497.58h-4.08v-1.8H152Zm-.7-4.6a9.32,9.32,0,0,0,.9,1.35h-4.35a11.94,11.94,0,0,0,.87-1.35Zm5.9,0v-1.82h-7.58c.2-.5.35-1,.5-1.48a43.67,43.67,0,0,0,5.7-.8l-1.35-1.52a73.41,73.41,0,0,1-11.07,1.05,6.25,6.25,0,0,1,.5,1.57c1.27,0,2.62-.07,4-.15a9.29,9.29,0,0,1-.5,1.33H143V493h3.35a12,12,0,0,1-4.2,3.6,5,5,0,0,1,1.42,1.55,14.27,14.27,0,0,0,2.45-1.77V499h8.08v-2.65a11.17,11.17,0,0,0,2.37,1.73,7.08,7.08,0,0,1,1.4-1.68,11.67,11.67,0,0,1-4.37-3.45Zm15.17,1h-3.2v-3.2h3.2Zm6.38,5.43a4.32,4.32,0,0,1-1.18-.58c-.07,1.43-.17,1.63-.67,1.63h-1.68c-.57,0-.65-.05-.65-.63v-3.7h4.18Zm-15.43,6.82v-3.77a6.89,6.89,0,0,1,1.55,1.45,7.29,7.29,0,0,0,4.3-7v-.8h3.18v3.7c0,2.08.45,2.68,2.52,2.68h2.3a2.11,2.11,0,0,0,1.58-.5v4.22Zm3.7-10.1v.73c0,1.8-.55,3.92-3.7,5.47v-6.2ZM182,490.83v-2.25H160v2.25h6.88V494h-5.85v15.88h2.27v-1.45h15.43v1.4h2.35V494h-6.43v-3.2Zm7,14.2v-13.1h14V505Zm-2.4-15.45v19.9H189v-2.07h14v2h2.52v-19.8Z"/><path class="k" d="M111.57,557l1.8-.8a24.43,24.43,0,0,1,0-24l-1.8-.77a23.94,23.94,0,0,0,0,25.57Zm10.63-4.65c4,0,6.47-2.4,6.47-5.35,0-2.7-1.57-4.05-3.75-5l-2.52-1.08c-1.5-.6-3-1.2-3-2.8s1.23-2.35,3.1-2.35a5.89,5.89,0,0,1,4,1.65l1.53-1.85a7.9,7.9,0,0,0-5.58-2.32c-3.5,0-6,2.17-6,5.07,0,2.68,2,4.08,3.75,4.83l2.55,1.1c1.7.75,3,1.27,3,2.95s-1.25,2.6-3.47,2.6a7.09,7.09,0,0,1-4.9-2.18l-1.7,2A9.18,9.18,0,0,0,122.2,552.3Zm10-.32h10.7v-2.45h-7.8v-16h-2.9Zm14.47,5a23.78,23.78,0,0,0,0-25.57l-1.8.77a24.43,24.43,0,0,1,0,24Z"/><path class="k" d="M162.93,537.19h18.23V535h-9.3v-3.3h-2.4V535h-8.85v6.42c0,3.5-.2,8.45-2.38,11.9a10,10,0,0,1,2,1.3c2.35-3.65,2.72-9.35,2.72-13.2Zm18.65,16.4a40.94,40.94,0,0,0-5.5-9.1l-2.12,1a50.07,50.07,0,0,1,3.25,5c-3.1.15-6.23.27-9,.4A119.84,119.84,0,0,0,172,539.17l-2.63-.58a85.76,85.76,0,0,1-3.62,12.33c-1.1,0-2.1.07-3,.1l.23,2.4c4-.23,9.75-.58,15.27-.95a18.07,18.07,0,0,1,.95,2.22Zm20.95-18h-7.3V534h7.3Zm0,3.23h-7.3v-1.65h7.3Zm2.15-6.53H193.13v8.2h11.55ZM191,544.62l-2.3,1v-6.5h2.53V537h-2.53v-5.05h-2.15V537h-2.75v2.2h2.75v7.45c-1.22.52-2.35,1-3.25,1.35l.9,2.32c2.1-1,4.8-2.35,7.3-3.62Zm15.45-.9v-2H190.81v2H194a13.53,13.53,0,0,1-4.73,4.6,12,12,0,0,1,1.58,1.45,17.07,17.07,0,0,0,3.07-2.68H196a16.16,16.16,0,0,1-5.4,5.13,6.25,6.25,0,0,1,1.55,1.4,19.3,19.3,0,0,0,5.95-6.53h2a14.52,14.52,0,0,1-4.75,6.3,7.5,7.5,0,0,1,1.67,1.3,17.28,17.28,0,0,0,5-7.6h1.5c-.3,3.53-.63,4.95-1,5.38-.2.25-.4.27-.78.27a15.92,15.92,0,0,1-1.95-.1,4.57,4.57,0,0,1,.53,1.88,20.88,20.88,0,0,0,2.5,0,2.21,2.21,0,0,0,1.5-.7c.67-.75,1-2.7,1.45-7.7,0-.3.05-.87.05-.87H195.41a12.82,12.82,0,0,0,.92-1.5Z"/><g class="d"><rect class="f" x="257.15" y="439.8" width="103.77" height="31.57"/><rect class="j" x="257.15" y="439.8" width="103.77" height="31.57"/></g><g class="o"><g class="m"><g class="m"><path class="k" d="M271.36,450.35a14,14,0,0,0-.1-2,16.32,16.32,0,0,0,2.14.1h9a14.51,14.51,0,0,0,2.06-.1,12.58,12.58,0,0,0-.1,1.84v12.82a15.29,15.29,0,0,0,.12,2.14H283v-1.3H272.7v1.3h-1.46a15.37,15.37,0,0,0,.12-2.12Zm1.34,5H283v-5.6H272.7Zm0,7.36H283v-6.14H272.7Z"/><path class="k" d="M291.26,462.81a43.31,43.31,0,0,0,5.1-1.88l0,1.22a67.14,67.14,0,0,1-7.46,2.72,9.11,9.11,0,0,0-1,.34l-.44-1.42a12.42,12.42,0,0,0,2.5-.56V449.87a14.11,14.11,0,0,0-.12-2h1.56a13.16,13.16,0,0,0-.12,2v3.9h3.34a8.38,8.38,0,0,0,1.8-.12v1.44a10.25,10.25,0,0,0-1.8-.12h-3.34Zm7.46.24c0,.54.32.62,2.26.62s2.42-.08,2.66-.4.46-1.52.5-3.78a4,4,0,0,0,1.26.58c-.18,2.5-.38,3.54-.86,4.14s-1.24.7-3.58.7c-3,0-3.54-.26-3.54-1.58V449.87a12,12,0,0,0-.12-2h1.54a13.91,13.91,0,0,0-.12,2v5.3c2.7-1.56,4.5-3,5.44-4.36l1,1.08-.74.64a28,28,0,0,1-5.72,4Z"/><path class="k" d="M316.9,451.31a14.43,14.43,0,0,0,3.48,4.06,18.32,18.32,0,0,0,5.24,3.18,6.8,6.8,0,0,0-.8,1.18,22.36,22.36,0,0,1-3.06-1.76c0,.22,0,.44,0,1.06v4.3a14.13,14.13,0,0,0,.12,2h-1.4v-1.12H312.1v1.12h-1.4a14.33,14.33,0,0,0,.12-2v-5.26a21.57,21.57,0,0,1-3,1.76,4.37,4.37,0,0,0-.78-1.1,18.1,18.1,0,0,0,4.92-3.08,13.58,13.58,0,0,0,3.5-4.34Zm-2.34-3.1a14,14,0,0,1-3.24,3.56,17,17,0,0,1-2.6,1.74,4.58,4.58,0,0,0-.94-1.06,17,17,0,0,0,3.22-2.08,9.41,9.41,0,0,0,2.42-2.92Zm5.64,9.2H321a21.17,21.17,0,0,1-2.54-2.24,14.18,14.18,0,0,1-2.16-2.8,17.12,17.12,0,0,1-4.56,5h8.5Zm-8.1,5.7h8.36v-4.56H312.1Zm7-15.7a14.06,14.06,0,0,0,3.32,3.38,18.31,18.31,0,0,0,2.52,1.52,6.46,6.46,0,0,0-.84,1.16,19,19,0,0,1-6-5.34Z"/><path class="k" d="M328.36,464.63a16.14,16.14,0,0,0,.14-2.3V451.25a16.55,16.55,0,0,0-.1-2.12,16.69,16.69,0,0,0,2.14.1h10.52a17,17,0,0,0,2.16-.1,15.81,15.81,0,0,0-.1,2.12v11.08a16,16,0,0,0,.14,2.3h-1.5V463h-11.9v1.6Zm1.5-2.84h11.9V450.47h-11.9Z"/></g></g></g><path class="k" d="M77.05,349.12l-2-1.62a6.3,6.3,0,0,1-1.93.22H58.7a20.44,20.44,0,0,1-2.7-.2v2.8c.53-.05,1.7-.15,2.7-.15h14a29.2,29.2,0,0,1-7.15,8c-1.67-1.48-3.55-3-4.5-3.7l-2.05,1.67A59.18,59.18,0,0,1,64.68,361a65.69,65.69,0,0,1,4.62,5.25l2.3-1.85c-1-1.2-2.62-2.95-4.1-4.42a40.14,40.14,0,0,0,8.83-10C76.5,349.75,76.78,349.45,77.05,349.12Z"/><path class="k" d="M92,345.47l-2.9-1a11.11,11.11,0,0,1-.93,2.25,21.12,21.12,0,0,1-7.85,8.28l2.2,1.65a26,26,0,0,0,6.35-6.13h7.8a18.57,18.57,0,0,1-3.8,7.38,20,20,0,0,1-10,6.25l2.32,2.07a22.41,22.41,0,0,0,10-6.92,24.54,24.54,0,0,0,4.4-8.5,9.6,9.6,0,0,1,.7-1.53l-2-1.25a5.63,5.63,0,0,1-1.87.25h-6c.12-.2.25-.42.35-.62C91,347.2,91.5,346.22,92,345.47Zm27.85,1.2-1.68.73a22,22,0,0,1,2.2,3.82l1.75-.77A30.27,30.27,0,0,0,119.85,346.67Zm3.15-1.3-1.68.78a24,24,0,0,1,2.3,3.75l1.73-.85A38.21,38.21,0,0,0,123,345.37ZM110.57,363a24.44,24.44,0,0,1-.2,3.2h3c-.1-.9-.17-2.42-.17-3.2s0-4.27,0-7.72a70.32,70.32,0,0,1,9.48,3.87l1.1-2.7a82.72,82.72,0,0,0-10.58-4v-3.9c0-.9.13-2,.2-2.8h-3.07a17.61,17.61,0,0,1,.22,2.8Z"/><path class="k" d="M141.78,348.07v3.08h-7a21.34,21.34,0,0,1-2.53-.15v2.75a24.73,24.73,0,0,1,2.58-.1h6.92c-.12,4.72-2,8.37-6.77,10.6l2.45,1.82c5.2-3.07,6.92-7.15,7-12.42h6.18c.87,0,2,0,2.42.07V351a17.47,17.47,0,0,1-2.4.13h-6.2v-3.08a24.48,24.48,0,0,1,.18-2.7h-3.15A13,13,0,0,1,141.78,348.07Z"/><path class="k" d="M167.43,364.37l1.65,1.38a8.69,8.69,0,0,1,.95-.63,26.13,26.13,0,0,0,8.52-6.9L177,356.07a17.61,17.61,0,0,1-6.8,5.75V348a16.65,16.65,0,0,1,.12-2h-2.9a16.67,16.67,0,0,1,.15,2v14.8A6.87,6.87,0,0,1,167.43,364.37Zm-11.53-.22,2.4,1.6a14,14,0,0,0,4.45-7c.68-2.5.78-7.83.78-10.68,0-.66.05-1.33.12-2h-2.9a7.33,7.33,0,0,1,.2,2c0,2.87,0,7.75-.72,10A11.52,11.52,0,0,1,155.9,364.15Zm40.33-17.48-1.68.73a22,22,0,0,1,2.2,3.82l1.75-.77A30.27,30.27,0,0,0,196.23,346.67Zm3.15-1.3-1.68.78a24,24,0,0,1,2.3,3.75l1.73-.85A38.21,38.21,0,0,0,199.38,345.37ZM187,363a24.44,24.44,0,0,1-.2,3.2h3.05c-.1-.9-.17-2.42-.17-3.2s0-4.27,0-7.72a70.32,70.32,0,0,1,9.48,3.87l1.1-2.7a82.72,82.72,0,0,0-10.58-4v-3.9c0-.9.13-2,.2-2.8h-3.07a17.61,17.61,0,0,1,.22,2.8Z"/><path class="k" d="M220.09,585.48v2.85c.8-.05,1.77-.08,2.67-.08h10.53c.85,0,1.9,0,2.6.08v-2.85c-.87.08-1.73.12-2.6.12H222.74C221.91,585.6,220.91,585.55,220.09,585.48Zm-2.15,12.3v3c.9-.07,1.92-.12,2.85-.12h14.7c.7,0,1.67.05,2.5.12v-3a21,21,0,0,1-2.5.15h-14.7C219.86,597.93,218.86,597.85,217.94,597.78Z"/><path class="k" d="M258.44,590.15l-1.9-.92a5.07,5.07,0,0,1-1.5.2h-7.1c-.73,0-1.47,0-2.2-.13v2.6c.68,0,1.48-.07,2.23-.07h7.42c-.07,1.4-.72,5.7-1.07,7.82h-8.65a21.06,21.06,0,0,1-2.25-.12v2.57c.85,0,1.42-.05,2.25-.05h13.47c.6,0,1.65,0,2.13.05v-2.55c-.58.05-1.6.1-2.18.1H257c.35-2.32,1.05-7,1.25-8.6C258.29,590.8,258.37,590.43,258.44,590.15Zm8.78.75V594c.85-.07,2.35-.12,3.72-.12h13.6c1.1,0,2.25.1,2.8.12v-3.1c-.62.05-1.6.15-2.8.15h-13.6C269.59,591.05,268,591,267.22,590.9ZM299,585.53a23.8,23.8,0,0,1-1.12,3.27l1.72.38h-5.5l1.45-.38a11.37,11.37,0,0,0-1-3.27Zm2.78,13.27c-.58-.47-2.88-2.35-3.78-3v-.43h4.43v-2H298v-2.28h4.65v-2h-2.92c.42-.85.9-2.08,1.37-3.25l-1.75-.4h3V583.6H298v-2.37h-2.25v2.37h-4.37v1.93h3.07l-1.7.42a12.09,12.09,0,0,1,.88,3.23H291v2h4.7v2.28h-4.62v2h4.17a16.88,16.88,0,0,1-4.77,5.25,10,10,0,0,1,1.5,1.68,18.85,18.85,0,0,0,3.72-4.2V604H298v-5.93c.93.88,1.93,1.88,2.43,2.48Zm12-9.45h-8.1V585.3a38.33,38.33,0,0,0,7.85-2.27l-1.88-1.68A32.89,32.89,0,0,1,305,583.5l-1.55-.45v8.65c0,3.45-.3,7.73-3.32,10.8a5.85,5.85,0,0,1,1.65,1.6c3.45-3.47,3.9-8.67,3.9-12.37v-.23h3.22v12.38h2.25V591.5h2.63Zm7.62-.85H324v-2.15h-2.58v-5.27h-2.12v5.27h-3.13v2.15h2.95a28.29,28.29,0,0,1-3.5,8.93,10.41,10.41,0,0,1,1.1,2,23.79,23.79,0,0,0,2.58-5.92V604h2.12V592.83a35,35,0,0,1,1.6,3.3l1.23-1.68c-.4-.65-2.13-3.32-2.83-4.3Zm11.33,9.9v1.88h-2.88V598.4Zm1.72,3.28V597h-6.32v5.73h1.72v-1.05Zm3.68-7.65H324.49v10h2.13v-8.2h9.32v5.9c0,.27-.07.35-.4.37s-1.32,0-2.35,0a7.47,7.47,0,0,1,.7,1.9,9.65,9.65,0,0,0,3.3-.3c.73-.35.93-.93.93-1.93Zm-4.85-2.45h-4.08v-1.8h4.08Zm-.7-4.6a9.9,9.9,0,0,0,.9,1.35h-4.35c.31-.44.61-.89.87-1.35Zm5.9,0v-1.83h-7.58c.2-.5.35-1,.5-1.47a45.45,45.45,0,0,0,5.7-.8l-1.35-1.53a70.91,70.91,0,0,1-11.07,1,6.61,6.61,0,0,1,.5,1.58c1.27,0,2.62-.08,4-.15a9.17,9.17,0,0,1-.5,1.32h-4.42V587h3.35a12.14,12.14,0,0,1-4.2,3.6,4.9,4.9,0,0,1,1.42,1.55,13.81,13.81,0,0,0,2.45-1.78V593h8.08v-2.65a10.79,10.79,0,0,0,2.37,1.72,7,7,0,0,1,1.4-1.67,11.77,11.77,0,0,1-4.37-3.45Zm19.65-4.8-1.63.67a31.23,31.23,0,0,1,2,3.45l1.63-.7a36.37,36.37,0,0,0-2-3.42Zm2.82-1-1.6.67a23.62,23.62,0,0,1,2,3.43l1.62-.7A29.21,29.21,0,0,0,360.94,581.13Zm-13.87,2h-2.93a14.76,14.76,0,0,1,.18,2.3v13.68c0,2.1,1.15,3.1,3.17,3.47a26.79,26.79,0,0,0,4.1.25,73.72,73.72,0,0,0,8.78-.5v-2.87a41.66,41.66,0,0,1-8.63.82,21.68,21.68,0,0,1-3.12-.17c-1.18-.25-1.7-.55-1.7-1.75v-5.1a97.77,97.77,0,0,0,10-3.15c.8-.3,1.8-.75,2.63-1.08l-1.1-2.52A14.53,14.53,0,0,1,356,587.7a68.18,68.18,0,0,1-9.12,2.93V585.4A22.2,22.2,0,0,1,347.07,583.1Zm30.6,18.4,1.65,1.38a8.69,8.69,0,0,1,.95-.63,26.13,26.13,0,0,0,8.52-6.9l-1.52-2.15a17.61,17.61,0,0,1-6.8,5.75V585.13a14.81,14.81,0,0,1,.12-2h-2.9a16.67,16.67,0,0,1,.15,2v14.8A7.55,7.55,0,0,1,377.67,601.5Zm-11.53-.22,2.4,1.6a14,14,0,0,0,4.45-7c.68-2.5.78-7.83.78-10.68a16.77,16.77,0,0,1,.12-2H371a7.69,7.69,0,0,1,.2,2c0,2.87,0,7.75-.72,10A11.67,11.67,0,0,1,366.14,601.28Z"/><g class="p"><g class="m"><g class="m"><path class="i" d="M536.41,508.06a10.05,10.05,0,0,0-.09-1.34h1.15a9.52,9.52,0,0,0-.09,1.34v.72h3.17a13.16,13.16,0,0,0,1.56-.08v1c-.47,0-.92-.07-1.53-.07h-3.2v3H542a11.9,11.9,0,0,0,1.61-.09v1.06a12.1,12.1,0,0,0-1.59-.09H532a11.88,11.88,0,0,0-1.57.09v-1.06a11.28,11.28,0,0,0,1.59.09h4.38v-3h-3c-.61,0-1.07,0-1.54.07v-1a10.51,10.51,0,0,0,1.54.09h3Zm-4.17-5.88a12.15,12.15,0,0,0-1.58.09v-1a10.93,10.93,0,0,0,1.58.09h9.6a11.28,11.28,0,0,0,1.59-.09v1a11.11,11.11,0,0,0-1.56-.09h-5.52a20.3,20.3,0,0,1-1.83,3.34c1.83,0,4-.19,5.89-.4a16.92,16.92,0,0,0-1.72-1.59l.69-.51a22,22,0,0,1,3.55,3.55l-.75.62c-.52-.68-.73-.93-1.09-1.35-2.43.3-5.67.55-8,.61-1,0-1.45.06-1.84.11l-.18-1a9.33,9.33,0,0,0,1.11.05l1.26,0a18.28,18.28,0,0,0,1.83-3.37Z"/></g></g></g><path class="i" d="M540.82,537.52v-3.39h1a11.11,11.11,0,0,1,1.41.08v-1a8.35,8.35,0,0,1-1.41.09H536v-2a25,25,0,0,0,6.58-1.31l-.75-.82a9.07,9.07,0,0,1-2.34.78,25.33,25.33,0,0,1-4.26.54l-.24,0a16.82,16.82,0,0,1,.06,1.82v5.28h-.43a9.76,9.76,0,0,1-1.32-.09v1a10.78,10.78,0,0,1,1.39-.06h7.56a13.18,13.18,0,0,1,1.41.07v-1a6.6,6.6,0,0,1-1.41.09Zm-1,0H536v-3.39h3.88ZM530.75,530a10.66,10.66,0,0,1,2.37,2.07l.64-.74a13.26,13.26,0,0,0-2.4-2Zm-.67,3.7a10.53,10.53,0,0,1,2.53,1.86l.54-.82a15.25,15.25,0,0,0-2.53-1.76Zm2,3.4a13.49,13.49,0,0,1-2.05,4.67l.91.72.44-.9a22.88,22.88,0,0,0,1.51-3.94Zm6.84,2.46a11.83,11.83,0,0,0,1.89,1.65,10.84,10.84,0,0,0,2.36,1.35,3.33,3.33,0,0,1,.63-.87,10,10,0,0,1-2.51-1.27,7.67,7.67,0,0,1-1.56-1.4Zm-2.76-.55a6,6,0,0,1-1.45,1.43,9.07,9.07,0,0,1-2.28,1.26,2.86,2.86,0,0,1,.63.8A11.47,11.47,0,0,0,537,539.6Z"/><path class="i" d="M534.41,562.48c.33,0,.66,0,1,0v-.93a5.43,5.43,0,0,1-1,.06h-.85v-1.44a10.07,10.07,0,0,1,.08-1.55h-1.07a9.06,9.06,0,0,1,.07,1.56v1.43h-1.1a6.52,6.52,0,0,1-1.08-.06v.95a6.52,6.52,0,0,1,1.08-.06h1a18.42,18.42,0,0,1-.75,2.28,11.24,11.24,0,0,1-1.74,3,3.59,3.59,0,0,1,.59.9,10.6,10.6,0,0,0,1.08-1.8,15,15,0,0,0,1-2.91c0,1-.07,1.76-.07,2.41v4.17a12.68,12.68,0,0,1-.09,1.74h1.1a12.68,12.68,0,0,1-.09-1.74v-4.44c0-.69,0-1.61-.06-2.48a10.46,10.46,0,0,0,1.48,2.9,3.48,3.48,0,0,1,.54-.83,10.08,10.08,0,0,1-1.9-3.18Zm.81,9a6.53,6.53,0,0,1,.87-.13,53.21,53.21,0,0,0,6-.93c.23.49.29.67.56,1.35l.91-.48a32.09,32.09,0,0,0-2.64-4.94l-.82.4a28.62,28.62,0,0,1,1.62,2.85,39.14,39.14,0,0,1-4.3.65,60.59,60.59,0,0,0,2.24-6.79l-1.06-.29a42.07,42.07,0,0,1-2.21,7.19c-.33,0-.64,0-1,0a3,3,0,0,1-.42,0Zm4.85-12.07a17.92,17.92,0,0,0,3.06,5.65,4.62,4.62,0,0,1,.78-.75,9.88,9.88,0,0,1-1.65-2.25,13.26,13.26,0,0,1-1.28-3Zm-2.58-.33a11.77,11.77,0,0,1-2.39,5.37,3.47,3.47,0,0,1,.83.64,18.18,18.18,0,0,0,2.55-5.68Z"/><path class="i" d="M537.31,591h3.46v9.1c0,.28-.1.34-.64.34a14.07,14.07,0,0,1-1.83-.13,4.67,4.67,0,0,1,.18,1c.51,0,1.12.06,1.65.06,1.35,0,1.62-.2,1.62-1.19V591h.3a10.86,10.86,0,0,1,1.8.09V590a11.42,11.42,0,0,1-1.85.1h-4.69a9.72,9.72,0,0,1,.06-1.32,13.56,13.56,0,0,1-1.56.06h-3.38a13.22,13.22,0,0,1-1.54-.06c0,.51.07,1,.06,1.53V598a14.6,14.6,0,0,1-.11,2h1v-1.37h4.59v.87h1a14.52,14.52,0,0,1-.07-1.48Zm-5.46-1.31h1.8v3.47h-1.8Zm2.68,0h1.89v3.47h-1.89ZM531.85,594h1.8v3.78h-1.8Zm2.68,0h1.89v3.78h-1.89Z"/><g class="d"><g class="m"><g class="m"><path class="i" d="M496.73,11.38a8.51,8.51,0,0,0,.48-1.25l1.05.49a10.76,10.76,0,0,0-.64,1.17l-.3.66,2.87,1.33a15.35,15.35,0,0,0,1.44.59l-.43.92c-.4-.23-.79-.45-1.35-.71L497,13.24,495.67,16l4.22,2a14.45,14.45,0,0,0,1.49.6l-.44,1a14.56,14.56,0,0,0-1.41-.75l-9.1-4.22a12.49,12.49,0,0,0-1.47-.59l.45-1a13,13,0,0,0,1.41.75l4,1.84,1.28-2.74-2.74-1.27c-.56-.26-1-.43-1.43-.59l.43-.93a11.42,11.42,0,0,0,1.37.73L496.43,12Zm-1.3-7.09A13.39,13.39,0,0,0,494,3.71l.44-1a11.61,11.61,0,0,0,1.39.75l8.71,4a13.56,13.56,0,0,0,1.48.59l-.44.95a11,11,0,0,0-1.38-.74l-5-2.32a20.72,20.72,0,0,1-3.07,2.26c1.67.74,3.74,1.52,5.51,2.11a17.51,17.51,0,0,0-.89-2.17l.84-.17a22,22,0,0,1,1.73,4.72l-.94.25c-.19-.84-.28-1.16-.43-1.69-2.33-.75-5.37-1.88-7.51-2.81-.88-.37-1.34-.56-1.71-.68l.27-1a8.67,8.67,0,0,0,1,.5c.35.17.57.27,1.14.52a18.58,18.58,0,0,0,3.09-2.29Z"/></g></g></g><path class="i" d="M481,38.18a12.84,12.84,0,0,1-.8,1.51l1,.47a13.61,13.61,0,0,1,.65-1.59l.68-1.46,5.74,2.67-.77,1.66c-.16.34-.28.36-.82.11a12.82,12.82,0,0,1-1.66-.93,3.56,3.56,0,0,1-.2,1c.56.31,1.1.58,1.49.76a2.23,2.23,0,0,0,1.2.34,1.06,1.06,0,0,0,.78-.7l2.53-5.46c.33-.7.56-1.17.79-1.56a11.23,11.23,0,0,1-1.48-.61l-5-2.3a12.18,12.18,0,0,0,1.64-1.12l5.8,2.7a11.85,11.85,0,0,1,1.45.77l.45-1a12.36,12.36,0,0,1-1.52-.61l-5.42-2.52c.31-.27.47-.44.74-.71s.41-.43.62-.62l-.94-.59a7,7,0,0,1-1.31,1.51l-2.73-1.27a11.47,11.47,0,0,1-1.47-.78l-.46,1a16.15,16.15,0,0,1,1.55.62l2.36,1.1a11.83,11.83,0,0,1-2.57,1.5,13.39,13.39,0,0,1-3.75,1.07,2.21,2.21,0,0,1,.27,1A16.14,16.14,0,0,0,483.38,33Zm8.31-.62-.69,1.49-5.74-2.67.69-1.48Zm.34-.73-5.74-2.66.67-1.45,5.74,2.67Z"/><path class="i" d="M476,53.88c-.48-.22-.7-.34-1-.52a6.86,6.86,0,0,1-.44,1l-1.34,2.9a10,10,0,0,1-.53,1c.3.11.66.25,1,.43L476.42,60c.34.16.67.33.93.48a7.13,7.13,0,0,1,.45-1.07l1.34-2.88a6.68,6.68,0,0,1,.53-1c-.37-.14-.58-.22-1-.42l-1.36-.63c.49-.42.72-.61,1.16-1l-.81-.58a7.94,7.94,0,0,1-1.16,1.23Zm-.56.59,3,1.41-.64,1.39-3.05-1.41Zm-1,2.08,3,1.42-.66,1.43L473.84,58Zm3.88,7a10.79,10.79,0,0,1,1.5.8l.42-.9a11.31,11.31,0,0,1-1.58-.63L474.81,61l.06-.11a5,5,0,0,1,.48-.88l-1-.45a5.56,5.56,0,0,1-.36,1l0,.09-3.82-1.77a11.53,11.53,0,0,1-1.47-.79l-.41.89a11.57,11.57,0,0,1,1.56.63l3.41,1.58a13.16,13.16,0,0,1-6.65.36,3,3,0,0,1,.23,1.06,13.32,13.32,0,0,0,6.65-.75c-.18.32-.55,1-.65,1.27l-.34.74a12.41,12.41,0,0,1-.75,1.39l1,.46a10.82,10.82,0,0,1,.58-1.46l.34-.74c.09-.18.26-.59.32-.76.16-.38.16-.38.23-.57a13.24,13.24,0,0,0,3.92,5.71,3.58,3.58,0,0,1,1-.57,18.11,18.11,0,0,1-2.53-2.5,9.84,9.84,0,0,1-1.68-2.87ZM471.6,51.92a11.9,11.9,0,0,1,1.11,2.83l.9-.35a15.91,15.91,0,0,0-1.14-2.81Zm1.56,3.94a13.56,13.56,0,0,1-3.92.18l0,1a4.86,4.86,0,0,1,.6,0,23,23,0,0,0,3.2-.31Zm9.52.37a10.58,10.58,0,0,1-3.28,1.1l.29.85a15,15,0,0,0,3.38-1.08Zm-4.32,2.82a21.73,21.73,0,0,1,2.24,3.24l.82-.44a33.34,33.34,0,0,0-2.33-3.22Z"/><path class="i" d="M466.06,79.69l3.15,1.46-3.83,8.25c-.12.26-.24.27-.73,0a14,14,0,0,1-1.61-.89,4.61,4.61,0,0,1-.25,1c.44.26,1,.53,1.47.75,1.22.57,1.55.5,2-.39l3.86-8.32.27.12a11.59,11.59,0,0,1,1.6.84l.45-1a11.49,11.49,0,0,1-1.71-.68l-4.26-2a10.84,10.84,0,0,1,.61-1.17q-.74-.27-1.44-.6l-3.06-1.42a15,15,0,0,1-1.38-.71,14.47,14.47,0,0,1-.59,1.41l-3.23,7a13.93,13.93,0,0,1-.93,1.75l.9.42.58-1.24,4.16,1.93-.37.79.87.41c.17-.47.35-.93.56-1.38Zm-4.4-3.48,1.63.75-1.45,3.15-1.64-.76Zm2.44,1.13,1.71.79-1.46,3.15-1.71-.8Zm-4.24,2.76,1.63.76-1.59,3.42-1.64-.75Zm2.43,1.13L464,82l-1.59,3.43-1.71-.79Z"/><rect class="f" x="138.85" y="189.58" width="78.37" height="35.89"/><rect class="j" x="138.85" y="189.58" width="78.37" height="35.89"/><path class="k" d="M152.43,215.67h4a21.15,21.15,0,0,0,2.24-.12,4.09,4.09,0,0,0,1.57-.47,2.29,2.29,0,0,0,.94-1,4.29,4.29,0,0,0,.31-1.74,3.59,3.59,0,0,0-.35-1.67,2.37,2.37,0,0,0-1-1,4.61,4.61,0,0,0-1.54-.48,14.81,14.81,0,0,0-2-.12h-4.16Zm0-7.92h3.95a8.3,8.3,0,0,0,2.05-.2,3.59,3.59,0,0,0,1.33-.61,2.31,2.31,0,0,0,.73-1,4.11,4.11,0,0,0,.22-1.35,3.17,3.17,0,0,0-.26-1.32,2,2,0,0,0-.8-.87,4.05,4.05,0,0,0-1.43-.49,13.24,13.24,0,0,0-2.18-.15h-3.61ZM150.86,217V200.44h6a8.71,8.71,0,0,1,2.49.3,4.57,4.57,0,0,1,1.69.85,3.29,3.29,0,0,1,.95,1.32,4.47,4.47,0,0,1,.3,1.69,4.26,4.26,0,0,1-.23,1.51,3.1,3.1,0,0,1-.6,1.06,2.89,2.89,0,0,1-.84.67,3.59,3.59,0,0,1-1,.33v0a3.75,3.75,0,0,1,2.56,1.36,4.4,4.4,0,0,1,.84,2.76,5.32,5.32,0,0,1-.4,2.19,3.75,3.75,0,0,1-1.12,1.44,4.34,4.34,0,0,1-1.71.8,9.34,9.34,0,0,1-2.18.24Z"/><g class="q"><g class="m"><g class="m"><path class="k" d="M175.34,201.13a8.09,8.09,0,0,0-.14-1.82h1.62a9.07,9.07,0,0,0-.14,1.82v5.06h5.26v-3.78a10.89,10.89,0,0,0-.08-1.46h1.5a9.86,9.86,0,0,0-.1,1.52v4c0,.4,0,.68,0,1-.4,0-.86,0-1.24,0h-5.38v7.32h6V211a10.61,10.61,0,0,0-.1-1.72h1.52A11.11,11.11,0,0,0,184,211v4.52a10,10,0,0,0,.12,1.68h-1.44V216h-13v1.2H168.2a10.51,10.51,0,0,0,.12-1.68v-4.4a11.11,11.11,0,0,0-.1-1.78h1.52a10.05,10.05,0,0,0-.1,1.7v3.7h5.7v-7.32h-5c-.36,0-.82,0-1.24,0,0-.38,0-.68,0-1v-4A14.18,14.18,0,0,0,169,201h1.5a10.27,10.27,0,0,0-.08,1.48v3.76h4.88Z"/><path class="k" d="M187.76,216.51a16.14,16.14,0,0,0,.14-2.3V203.13a16.55,16.55,0,0,0-.1-2.12,16.69,16.69,0,0,0,2.14.1h10.52a17,17,0,0,0,2.16-.1,15.81,15.81,0,0,0-.1,2.12v11.08a16,16,0,0,0,.14,2.3h-1.5v-1.6h-11.9v1.6Zm1.5-2.84h11.9V202.35h-11.9Z"/></g></g></g><path class="r" d="M150.51,123.23l11.35-11.34h34v60.77L184.55,184h-34Z"/><g class="s"><g class="t"><g class="u"><path d="M184.55,123.23l11.35-11.34v60.77L184.55,184Z"/></g></g></g><g class="v"><g class="t"><g class="w"><path class="f" d="M150.51,123.23l11.35-11.34h34l-11.34,11.35Z"/></g></g></g><path class="k" d="M281,179a21.17,21.17,0,0,1-.2-3.28V163.11A37.94,37.94,0,0,1,281,159a16.76,16.76,0,0,1-2.55.13h-2.3a14.92,14.92,0,0,1-2.5-.15v3.17a22,22,0,0,1,2.57-.15h1.2v13.75a20,20,0,0,1-.2,3.28Z"/><path class="k" d="M290.18,178.44h2.9v-7.93h6.8v-2.42h-6.8v-5.63h8V160h-10.9Z"/><path class="k" d="M311.31,161.16c.05.65.05,1.52.05,2.17v12.28c0,1-.05,3-.07,3.22H314c0-.12,0-.72,0-1.4h12.95c0,.7,0,1.28-.05,1.4h2.72c0-.2-.05-2.35-.05-3.22V163.33c0-.7,0-1.47.05-2.15-.82,0-1.72,0-2.3,0H313.74C313.11,161.21,312.31,161.21,311.31,161.16Zm2.65,2.55h13v11.22H314Zm21.35,3.7v3.1c.85-.08,2.35-.13,3.73-.13h13.6c1.1,0,2.25.1,2.8.13v-3.1c-.63.05-1.6.15-2.8.15H339C337.69,167.56,336.14,167.46,335.31,167.41Zm28.95,10,2.35,2a21.35,21.35,0,0,0,8.8-7.7,25.47,25.47,0,0,0,3.43-8.87c.12-.55.37-1.58.6-2.38l-3.15-.42a15.53,15.53,0,0,1-.25,2.45,21.08,21.08,0,0,1-3.05,7.9A19.16,19.16,0,0,1,364.26,177.41Zm-1.07-17.15-2.53,1.3a57.4,57.4,0,0,1,4.2,7.35l2.58-1.45C366.54,165.78,364.34,162,363.19,160.26Zm25.52-.33-1.82,1.95a55.4,55.4,0,0,1,6.25,5.3l2-2A52.71,52.71,0,0,0,388.71,159.93Zm-2.57,16.73,1.67,2.57a27.56,27.56,0,0,0,9.58-3.72,25.6,25.6,0,0,0,8.77-9l-1.52-2.73a23.82,23.82,0,0,1-8.68,9.43A26,26,0,0,1,386.14,176.66Z"/><g class="d"><path class="x" d="M419.36,379.16c-2.31-51.67-3.45-111.91-1.24-159.1C425,75.81,479.06-28.63,541.85-46.54"/></g><path class="f" d="M343.73,130.5a6.94,6.94,0,0,0,2-.26,4.52,4.52,0,0,0,2.32-1.83,7.55,7.55,0,0,0,1-2.78,10.8,10.8,0,0,0,.19-1.88,8.75,8.75,0,0,0-1.33-5.18,4.87,4.87,0,0,0-4.26-1.84H339.4V130.5ZM337,114.64h7.26a6.89,6.89,0,0,1,5.74,2.62,9.62,9.62,0,0,1,1.81,6.07,12.06,12.06,0,0,1-1.07,5.16,6.63,6.63,0,0,1-6.51,4.08H337Z"/><path class="f" d="M364.74,125.22,362,117.3l-2.89,7.92Zm-4-10.58h2.75L370,132.57h-2.67l-1.81-5.37h-7.09l-1.95,5.37H354Z"/><path class="f" d="M369.53,114.64h2.83l5.16,8.62,5.15-8.62h2.84l-6.78,10.7v7.23H376.3v-7.23Z"/><path class="i" d="M1.43,182.21,19,189.59l5.4-12.89-23-9.64Z"/><path class="k" d="M327,226.66l-1.37-1a6.24,6.24,0,0,1-1.83.21H316a22,22,0,0,1-2.29-.15v2.38c.34,0,1.47-.12,2.29-.12h7.71a17.2,17.2,0,0,1-3.34,5.53,23.54,23.54,0,0,1-8.63,6.16l1.7,1.78a27.45,27.45,0,0,0,8.09-6.05,46.92,46.92,0,0,1,5.56,6.14l1.85-1.64a55.41,55.41,0,0,0-6-6.15,28.77,28.77,0,0,0,3.45-6A6.88,6.88,0,0,1,327,226.66Z"/><path class="k" d="M333.77,231.43V234c.71-.07,2-.1,3.13-.1h11.42c.92,0,1.89.08,2.35.1v-2.6c-.52,0-1.34.12-2.35.12H336.9C335.76,231.55,334.46,231.47,333.77,231.43ZM362,224.75l-2,.69a51.14,51.14,0,0,1,2.1,5.61l2.08-.74A58.47,58.47,0,0,0,362,224.75Zm9.45,1.49-2.45-.69a19,19,0,0,1-3.32,8.71,16.79,16.79,0,0,1-8.25,5.5l1.82,1.85a18.45,18.45,0,0,0,8.25-6.09,23.2,23.2,0,0,0,3.51-7.9,11.07,11.07,0,0,1,.44-1.38ZM356.19,226l-2.1.75a57.57,57.57,0,0,1,2.37,5.84l2.13-.77c-.51-1.41-1.81-4.58-2.4-5.82Zm28-1.89h-2.45a13.66,13.66,0,0,1,.15,1.8c0,.72,0,1.39-.07,2h-3.38c-.82,0-1.76-.06-2.56-.13V230c.8-.06,1.78-.09,2.56-.09h3.2c-.53,3.8-1.81,6.35-3.84,8.26a11.61,11.61,0,0,1-2.42,1.76l1.93,1.58c3.61-2.54,5.69-5.76,6.47-11.6h5.37c0,2.27-.27,7-1,8.49a1.1,1.1,0,0,1-1.2.71,24,24,0,0,1-3-.25l.26,2.21c1.07.08,2.29.14,3.42.14A2.33,2.33,0,0,0,390,239.8c.92-2.05,1.2-8.06,1.26-10.18,0-.25.08-.71.15-1.07l-1.47-.72a8.88,8.88,0,0,1-1.45.13H384c0-.65.08-1.34.1-2.06,0-.5.07-1.28.11-1.76Z"/><path class="k" d="M399.67,225.15l-1.54,1.63a44.66,44.66,0,0,1,5.25,4.46l1.66-1.7A43.4,43.4,0,0,0,399.67,225.15Zm-2.17,14,1.41,2.17a23.12,23.12,0,0,0,8-3.13,21.38,21.38,0,0,0,7.37-7.6L413,228.34a20.11,20.11,0,0,1-7.28,7.92A22,22,0,0,1,397.5,239.19Z"/><path class="k" d="M431.67,225.94a1.33,1.33,0,0,1,1.3-1.32,1.35,1.35,0,0,1,1.32,1.32,1.31,1.31,0,0,1-1.32,1.3A1.3,1.3,0,0,1,431.67,225.94Zm-1.12,0a2.43,2.43,0,0,0,4.86,0v0a2.43,2.43,0,1,0-4.85,0Zm-11.15,8.45a26.74,26.74,0,0,1-3.25,5.75l2.29,1a30.34,30.34,0,0,0,3.08-5.86,44.2,44.2,0,0,0,1.85-6.47c.1-.46.3-1.26.44-1.79l-2.37-.48A31.64,31.64,0,0,1,419.4,234.39Zm10.36-.65a74.38,74.38,0,0,1,2.29,7.3l2.39-.77c-.57-2-1.68-5.25-2.48-7.27a71.32,71.32,0,0,0-3.09-6.74l-2.16.71A56.28,56.28,0,0,1,429.76,233.74Z"/><path class="k" d="M444.62,226.87v2.39c.67,0,1.49-.06,2.25-.06h8.84c.71,0,1.6,0,2.18.06v-2.39c-.72.07-1.45.1-2.18.1h-8.86C446.16,227,445.32,226.93,444.62,226.87Zm-1.8,10.33v2.54c.75-.06,1.61-.1,2.39-.1h12.35c.59,0,1.41,0,2.1.1V237.2a18.5,18.5,0,0,1-2.1.13H445.21C444.43,237.33,443.59,237.26,442.82,237.2Z"/><path class="k" d="M467.87,231.43V234c.71-.07,2-.1,3.13-.1h11.42c.92,0,1.89.08,2.35.1v-2.6c-.52,0-1.34.12-2.35.12H471C469.86,231.55,468.56,231.47,467.87,231.43Z"/></g><path class="k" d="M201,93.26H529v48.91H224.25l-9.65,5.52v-5.52H201Z"/><g class="m"><g class="m"><path class="f" d="M225.75,120.53c6.91,1.4,4.34,6.32,1.82,4.39a8.38,8.38,0,0,0-1.93-4.06v8.91c0,.28-1.4.86-2.58.86h-.56v-6.55a21.32,21.32,0,0,1-5,4.23l-.3-.36a22.47,22.47,0,0,0,4.56-8.29h-4l-.22-.81h4.93v-3.14l4,.36c0,.34-.25.62-.86.7v2.08h1.42l1.46-1.94s1.62,1.35,2.58,2.3c-.09.31-.34.45-.73.45h-4.73v1Zm14.95-8.68s2,1.65,3.19,2.8c-.06.3-.36.44-.75.44h-2.33v14.62a3.32,3.32,0,0,1-2.66.9h-.59V115.09H234.9v1c0,5.07-.56,10.84-7.11,14.51l-.31-.31c3.81-4,4.26-9.1,4.26-14.25v-1.12a.72.72,0,0,1-.73.36H217.49l-.23-.81h7.45A47.69,47.69,0,0,0,226,109h-8l-.22-.78h4.82v-3.78l4.19.33c0,.39-.25.65-1,.76v2.69h1l1.43-2s1.68,1.37,2.69,2.32c-.08.31-.36.45-.75.45h-3.87l3.53,1.09c-.11.34-.45.56-1,.51a35.76,35.76,0,0,1-3.36,3.89h2.1l1.54-2.07s1.68,1.4,2.72,2.4v-8.17l3.27,1a28.11,28.11,0,0,0,4.93-3.33l3.42,2.75c-.31.28-.87.33-1.71.08a38.3,38.3,0,0,1-6.75,1.43v5.68h4ZM220,109c5.76,2.58,2.77,6.89.67,4.7a12.46,12.46,0,0,0-1-4.56Z"/><path class="f" d="M268.76,117.78v-.84H265v.45a3.64,3.64,0,0,1-2.46.81h-.39v-4.48a21.32,21.32,0,0,1-3.2,1.63,2.2,2.2,0,0,1,.4,2.57l2.8,1.15h9.38l1.37-1.57,3.05,2.3a2,2,0,0,1-1.15.56v7c0,1.88-.44,2.92-3.61,3.2a3.49,3.49,0,0,0-.45-1.85,2.69,2.69,0,0,0-1.82-.84v-.39s1.88.11,2.38.11.51-.17.51-.48v-7.31H262v9.75c0,.28-1.26,1-2.49,1H259V118.26a1.42,1.42,0,0,1-2-.25,9.78,9.78,0,0,0-1-3.92v15.65c0,.28-1.29.89-2.46.89H253V119.85a20.77,20.77,0,0,1-3.25,4.18l-.36-.31c1.82-3.22,2.8-7.48,3.33-11.62h-3l-.22-.81H253v-6.86l4.12.39c-.06.42-.28.7-1,.81v5.66h.17l1.4-2.08s.73.68,1.48,1.43l-.22-.78H263a9.88,9.88,0,0,0,.73-1.91c-1.54.06-3.11.09-4.59.09l-.06-.45a62,62,0,0,0,11.79-3.19l2.83,2.88c-.31.25-.9.25-1.71-.08-1.29.19-2.86.36-4.54.5a11,11,0,0,1-1.17,2.16h4.9l1.62-1.93s1.79,1.31,2.91,2.29c-.08.31-.36.42-.78.42h-5.21a13.53,13.53,0,0,0,6.36,2.13v.31a3.19,3.19,0,0,0-2.1,2.77,9.78,9.78,0,0,1-2.24-1.34V117a4.27,4.27,0,0,1-2.44.75Zm-12.69-4.42a7.48,7.48,0,0,1,2.61,1.65,13.93,13.93,0,0,0,3.86-4.37h-3.42c.34.34.7.7,1,1-.05.31-.33.45-.72.45h-3.31Zm14.25,12.79a2.93,2.93,0,0,1-2,.82h-.4v-1h-2.15v.84a2.89,2.89,0,0,1-2,.73h-.34v-7.09l2.44,1h1.85l1.09-1.12,2.27,1.71a1.25,1.25,0,0,1-.79.39Zm-4.67-15.51a15.11,15.11,0,0,1-1.57,1.63l1,.42h3.44l.81-.82c-.22-.39-.45-.81-.64-1.23Zm3.11,5.49V113.5H265v2.63Zm-.82,9v-2.89h-2.15v2.89Z"/></g><g class="m"><path class="f" d="M291.13,107.37c6.52,0,10.5,3.86,10.5,10.36s-4.29,10.41-11,10.41h-8.51v-1l2.66-.25c.06-2.77.06-5.66.06-8.82v-.92c0-2.89,0-5.72-.06-8.54l-2.66-.26v-1Zm-.62,19.68c4.48,0,7-3.44,7-9.3,0-6-2.52-9.29-6.8-9.29H288.8c-.08,2.83-.08,5.74-.08,8.71v.92c0,3.19,0,6.1.08,9Z"/><path class="f" d="M326,127.16v1h-9v-1l2.72-.31-1.76-5.43h-6.7l-1.65,5.41,2.75.33v1h-6.56v-1l2.41-.33,6.39-19.55h2.43l6.69,19.63Zm-8.43-6.77-3.08-9.61-3,9.61Z"/><path class="f" d="M339.48,119.46c0,3.45,0,5.32.06,7.45l3,.25v1h-10v-1l3-.25c0-2,0-3.78,0-6.92L330,108.57l-1.84-.2v-1h9.18v1l-2.86.31,4.43,9.61,4.39-9.55-2.77-.37v-1h6.72v1l-2.46.37Z"/></g><g class="m"><path class="f" d="M369.25,110.19c.7-.22,1.17-.89,1.79-.89.84,0,3.7,1.48,3.7,2.63,0,.78-1.1,1.06-1.6,1.9a34.09,34.09,0,0,1-19,16l-.34-.53c7.11-3.81,13.61-10.89,16-16.75.14-.39,0-.53-.33-.53a20.2,20.2,0,0,0-3.42.7,4.76,4.76,0,0,1-1.57.37,2.54,2.54,0,0,1-1.28-.68,25.92,25.92,0,0,1-9.3,7.31l-.37-.5c4.54-3.73,8.21-9.27,8.21-11.06,0-.53-.67-1.21-1.57-1.68l.08-.39a6,6,0,0,1,2-.17c1.85.08,4,1.26,4,2s-.36.73-.84,1.45c-.31.54-.67,1-1,1.57A27.88,27.88,0,0,0,369.25,110.19Z"/><path class="f" d="M383.13,108.68v-.45a5.66,5.66,0,0,1,2.24-.64c1.24,0,3.81,1.4,3.81,2.41,0,.73-.61,1.15-.67,2.29s-.06,6.14-.06,8c0,1.48-.55,2.1-1.51,2.1s-1.82-1.4-1.82-3.05a26.83,26.83,0,0,0,.39-3.45c0-1.37,0-4.34-.16-5.48a1.13,1.13,0,0,0-.62-1A9,9,0,0,0,383.13,108.68Zm3.42,21.37-.31-.51c5.32-2.91,8.12-6.58,8.54-12.12a60.86,60.86,0,0,0,.06-7.48c0-.64-.09-1-.62-1.26a6.48,6.48,0,0,0-1.68-.64l0-.45a5.7,5.7,0,0,1,2.64-1.2c1.17,0,3.67,1.4,3.67,2.24s-.57,1-.62,1.87c-.08,1.63-.25,5.21-.34,6.92C397.47,124.11,393.47,128.06,386.55,130.05Z"/><path class="f" d="M408.64,121l.42-.16a3.71,3.71,0,0,0,2.69,1.28c1.82,0,10.67-1,14.56-1.26a20.9,20.9,0,0,0,2.44-.5c1.45,0,4.23,1.76,4.23,2.91a1.28,1.28,0,0,1-1.32,1.35c-1.09,0-3.39-1-7.45-1a39.48,39.48,0,0,0-9,1.1,17.65,17.65,0,0,1-3.14.84c-1.12,0-2.74-1.82-3.11-2.69A4.44,4.44,0,0,1,408.64,121Zm18.54-7.14c-3.58.31-10,1.18-11.26,1.18a3.7,3.7,0,0,1-2.4-1.79,7,7,0,0,1-.84-2.13l.39-.22a4.79,4.79,0,0,0,3.11,1.34,34,34,0,0,0,5.54-.62,15.68,15.68,0,0,0,3-1.09c1.57,0,3.83,1,3.83,2A1.31,1.31,0,0,1,427.18,113.83Z"/><path class="f" d="M438.86,115.26l.28-.31a9.74,9.74,0,0,1,2.15,1,4.21,4.21,0,0,1,2.55,3.5,1.35,1.35,0,0,1-1.48,1.43c-1.24,0-1.29-1.37-2-2.91A10.76,10.76,0,0,0,438.86,115.26Zm1.59,14.39-.25-.42c6.83-3.36,12.21-11.11,12.21-14,0-.53-.56-1-1.37-1.4l0-.33a8.74,8.74,0,0,1,1.6-.2c1.43,0,3.3,1.71,3.3,2.8,0,.56-.72,1.07-1,1.71A22.58,22.58,0,0,1,440.45,129.65Zm3.28-16,.25-.31a9.9,9.9,0,0,1,2.35,1,3.84,3.84,0,0,1,2.19,3.33,1.42,1.42,0,0,1-1.46,1.46c-1.32,0-1.18-1.24-1.85-2.89A11.26,11.26,0,0,0,443.73,113.67Z"/><path class="f" d="M478.62,110.19c.7-.22,1.17-.89,1.79-.89.84,0,3.69,1.48,3.69,2.63,0,.78-1.09,1.06-1.59,1.9a34.09,34.09,0,0,1-19,16l-.34-.53c7.11-3.81,13.61-10.89,16-16.75.14-.39,0-.53-.33-.53a20.2,20.2,0,0,0-3.42.7,4.82,4.82,0,0,1-1.57.37,2.6,2.6,0,0,1-1.29-.68,25.8,25.8,0,0,1-9.29,7.31l-.36-.5c4.53-3.73,8.2-9.27,8.2-11.06,0-.53-.67-1.21-1.57-1.68l.08-.39a6,6,0,0,1,2-.17c1.85.08,4,1.26,4,2s-.37.73-.84,1.45c-.31.54-.67,1-1,1.57A27.88,27.88,0,0,0,478.62,110.19Z"/></g></g></g></svg>