<?xml version="1.0" encoding="UTF-8"?><svg id="b" xmlns="http://www.w3.org/2000/svg" width="374.23" height="245.59" xmlns:xlink="http://www.w3.org/1999/xlink" viewBox="0 0 374.23 245.59"><defs><style>.e{fill:none;}.f,.g{fill:#5d3b0d;}.g{fill-rule:evenodd;}.h{clip-path:url(#d);}</style><clipPath id="d"><rect class="e" x="112.36" width="151.92" height="178.67"/></clipPath></defs><g id="c"><g><g class="h"><path class="g" d="M247.04,76.22c-.87-.08-1.78-.33-2.61-.18-2.06,.36-4.13,.8-5.94,1.93-1.14,.72-2.4,.98-3.68,1.15-1.05-1.72-1.88-3.54-3.48-4.69-1.64-1.18-3.3-2.43-5.51-2.38-.39,0-.81-.17-1.18-.34-.77-.35-1.49-.79-2.26-1.14-1.14-.52-2.28-.61-3.49-.06-1.23,.56-2.44,.6-3.73-.17-1.14-.68-2.48-.81-3.64-.38-.8-.45-1.46-.83-2.14-1.21-.88,1.14-1.7,2.1-2.39,3.14-.61,.93-1.56,1.22-2.49,1.52-.68,.22-1.3,.03-1.83-.58-.51-.58-1.13-1.08-1.74-1.58-1.29-1.03-2.93-.81-3.76,.59-.56,.94-.95,1.97-1.34,2.99-.3,.76-.48,1.57-.85,2.33-.46-2.27-.68-4.42,.49-6.64,2.06-3.94,4.84-7.08,8.84-9.08,4.59-2.31,9.2-4.59,13.8-6.88,1.92-.95,3.95-1.72,5.77-2.85,2.35-1.46,4.68-3.04,6.77-4.86,1.55-1.36,2.81-3.13,4.02-4.84,2.33-3.33,4.93-6.37,8.33-8.67,.86-.58,1.62-1.34,2.39-2.05,2.01-1.85,4.01-3.71,5.97-5.59,.68-.65,1.26-1.41,1.94-2.05,.76-.73,1.57-1.38,2.37-2.05,.57-.48,1.06-.93,1.02-1.82-.02-.37,.33-.84,.64-1.14,.61-.59,1.18-1.15,1.32-2.07,.05-.38,.46-.7,.71-1.05,.12,.06,.24,.13,.35,.2,.09,1.2-.49,2.15-1.2,3.15-.92,1.32-1.81,2.71-2.42,4.2-.76,1.83-.26,2.55,1.65,2.97,.45,1.55,.17,2.28-1.24,2.84-1.26,.5-1.77,1.65-2.23,2.71-.33,.78,.23,1.53,.95,1.97,1.23,.78,2.49,1.52,3.66,2.23-.71,2.15-1.41,4.33-2.17,6.49-.15,.42-.44,.9-.8,1.13-2.15,1.33-2.46,3.53-2.73,5.72-.16,1.23-.04,2.42-.91,3.56-.48,.64-.24,1.82-.37,3.09-.27,.14-.72,.41-1.21,.57-.37,.13-.85,.25-1.16,.11-1.21-.54-2.11-.11-2.73,.85-.59,.91-1.4,1.34-2.35,1.7-.94,.36-1.74,.91-2.34,1.78-1.18,1.73-.56,3.42,.08,5.08,.3,.77,.76,1.48,1.19,2.3,.6,.25,1.31,.67,2.06,.8,.73,.14,1.52-.03,2.24-.06-.27,1.32-.78,2.54-.7,3.72,.09,1.2,.77,2.35,1.24,3.71-.5-.07-.83-.14-1.16-.16Zm-11.8,19.35c-1.26,.83-1.6,.92-2.3-.04-.88-1.2-2.08-1.55-3.39-1.71-1.97-.26-3.53-1.1-4.81-2.67-.64-.77-1.71-1.18-2.56-1.77-.82-.56-1.75-1.03-2.38-1.76-1.89-2.19-4.38-2.93-7.08-3.25-.36-.04-.79,.1-1.09-.05-1.53-.74-3.18-.43-4.77-.61-.79-.09-1.62,.1-2.44,.16-.04-.15-.09-.3-.13-.45,.42-.11,.83-.31,1.26-.33,.88-.06,1.78,.07,2.65-.03,.59-.07,1.2-.33,1.72-.64,1.07-.65,2.08-1.4,3.14-2.08,.35-.22,.76-.48,1.15-.49,2.73-.07,5.44-.15,7.96,1.28,1.48,.84,2.68,1.85,3.32,3.42,1.16,2.8,3.35,4.64,5.74,6.3,.85,.6,1.71,1.21,2.55,1.84,.96,.72,1.07,1.88,1.46,2.88Zm-25.77-6.4c.4,.33,.82,.7,1.05,1.15,.69,1.35,1.74,2.13,3.23,2.48,.71,.18,1.34,.71,1.98,1.13,.6,.39,1.19,.61,1.92,.49,.22-.04,.64,.2,.72,.41,.09,.22,0,.68-.18,.83-.4,.32-.88,.56-1.35,.74-1.05,.4-1.73,1.12-1.65,2.23,.09,1.14,.29,2.29,.69,3.36,.4,1.07,.56,2.1,.51,3.23-.07,1.45-.01,2.92-.03,4.38-.03,1.56-.53,2.93-1.69,4.46-.07-1.46-.13-2.54-.18-3.62-.01-.27,.01-.53-.06-.78-1.13-4.08-2.23-8.19-4.88-11.64-1.63-2.13-3.53-3.96-6.07-5.05-2.46-1.05-4.58-2.54-5.8-5.08-.67-1.41-1.51-2.74-2.42-4.38,2.24-.05,4.03,.42,5.69,1.18,1.64,.76,3.22,1.25,4.99,.58,.14-.05,.31,.01,.55,.02,.15,.3,.33,.61,.45,.95,.46,1.3,1.55,2.06,2.53,2.91Zm.35,31.76c-.8,.74-1.44,1.65-2.19,2.45-.26,.28-.63,.47-1.19,.88,.15-.71,.19-1.1,.31-1.46,.71-2.2,1.34-4.42,2.64-6.4,.37-.57,.47-1.38,.52-2.1,.08-1.39-.21-1.65-1.59-2.03-.42-.11-.95-.37-1.11-.71-.52-1.07-1.43-1.3-2.44-1.44-1.77-.24-2.27-.76-2.34-2.51-.06-1.41-.08-2.79,.66-4.13,.39-.69,.48-1.66,.37-2.44-.08-.58-.61-1.18-1.09-1.63-.89-.81-1.89-1.48-2.81-2.24-1.18-.97-2.11-.99-3.36-.03-.25,.19-.48,.41-.74,.58-.98,.68-1.16,.62-1.94-.7,.47-.47,.91-.85,1.28-1.29,.26-.31,.52-.68,.62-1.07,.38-1.48-.06-2.29-1.57-2.72-.69-.2-1.45-.14-2.17-.28-.38-.07-1.01-.28-1.03-.47-.13-1.3-.89-2.6,.14-3.91,.6-.77,.94-1.74,1.45-2.59,.26-.42,.63-.77,.97-1.2,.33,1.08,.44,2.08,.92,2.86,1.29,2.04,2.59,4.08,4.15,5.91,.93,1.08,2.25,1.93,3.56,2.54,3.35,1.58,5.63,4.11,7.26,7.35,.54,1.08,1.15,2.13,1.62,3.23,.47,1.1,1.01,2.23,1.19,3.4,.33,2.22,.83,4.45,.52,6.71-.28,2.08-.98,3.95-2.56,5.44Zm-19.02-37.43c.54-1.66,1.08-3.32,1.61-4.97,.1,.04,.22,.07,.32,.1,.2,1.89-.56,3.47-1.57,4.99-.13-.04-.24-.08-.36-.12Zm4.58-27.35c.05-1.21,.08-2.41,0-3.61-.08-1.34,.6-2.34,1.36-3.27,.94-1.16,1.52-2.48,2.17-3.81,1.36-2.77,2.03-5.7,2.54-8.72,.31-1.82,1.16-3.28,3.24-3.81,1.7-.43,3.31-1.24,4.96-1.89,.2-.07,.41-.2,.6-.17,1.33,.18,2.06-.72,2.95-1.46,.97-.79,2.12-1.35,3.18-2.04,1.02-.65,1.8-1.43,1.54-2.82-.38-2,1.05-2.89,2.61-3.91-.05,.49-.08,.88-.1,1.26-.1,1.31,.27,1.96,1.51,2.44,2.11,.81,4.2,1.2,6.55,.8,4.71-.8,8.9-2.71,12.91-5.17,1.09-.67,1.12-.73,1.99,.17,.49,.51,1.01,.58,1.67,.64,1.19,.1,2.44,.22,3.52,.68,1.12,.48,2.09,.49,3.17,.1,.49-.18,1.01-.26,1.79-.45-4.88,5.64-10.35,10.25-15.98,14.74,1.69-4.41,4.33-8.28,6.92-12.14-.56-.59-1.06-.54-1.48-.13-.48,.46-.98,.96-1.31,1.54-1.6,2.78-3.2,5.56-4.67,8.4-.59,1.16-.89,2.46-1.31,3.71-.15,.45-.17,.97-.42,1.34-1.41,2.08-2.81,4.16-4.34,6.15-.66,.84-1.62,1.45-2.48,2.15-.66,.53-1.39,.95-2.01,1.53-2.09,1.92-4.75,2.77-7.35,4.02-1.14-2.24-1.95-4.51-2.05-6.94-.16-3.6,.41-7.13,1.47-10.57,.6-1.95,1.39-3.85,2.04-5.79,.11-.34,0-.76,0-1.15-.39,.09-.86,.05-1.12,.28-.39,.32-.72,.78-.91,1.26-1.94,4.81-3.2,9.79-3.2,15.02,0,3.01,.65,4.86,2.51,8.34-.6,.27-1.19,.59-1.8,.82-1.69,.58-3.38,1.16-5.08,1.69-1.84,.57-3.31,1.78-4.91,2.77-.89,.55-1.81,1.06-2.72,1.56-.96,.54-1.95,1.02-2.89,1.59-.52,.31-1.17,.58-1.04,1.41,.02,.13-.11,.29-.21,.41-1.57,1.94-3.15,3.88-4.91,6.04,.22-1.43,.48-2.58,.56-3.77,.21-3.08,.36-6.17,.51-9.26Zm-3.47,15.99c-.16,.63-.34,1.1-.94,1.53-1.23,.87-2.2,3-2.23,4.64,.35-.27,.61-.45,.86-.66,.27-.23,.52-.51,1.03-1.02-.09,2.37-.8,4.15-1.32,5.97-.14,.02-.28,.02-.41,.04-.21-.44-.49-.86-.62-1.32-1.5-4.97-2.05-10.06-2.03-15.26,0-2.41-.07-4.82,.2-7.23,.08-.78,.21-1.55,.34-2.41,1.27-.04,1.94-.67,2.55-1.72,.89-1.52,2.12-2.84,3.45-4.56,.28,1.52,.48,2.64,.68,3.76-2.18,.74-3.15,2.56-4.43,4.05-.55,.64,.01,1.15,.35,1.61-.31,1.06-1.32,1.77-1.19,2.97,.86,.32,1.3-.1,1.68-.73,.69-1.12,1.38-2.24,2.12-3.32,.31-.45,.74-.84,1.27-1.42,.07,.5,.14,.74,.14,.98-.17,4.72-.41,9.45-1.49,14.08Zm-6.13,13.66c-1.64,1.92-3.35,3.76-5.02,5.65-.62,.7-1.2,1.44-1.89,2.25-.73-1.55-1.92-1.28-3.29-.95-2.18,.52-3.58,1.85-4.47,4.05-.97-1.23-1.18-2.53-1.72-3.67-.56-1.18-1.14-2.36-1.74-3.61,.2-.18,.39-.44,.64-.58,1-.56,1.28-1.44,1.27-2.52,0-.81-.19-1.48-.98-1.81-1.61-.65-1.82-2.24-2.35-3.55-.43-1.06,1.51-3.34,2.64-3.39,.73-.03,1.27,.24,1.44,.95,.22,.96,.6,1.64,1.58,2.14,.54,.27,.94,1.32,.92,2.01-.02,.84,.48,1.22,.89,1.67,.42,.46,.85,.24,1.2-.41,.22-.38,.52-.71,.88-1.2,.4,.55,.67,.92,.94,1.29,.72,.98,1.74,1.05,2.7,.34,1.55-1.17,2.2-2.69,2.13-4.61-.02-.78,.12-1.56,.18-2.32,2.04-.87,3.02,.26,3.22,3.39,.56,.61,1.07,1.04,1.4,1.57,.76,1.23,.24,2.35-.56,3.31Zm-15.93,45.18c.89,1.38,.91,3.45,.08,5.01-1.09-1.76-.56-3.28-.08-5.01Zm-3.49,26.76c.56,1.82,.11,3.45-.71,5.06-.13,.26-.24,.63-.15,.88,.91,2.68,.56,5.48,.8,8.23,.09,1.1,.1,2.18,.15,3.28-1.36-.02-1.78-.32-2.13-1.36-.53-1.58-.38-3.21-.29-4.83,.16-2.93,.33-5.86,.47-8.79,.15-2.94,.29-5.86,.41-8.79,.11-2.83,.17-5.66,.31-8.49,.1-2.03,.27-4.08,.45-6.11,.04-.47,.25-.94,.39-1.41,.18,0,.36,0,.54,.01,.14,.53,.35,1.05,.38,1.59,.06,1.82,.08,3.65,.04,5.48-.06,2.34-.41,4.67-.15,7.01,.03,.26-.13,.64-.34,.81-.68,.55-.71,1.2-.51,1.98,.28,1.04,.67,2.01,.05,3.18-.3,.55,.07,1.53,.3,2.27Zm3.08-6.14c.72,.96,.72,1.31,.02,2.65-.41-.94-.31-1.76-.02-2.65Zm0,6.89c.05,.47,.09,.95,.17,1.64q-.88-.68-.17-1.64Zm-2.48-29.61c.75,1.16,.44,2.39,.3,3.58-.02,.21-.46,.37-.94,.72-.02-1.68-.35-3.05,.64-4.3Zm1.62-11.97c-.04-.36-.07-.72-.11-1.08,.16-.02,.32-.04,.48-.06,.02,.37,.04,.73,.06,1.09-.15,.02-.29,.03-.43,.05Zm1.28-16.13c.59-.21,1.11-.39,1.61-.58,.78,1.24,.79,3.13-.14,4.94-.56-1.64-1-2.95-1.47-4.35Zm-.66,6.05q-.18-1.28,.41-2.16c.52,1.02-.55,1.44-.41,2.16Zm-.25-8.16c-1.28-1.98-2.55-3.97-3.8-5.97-.21-.33-.51-.8-.42-1.11,.26-.95-.21-1.36-.94-1.72-.32-.16-.59-.42-.98-.7,.6-.86,.27-1.58-.35-2.22-.91-.94-1.76-1.87-3.06-2.39-1.14-.45-1.61-1.63-2.05-2.92,.46-.02,.78-.11,1.04-.02,1.89,.62,3.22-.48,4.56-1.48,.65-.48,1.21-1.11,1.82-1.67l.31,.19c-.27,.58-.52,1.15-.8,1.72-.36,.77-.74,1.55,.09,2.28,.11,.09,.15,.27,.2,.42,.47,1.28,.97,2.54,2.7,2.93-.46,.49-.76,.83-1.08,1.15-.69,.65-1.03,1.46-1.07,2.38-.02,.34,.08,.78,.31,.99,2.07,1.92,2.75,4.54,3.6,7.07,.12,.34,.17,.7,.25,1.06-.15,.02-.3,.06-.32,.02Zm-9.4,9.91c-2.49,.64-3.96,2.41-5.14,4.52-.87,1.55-1.7,3.13-2.52,4.71-.29,.55-.64,.94-1.29,1.03-.77,.11-1.54,.36-2.31,.35-1.09,0-1.48-.52-1.45-1.6,0-.16,.04-.32,.03-.47-.06-.44-.14-.88-.21-1.32-.54,.12-1.19,.08-1.58,.39-1.46,1.11-2.85,2.3-4.22,3.53-.57,.51-1.01,.88-1.77,.39-.72-.46-1.67-.64-1.51-1.9,.25-1.85-.19-3.64-.94-5.44,1.1-.31,2.11-.58,3.11-.86,.55-.16,.98,.03,1.17,.51,.37,.91,.7,1.84,.97,2.79,.14,.47,.1,.98,.15,1.56,1.4-1,1.42-1.91,.18-5.45,.99-.8,2.23-1.22,3.45-1.63,.31-.1,.93,.21,1.19,.52,1.05,1.19,1.93,2.5,1.91,4.2,0,.18,.1,.37,.22,.76,1.21-1.15,1-2.44,.73-3.58-.29-1.2-.95-2.31-1.49-3.56,.7-.97,1.43-2.06,2.23-3.09,.97-1.26,2.03-1.28,2.91,.05,.54,.81,.83,1.79,1.17,2.71,.18,.47,.2,1.01,.28,1.51,.15,.01,.31,.02,.45,.02,1.43-2.15-.07-4.06-.79-6.06,1.87-1.31,3.7-2.59,5.71-4.01,.22,.49,.49,.92,.61,1.38,.7,2.5-.11,4.9-.56,7.31-.05,.29-.41,.68-.7,.74Zm-24.17,9.42c-1.76-.75-3.13-.04-4.44,1.08-1.04,.88-2.13,1.71-3.2,2.54-.23,.18-.55,.24-.91,.41-.28-.77,.11-1.3,.44-1.78,1.06-1.56,2.15-3.1,3.27-4.61,.34-.45,.8-.84,1.23-1.2,1.28-1.04,1.67-1.05,3.04-.11,1.09,.75,1.65,2.29,1.3,3.79-.23-.04-.51-.02-.73-.1Zm-10.08,6.06c-2.06,1.39-2.61,4.1-4.66,5.91-.2-.45-.46-.74-.41-.97,.26-1.44,.48-2.9,.95-4.28,.52-1.51,1.06-2.99,.92-4.59-.1-1.24,.45-2.02,1.44-2.55,1.18-.64,2.46-.67,4.07-.63-1.03,2.49-3.16,4.23-2.32,7.1Zm-6.17,8.1c-.06-.12-.1-.23-.16-.35,.24-.07,.47-.15,.71-.22,.04,.09,.07,.18,.1,.27-.22,.1-.45,.21-.66,.31Zm10.29-22.13c1.14-.68,2.29-1.29,3.69-.78,.38,.14,.83,.1,1.24,.18,.51,.09,1.14,.38,1.29-.37,.14-.67-.54-.82-1.04-.96-.74-.2-1.51-.33-2.48-.53,.35-.77,.6-1.33,.87-1.87,.23-.47,.5-.91,.74-1.38,.86-1.64,.56-3.04-.59-4.49-.6-.76-.89-1.86-1.05-2.85-.1-.62,.62-.98,1.24-.89,.66,.09,1.34,.29,1.94,.58,1.31,.65,2.57,1.41,3.87,2.1,.52,.27,1.04,.53,1.57,.73,1.23,.45,1.79,.11,2.7-.89,1.05-1.14,1.7-2.41,1.94-3.92,.04-.2,.17-.38,.29-.63,1.24-.18,2.29-.06,3.3,.55,.53,.32,1.17,.45,1.77,.64,1.31,.39,2.6,.81,3.93,1.11,.86,.19,1.77,.22,2.65,.31,.65,.06,1.29,.1,1.99,.33-1.7,2.22-3.23,4.56-6.4,4.65-.75-.81-1.39-1.66-2.19-2.33-.66-.56-1.45-1.04-2.28-1.31-1.1-.37-1.96,.16-2.54,1.42,2.39-.04,4.08,1.12,5.57,3.03-1.82,.91-3.11,2.23-3.92,3.99-1.68,.87-2.85,2.73-5.09,2.74-.78-2.94-2.99-4.49-5.37-5.9-.84-.51-.86-.47-2.05,.19,.18,.82,.89,1.07,1.49,1.46,1.91,1.19,3.77,2.46,4.99,4.51-1.18,1-2.56,1.18-3.97,1.32-1.04,.1-2.08,.25-3.11,.42-2.16,.35-3.54,1.93-5.03,3.31-.39,.36-.67,.99-1.53,.77,.07-.31,.06-.63,.19-.87,.43-.78,.57-1.59,.39-2.43-.2-.94,.24-1.53,.97-1.96Zm9.81-14.35c.67,.29,1.34,.57,2.01,.86-.03,.1-.07,.19-.1,.28-.71-.22-1.42-.45-2.13-.68,.07-.15,.14-.3,.22-.45Zm3.2-10.9c-.05-.12-.1-.24-.15-.35,.37-.18,.72-.42,1.1-.53,1.48-.43,2.53-1.41,3.5-2.55,.45-.54,1.07-.97,1.7-1.29,.64-.31,1.32-.2,1.86,.38,.21,.23,.46,.5,.73,.58,1.56,.45,2.08,1.78,2.84,3.24-1.41,.29-2.61,.39-3.87,.1-1.22-.27-2.47-.48-3.71-.51-.8-.01-1.6,.37-2.41,.56-.53,.14-1.06,.26-1.59,.38Zm6.96-13.55c-.13,.05-.25,.09-.39,.14-.62-1.78-1.23-3.55-1.85-5.33,.13-.04,.25-.08,.38-.11,.62,1.76,1.24,3.53,1.86,5.3Zm1.38,2.98c-.1,.08-.21,.17-.32,.25-.13-.23-.26-.45-.4-.68,.08-.05,.16-.1,.22-.15,.17,.19,.33,.38,.49,.58Zm5.51,15.09c.74,.11,1.56,.4,2.14,.85,.93,.71,1.7,1.64,2.51,2.45-1.17,1.52-1.42,1.6-2.8,.81-1.4-.8-2.76-1.67-4.2-2.54,.58-1.33,1.15-1.75,2.35-1.57Zm-.09-5.44c-.3-.34-.6-.69-.91-1.04-.06-.04-.11-.08-.17-.11,0-.04-.01-.06-.01-.09-.39-.46-.77-.93-1.16-1.4,1.07,.36,1.1,.38,1.16,1.4,.02,.02,.04,.05,.06,.07,.04,.04,.08,.09,.12,.13,.38,.26,.76,.51,1.14,.77-.08,.09-.16,.18-.23,.27Zm-12.01-6.47c.11-1.23,.22-2.3,.33-3.48-.32-.1-.66-.23-.99-.29-1.8-.35-3.61-.64-5.4-1.03-.49-.1-.93-.47-1.4-.69-1.08-.52-2.14-1.14-3.28-1.51-.71-.23-1.54-.1-2.32-.12-.39-.01-.79,.02-1.39,.04,.26-.35,.35-.53,.48-.66,1.14-1.16,1.31-2.35,.37-3.63-.49-.66-1.15-1.22-1.8-1.74-1.22-.99-2.48-1.92-3.73-2.87-.55-.42-.69-.93-.34-1.52,.54-.9,1.09-1.79,1.67-2.66,.48-.73,1.05-1.42,1.05-2.52-.46-.05-.86-.12-1.26-.13-.31,0-.63,.1-.93,.1-1.05,0-2-.72-2.27-1.65-.23-.86,.06-1.36,1.21-2.14,.99,.46,1.89,1.03,2.86,1.29,2.61,.66,4.43-.82,5.29-2.9,.53-1.28,.19-2.75-.61-3.89-.72-1.01-1.71-1.78-3-2.17-2.1-.66-4.07-1.65-6.15-2.98,.52-.29,.83-.54,1.19-.65,2.14-.68,3.83-1.9,4.99-3.83,.22-.36,.44-.73,.74-1.02,2.31-2.15,2.45-4.86,1.96-7.72-.22-1.3-.5-2.58-.82-3.86-.56-2.26-.85-4.53-.79-6.87,.04-1.51-.16-2.97,.7-4.38,.39-.64,.39-1.52,.63-2.27,.22-.67,.55-1.31,.86-2.06,.87,.62,.74,1.34,.68,1.98-.18,2.13,.16,4.19,.76,6.22,.59,2.06,2.46,3.42,4.61,3.15,1.23-.16,2.44-.59,3.65-.94,.5-.15,.96-.41,1.47-.57,1.49-.5,2.01-.16,2.09,1.47,.13,2.11-.1,4.19-.69,6.23-.51,1.75-.03,2.91,1.47,3.95,.76,.53,1.52,.82,2.5,.58,.51-.13,1.17,.02,1.65,.26,1.82,.93,3.73,.92,5.69,.69,.36-.04,.75,0,1.09-.09,1.1-.28,1.4-.03,1.81,1.16,.2,.59,.39,1.21,.72,1.73,.68,1.02,1.55,1.4,3.19,1.52,.22,.48,.46,.99,.69,1.51,.35,.78,.95,1.12,1.78,.98,.71-.12,1.42-.34,2.14-.44,1.06-.14,2.15-.21,3.22-.31,.05,.11,.09,.22,.14,.33-.21,.23-.39,.59-.65,.68-1.02,.35-1.44,1.19-1.81,2.07-.62,1.44,.09,2.6,1.6,3.01,1.64,.44,3.1,.02,4.83-.75-.11,.54-.1,.87-.26,1.11-.13,.19-.42,.33-.67,.39-2.19,.42-3.41,2.13-4.7,3.69-.99,1.21-1.91,2.5-2.8,3.8-1.1,1.6-.78,2.73,1.06,3.43,.91,.35,1.92,.38,2.9,.53,.36,.06,.73,.04,1.09,.09,.76,.11,1.1,.52,.95,1.32-.19,1.01-.15,2.02,.58,2.83,.51,.57,1.09,1.1,1.69,1.58,.38,.31,.86,.49,1.26,1.01-.97,.14-1.94,.37-2.91,.39-2.02,.03-3.77,.83-5.51,1.71-.4,.2-.92,.49-1.28,.39-1.05-.31-1.45,.33-1.84,1.04-.66,1.25-1.28,2.53-1.96,3.86-2-.17-3.51,.7-5.02,1.55-.27,.15-.54,.33-.76,.56-.48,.53-.57,1.81-.19,2.2,.44,.45,1.53,.39,2.18-.14,.28-.22,.54-.48,.88-.81,1.9,.84,2.43,3.22,4.72,3.82-1.52,1.81-2.61,3.67-5.27,3.24-.9-.14-1.85,.07-2.97,.12-1.24-1.94-2.55-4.02-3.54-6.28-.11-.25-.08-.63,.01-.89,1.04-2.95,2.51-5.65,4.74-7.89,.84-.84,1.57-1.68,2.96-.93,.39,.21,1.17,.03,1.63-.22,1.48-.79,2.91-1.68,4.32-2.58,.16-.1,.12-.49,.22-.99-1.61,.59-2.96,1.12-4.34,1.57-.52,.17-1.15,.3-1.65,.15-1.17-.36-2.05,.05-2.89,.76-2.38,2.03-4.4,4.35-5.83,7.16-.11,.22-.27,.42-.49,.79-.64-1.17-1.44-2.05-.79-3.4,.28-.58,.17-1.34,.32-2.01,.68-2.98,2.73-4.93,5.12-6.54,1.64-1.11,3.06-2.36,4.17-4.01,1.24-1.82,2.6-3.57,3.83-5.4,1.05-1.58,1.15-2.4,.73-4.04-.73-.28-1.08,.23-1.26,.78-1.13,3.43-3.59,6.03-5.55,8.94-.59,.88-1.55,1.58-2.48,2.14-2.56,1.53-4.34,3.76-5.87,6.23-.16,.24-.31,.49-.67,1.05-.57-1.53-1.06-2.78-1.51-4.04-.18-.49-.29-1.01-.44-1.52-.21-.7-.42-1.29,.3-1.98,.49-.48,.56-1.42,.82-2.14,.58-1.64,1.51-2.93,3.15-3.74,.72-.36,1.4-1.19,1.7-1.96,.9-2.28,2.04-4.52,1.99-7.08,0-.41,.14-.83,.27-1.22,.45-1.42,.64-1.54,2.13-1.47,.37,.02,.74,.1,1.1,.03,.26-.06,.64-.26,.7-.47,.07-.22-.09-.63-.29-.8-1.53-1.36-3.66-.99-4.73,.77-.7,1.15-1.05,2.37-1.16,3.72-.19,2.34-1.17,4.45-2.19,6.53-.09,.18-.24,.39-.41,.46-1.73,.71-2.57,2.24-3.48,3.72-.16,.27-.37,.51-.7,.95-.38-.45-.77-.77-1-1.19-1.77-3.24-3.06-6.66-3.46-10.38-.09-.79,0-1.38,.63-1.96,.36-.33,.45-.99,.63-1.52,.06-.19,.01-.43,.07-.62,1.01-3.58,.42-7.34,1.29-10.94,.02-.08-.07-.19-.11-.28-1.18-.03-1.43,.08-1.61,1.13-.23,1.4-.37,2.82-.54,4.22-.07,.68-.15,1.36-.14,2.04,.02,1.4-.63,2.15-2.06,2.28-3.36-5.33-3.9-11.68-6.06-17.5-.94,.2-.99,.82-.96,1.35,.06,.95,.14,1.9,.39,2.81,.91,3.23,1.88,6.46,2.89,9.67,.34,1.09,.92,2.11,1.33,3.19,.63,1.66,1.2,3.34,1.83,5.11-2.47,.33-4.57,.08-6.3-1.59-.12-.11-.21-.28-.35-.31-.33-.08-.7-.19-.99-.1-.14,.05-.22,.57-.17,.84,.37,1.87,2.14,3.3,4.08,3.31,.42,0,.84-.12,1.26-.08,.78,.07,1.56,.16,2.31,.36,.32,.09,.69,.46,.81,.79,.19,.53,.27,1.14,.27,1.7-.01,1.57-.08,3.15-.14,4.71,0,.19-.09,.38-.23,.86-.63-.64-1.22-1.07-1.61-1.64-.6-.91-1.08-1.92-1.59-2.89-.22-.43-.34-.94-.98-.81-.54,.12-.88,.79-.61,1.4,1.01,2.34,2.22,4.55,4.28,6.15,.42,.32,.91,.58,1.26,.95,.45,.48,.89,1.01,1.17,1.6,.5,1.06,.89,2.19,1.45,3.63-3.4-1.56-6.61-.92-9.78-.86-.63,.02-1.26-.03-1.89-.02-.93,.02-1.42,.53-1.34,1.35,.07,.82,.73,.8,1.3,.78,1.63-.06,3.26-.14,4.88-.26,1.67-.11,3.22,.17,4.75,.86,.8,.37,1.7,.53,2.52,.86,.45,.19,.99,.45,1.22,.85,1.28,2.15,1.68,4.59,2.36,6.93-.79,.38-1.14-.12-1.47-.47-1.79-1.89-3.94-2.24-6.38-1.73-.86,.19-1.78,.18-2.65,.33-.27,.04-.64,.26-.7,.47-.05,.21,.15,.65,.36,.76,.45,.23,.98,.38,1.48,.42,.57,.04,1.15-.08,1.72-.14,1.65-.17,3.15,.26,4.41,1.32,.98,.83,2.06,1.45,3.33,1.68,.93,.17,1.45,.72,1.73,1.61,.19,.59,.45,1.19,.78,1.72,.19,.31,.59,.73,.86,.71,.31-.03,.59-.48,.84-.79,.12-.14,.13-.37,.29-.86,.83,1.51,1.52,2.75,2.21,4.02-.84,.42-1.13-.14-1.55-.39-.57-.35-1.17-.72-1.8-.86-1.07-.24-2.19-.28-3.28-.45-.92-.15-1.82-.38-2.89-.6Zm33.02-8.53c-2.91-1.66-5.39-3.85-8.76-1.78,.32-1.28,1.24-1.77,2.19-2.02,1.67-.44,3.39-.71,5.08-1,.84-.15,1.14,.09,1.23,1,.12,1.14,.15,2.28,.24,3.79Zm-1.86-12.85c.79-2.03,1.72-3.98,3.21-6.16,.38,2.06,2.06,3.01,2.35,4.75,.43,2.68,1.83,5.07,2.43,7.68,.33,1.46,.28,3.01,.4,4.46-2.05,.68-3.93-1.1-4.5-4.15,.28-.22,.57-.51,.9-.74,1.15-.8,1.41-2.51,.42-3.49-.27-.27-.82-.39-1.23-.38-1.24,.06-2.41-.07-3.46-.8-.44-.3-.73-.66-.53-1.18Zm12.09-1.69c.27-1.76,.49-3.16,.68-4.37,1.08-.66,2.06-1.27,3.16-1.94,.56,.96,.54,1.21-.34,1.77-.66,.41-1.37,.72-2.17,1.12,.74,1.47-.28,2.23-1.32,3.42Zm.72-32.53c1.1,0,2.14-.1,3.14,.05,.5,.08,1,.53,1.37,.92,.49,.54,.82,1.23,1.3,1.79,.93,1.11,1.58,1.1,2.71,.15,.25-.22,.64-.31,.97-.39,1.52-.35,2.74-1.06,3.32-2.57,.23-.61,.63-.91,1.23-1.07,2.06-.54,4.11-.79,6.34-.07-1.03,1.24-1.93,2.54-3.02,3.61-.92,.91-2.07,1.58-3.11,2.36-.05,.03-.09,.09-.13,.09-1.78-.06-2.1,1.64-3.03,2.59-.35,.36-.52,1.03-.54,1.58-.05,1.28-.43,2.44-.85,3.64-.89,2.52-1.61,5.09-2.27,7.68-.49,1.94-.68,2.54-2.31,4.53-.17-1.34-.3-2.42-.45-3.53-1.81-.51-2.01,1.17-2.81,1.98-1.35-3.28-1.55-6.64-1.38-10.04,.11-2.09,.32-4.17,.91-6.21,.33-1.14,.33-2.4,.35-3.6,0-.48-.28-.99-.52-1.45-.33-.64-.74-1.23-1.22-2.02Zm-.31-2.12c-1.51-.32-3.18-.64-4.06-2.16,1.13-.43,2.18-.7,3.09-1.22,.97-.56,1.71-1.41,1.44-2.9,.94,.33,1.74,.6,2.67,.93-.35,.61-.6,1.04-.86,1.49,.41,.72,.98,.7,1.63,.46,.85-.32,.39-1.05,.44-1.78,.36,.17,.54,.21,.64,.31,.86,.91,1.88,.91,2.89,.4,1.09-.55,1.53-1.55,1.44-2.75-.1-1.15-.24-2.3-.36-3.45-.02-.24-.02-.49-.04-1.05,.44,.41,.79,.58,.9,.84,.23,.58,.39,1.2,.52,1.82,.5,2.38,1.18,2.98,3.6,3.08,.41,.86,.82,1.74,1.18,2.53-.39,.42-.82,.88-1.32,1.42,.95,.58,1.67,.4,2.19-.14,.22-.22,.07-.82,.1-1.42,.54,.06,1.23,0,1.81,.24,1.64,.67,2.96-.05,4.29-.8,.32-.18,.59-.43,.95-.68-.53,2.57-2.32,3.68-4.78,3.55-1.92-.1-4.03-.3-5.57,1.36-.33,.35-.56,.84-.71,1.31-.46,1.45-1.27,2.13-2.72,2.15-.85,.02-1.55-.19-1.89-1.09-.15-.38-.43-.71-.66-1.07-.49-.74-1.12-1.14-2.09-1.13-1.57,.01-3.18,.05-4.7-.26Zm.4-9.33c.05,.5,.1,1.01,.15,1.52-.13,.01-.25,.03-.38,.05-.1-.49-.2-.99-.3-1.48,.18-.03,.35-.06,.53-.08Zm71.83,12.96c.15,.59,.26,1.04,.38,1.5-.08,.05-.17,.1-.24,.16-.47-.31-.93-.64-1.65-1.13,.67-.23,1.02-.36,1.52-.54Zm-92.23,152.87c.16,.01,.31,.15,.55,.27-.22,.18-.36,.36-.43,.33-.16-.06-.28-.21-.42-.33,.1-.09,.21-.28,.29-.27Zm86.95-103.15c-1.8-.38-3.03-1.49-4.2-2.79,.15-.3,.23-.49,.32-.68,.61-1.26,.53-1.65-.75-2.19-.76-.33-1.59-.49-2.41-.7-.75-.18-1.52-.32-2.27-.47,0-1,.07-1.9-.02-2.78-.16-1.55,.29-2.21,1.8-2.22,1.04,0,2.09,.16,3.13,.32,1.3,.2,2.52,.05,3.63-.67,1.41-.91,2.83-1.8,4.19-2.79,2.05-1.48,2.6-3.38,1.85-5.82-.28-.95-.52-1.92-.76-2.89-.42-1.72,.21-3.09,1.45-4.24,.28-.26,.55-.53,1.03-1.01-.69-.25-1.11-.41-1.53-.56-.66-.24-1.21-.78-.98-1.42,.42-1.16,.96-2.32,1.67-3.33,.51-.73,1.01-1.43,1.3-2.29,.48-1.43,.03-2.44-1.44-2.88-.6-.18-1.23-.26-1.84-.4-.86-.19-1.57-.57-1.66-1.6,.69-.61,1.43-1.13,1.99-1.81,.6-.71,1.02-1.58,1.52-2.37,.23-.35,.47-.69,.75-1.02,.78-.94,1.03-2.03,.96-3.23-.05-1.07-1.09-1.11-1.59-1.6,.43-.7,.88-1.3,1.18-1.95,.34-.75,.55-1.57,.82-2.35,.31-.94,.77-1.89-.14-2.78-.09-.09-.12-.3-.1-.44,.13-1.09-.58-1.88-.94-2.79-.34-.88-1.18-1.13-1.78-.91-.88,.31-1.94,.6-2.37,1.65-.38,.92-.75,1.85-1.18,2.74-.17,.35-.42,.68-.71,.91-1.33,1.02-2.91,.95-4.7,1.05,.16-.93,.32-1.74,.42-2.55,.09-.77,.17-1.56,.15-2.34-.02-.69-.48-1.04-1.16-1.02-.42,.02-.84,.07-1.23,.2-1.8,.57-3.56,1.24-5.38,1.75-1.7,.46-2.88,1.54-3.67,2.98-1.68,3.06-4.24,4.89-7.56,5.7-2.03,.49-3.47-.6-3.7-2.64-.06-.51-.2-1.03-.42-1.49-.39-.84-.86-1.64-1.3-2.45-1.36-.7-2.53,.15-3.78,.44-2.21,.51-3.78,1.94-5.25,3.55-.88,.97-1.71,2.03-2.75,2.79-1.83,1.33-2.93,3.09-3.7,5.15-.26,.67-.63,1.17-1.36,1.41-2.48,.82-4.94,1.67-7.49,2.54-.45-.53-.33-1.08,.25-1.53,.72-.53,1.51-.96,2.2-1.52,1.18-.95,2.51-1.8,3.41-2.97,1.81-2.37,3.32-4.97,5.05-7.41,.74-1.06,.72-2.17,.59-3.31-.11-1.01-.83-1.48-1.81-1.16s-1.99,.7-2.84,1.27c-1.07,.71-2.14,.96-3.41,.77-1.17-.18-2.08-.41-2.31-1.85-.19-1.24-.68-1.47-1.89-1.21-.79,.17-1.22-.14-1.5-.78-.19-.43-.26-.91-.44-1.34-.61-1.44-1.23-2.9-1.9-4.31-.14-.29-.48-.59-.8-.69-.84-.24-1.46-.71-2.05-1.35-.74-.8-1.71-.52-2.06,.52-.14,.43-.21,.93-.11,1.36,.17,.76,.47,1.5,.74,2.24,.73,1.98,1.04,4.03,1.05,6.3-1.19-.23-2.09-.95-3.09-1.2-1.44-.35-1.69-1.19-1.71-2.39-.01-.42-.01-.84-.04-1.26-.07-1.09-.87-1.57-1.82-1.11-1.96,.95-2.87,2.97-2.31,5.11,.07,.25,.16,.5,.2,.76,.18,1.34-.14,1.75-1.52,2-.36,.06-.72,.14-1.08,.18-.98,.11-1.48-.26-1.63-1.23-.06-.35,0-.72,0-1.14-.34-.07-.77-.29-.9-.17-.86,.74-1.71,1.52-2.47,2.36-.2,.22-.2,.72-.13,1.05,.3,1.29,.78,2.47,1.7,3.5,1.38,1.52,3.03,2.53,4.89,3.35,2.07,.92,2.66,2.52,1.94,4.9-.57-.66-1.18-1.02-2.08-.77-.36,.1-.95-.15-1.26-.43-1.13-.99-2.38-1.92-2.89-3.44-.13-.4-.33-.78-.54-1.14-.39-.71-.81-.83-1.55-.48-.81,.38-1.19,1.04-1.14,1.91,.14,2.35,.25,4.71,.51,7.05,.16,1.5,.56,2.98,.85,4.38-.17,.17-.23,.27-.31,.32-2.23,1.27-2.24,1.27-1.95,3.56h.05s.02,.04,.03,.05c.46,.18,.93,.33,1.38,.55,1.61,.8,1.86,1.35,1.49,3.11-.39,1.84-.77,3.68-1.16,5.57-1.11-.41-2.07-.93-3.1-1.12-1-.2-2.05-.07-3.09-.08,.14-1.38,.61-1.91,1.73-2.26,.68-.21,1.41-.44,1.94-.89,1.83-1.5,2.01-2.77,.81-4.88-.02,0-.05-.01-.07-.03-.01,0-.01-.02-.01-.02-1.08-.09-2.01,.31-2.91,.86-.92,.57-1.83,.68-2.9-.23,.37-.47,.61-1.04,1.04-1.28,1.01-.55,2.09-.93,3.14-1.39,.46-.19,.92-.41,1.44-.65-.21-.8-.36-1.47-.58-2.1-.32-.92-.63-1.05-1.53-.82-.6,.16-1.21,.43-1.81,.43-2.05,0-4.09-.1-6.07,.61-.61,.22-.99-.05-1.19-.66-.18-.52-.41-1.02-.8-1.99-.61,.66-1.03,1.11-1.55,1.67-.39-1.02-.68-1.74-.94-2.47-.27-.74-.55-1.47-.78-2.22-.96-3.19-1.39-2.55-3.64-1.68-1.49,.59-2.71,.16-3.79-.75-1.01-.86-2.27-1.72-1.51-3.42-1.11-.8-2.07-1.67-2.05-3.07,.01-.83,.18-1.67,.36-2.49,.39-1.77,.59-3.53,.3-5.32-.24-1.47-.64-1.78-2.16-1.49-.7,.14-1.42,.39-2.03,.74-1.26,.74-2.42,1.62-3.66,2.4-1.11,.69-2.28,1.3-3.41,1.98-1.76,1.05-3.08,.65-3.91-1.26-.71-1.65-1.18-3.35-1.02-5.2,.07-.88-.09-1.78-.1-2.67-.01-.73-.08-1.49,.11-2.18,.27-.99,.73-1.94,1.16-2.9,.28-.59,.29-1.21-.19-1.58-.55-.41-1.07-.05-1.52,.41-1.84,1.92-3.18,4.21-4.09,6.67-1.09,2.96-2.27,5.86-4.03,8.51-.46,.68-.79,1.49-.99,2.31-.88,3.41-1,6.84,.02,10.27,.41,1.38,.64,2.82,.97,4.36-.81,0-1.38,.02-1.94,0-.98-.04-1.76,.4-2.29,1.16-1.06,1.5-2.06,3.05-3.06,4.59-.57,.89-.45,1.37,.46,1.95,.31,.2,.64,.39,.97,.53,1.73,.76,3.45,1.51,5.19,2.23,.82,.34,1.67,.63,2.5,.94,1.36,.52,2.33,1.42,2.8,2.81,.27,.77,.26,1.53-.18,2.28-.99,1.71-3.02,2.04-4.55,.71-1.4-1.21-1.93-1.21-3.39,.03-.44,.38-.94,.73-1.24,1.2-.41,.65-.92,.86-1.65,.99-.68,.11-1.46,.41-1.94,.89-1.54,1.57-2.99,3.22-4.41,4.9-.25,.29-.32,.9-.22,1.29,.3,1.18,.77,2.3,1.67,3.18,.82,.81,1.64,1.63,2.44,2.46,.7,.73,1.44,1.1,2.53,.84,.85-.19,1.79-.21,2.66-.13,1.49,.16,3.01,.09,4.44,.81,2.07,1.05,2.12,1.4,.25,2.82-2.39,1.81-4.68,3.73-6.49,6.16-.6,.79-1.13,1.66-1.58,2.54-.31,.6,.13,1.15,.74,.94,1.38-.47,2.78-.95,4.07-1.63,1.76-.93,3.38-2.12,5.13-3.06,1.2-.63,2.52-.75,3.76,.08,.77,.52,1.74,.8,1.99,1.89,.28,1.22,1.9,.51,2.33,1.6,.17,.42,.58,.73,.85,1.12,.36,.51,.68,1.06,1.07,1.56,.79,1,1.24,1.13,2.46,.73,.25-.07,.48-.22,.72-.29,1.11-.33,2.23-.64,3.66-1.04-.79,1.22-1.39,2.08-2.42,2.49-1.99,.82-4.01,1.18-6.14,.41-1.86-.69-3.76-1.34-5.66-1.9-1.68-.49-3.3-.3-4.83,.67-1.96,1.23-4.05,2.24-5.94,3.55-1.04,.72-1.92,1.78-2.62,2.84-.63,.96-1.13,2-2.09,2.71-.27,.19-.43,.53-.7,.88,1.69,.85,3.16,.45,4.38-.52,1.92-1.54,4.11-2.34,6.47-2.68,1.75-.25,3.55-.39,5.32-.28,2.51,.14,4.98,.73,7.51,.33,.27-.04,.55,.1,.95,.18-.17,.31-.23,.54-.37,.65-1.76,1.35-1.8,1.66-.32,3.31,.71,.8,1.48,1.54,2.22,2.3-.48,.04-.88-.07-1.25-.21-1.48-.55-2.96-1.09-4.43-1.66-1.11-.43-2.13-.27-3.16,.34-1.12,.67-2.32,1.21-3.48,1.83-.55,.3-1.1,.62-1.59,1.01-.81,.65-.83,1.43-.09,2.13,.42,.39,.92,.69,1.39,1.04,.83,.63,1.67,1.25,2.49,1.9,.61,.47,.85,1.16,.56,1.83-.44,1.05-.89,2.16-2.08,2.66-1.01,.43-1.68,1.22-2.22,2.16-.26,.44-.56,.98-.97,1.17-1.26,.56-1.36,1.48-1.03,2.6,.27,.92-.1,1.41-.94,1.66-1.05,.31-1.81,1.02-2.55,1.78-.84,.86-1.7,1.73-2.63,2.48-.81,.64-1.03,1.28-.78,2.31,.56,2.31,.43,4.55-.88,6.69-1.07,1.75-1.93,3.63-2.87,5.44-.34,.65-.63,1.32-1.03,1.93-.66,1.02-.42,1.79,.77,2.1,.66,.18,1.36,.18,2.02,.34,1.33,.31,2.4-.15,3.28-1.08,.65-.67,1.21-1.44,1.76-2.21,1.31-1.9,2.57-3.85,3.92-5.72,.48-.67,1.15-1.22,1.79-1.75,1.05-.87,2.17-.95,3.35-.19,.89,.56,1.79,1.1,2.72,1.58,1.54,.81,3.05,1.13,4.79,.29,1.34-.65,2.02-1.81,2.93-2.78,.7-.74,1.48-1.52,1.47-2.7,0-.15,.24-.29,.47-.55,.95,1.11,2.1,1.58,3.49,1.45,.19-.01,.41,.11,.58,.23,1.22,.84,2.25,.37,3.32-.39,1.08-.77,1.86-1.81,2.79-2.72,1.01-.98,1.65-1.94,1.84-3.33,.16-1.06,.61-2.06,1.53-2.89,.76,.6,1.22,1.32,1.34,2.15,.34,2.38,1.36,4.64,1.19,7.1-.07,.94,.41,1.48,1.21,1.79,.44,.17,.89,.33,1.35,.43,1.24,.24,1.59-.04,1.88-1.24,.27-1.11,.63-2.2,.93-3.31,.08-.3,.13-.61,.18-.93,.15-1.04,.28-2.08,.44-3.11,.21-1.32,.19-2.6-.11-3.91-.27-1.18-.53-2.38-.61-3.57-.13-1.78-.06-3.55,1.14-5.11,1.2,.48,1.51,1.45,1.55,2.53,.03,.84-.06,1.68-.1,2.53-.1,3.04-.15,6.08-.35,9.12-.13,1.99-.5,3.96-.75,5.94-.42,3.29-.83,6.58-1.25,9.86-.51,4.02-.9,8.05-.79,12.1,.04,1.73-.23,3.46-.28,5.19-.06,2.62-.02,5.25-.06,7.87-.07,4.1-.18,8.19-.27,12.28-.07,2.98,.97,5.36,3.61,6.93,1.15,.68,2.13,.29,2.3-1.07,.16-1.3,.39-2.61,.3-3.91-.23-3.18,.37-6.29,.58-9.42,.25-3.73,.6-7.44,.9-11.16,.04-.42,.03-.84,.03-1.26,.01-2.52-.01-5.05,.04-7.57,.07-4.26,.22-8.51,.27-12.77,.03-2.04-.06-4.06,.2-6.11,.56-4.42,1.08-8.84,2.09-13.17,.36-1.53,1.05-2.98,1.66-4.43,.28-.64,.96-.81,1.62-.76,.68,.06,1.06,.55,1.06,1.17,.02,1.01,.55,1.65,1.25,2.26,.67,.58,1.27,1.26,1.99,1.78,1.99,1.42,4.07,2.62,6.68,2.3,4.4-.55,7.99-2.47,10.5-6.18,.86-1.28,1.65-2.65,1.86-4.41-.41,.04-.75-.02-.95,.12-.5,.38-.93,.83-1.39,1.26-1.17,1.09-2.48,1.99-4.09,1.22-1.21-.58-2.25-1.47-3.71-1.32-.14,.02-.31-.07-.43-.17-1.78-1.2-3.86-2.14-4.34-4.59-.04-.19-.22-.34-.35-.51-.72-.92-1.29-1.9-1.19-3.14,.02-.18-.16-.36-.26-.55-1.34-.06-1.96,1.2-3.18,1.57-.02-.34-.16-.8-.03-.89,1.21-.89,1.24-2.39,1.92-3.54,.3-.52,.7-1.07,1.2-1.38,.98-.58,2.05-1.03,3.1-1.47,.47-.2,.99-.25,1.72-.42,.16,.69,.34,1.26,.39,1.85,.12,1.52,.31,1.73,1.78,1.74,.31,0,.64-.02,.95,.03,.84,.1,1.73,.19,2.02,1.19,.28,.97-.54,1.21-1.13,1.64-1.28,.95-1.32,2.02-.17,3.17,.18,.19,.4,.33,.59,.52,.54,.53,1.1,.55,1.69,.1,.51-.38,.99-.78,1.49-1.17,.73-.56,1.4-.57,2.11,0,.82,.65,1.61,1.33,2.44,1.97,1.29,1.02,1.39,1.48,.85,2.95-.77,2.12-.92,4.29-.22,6.46,.43,1.36,.8,1.55,2.27,1.54,1.19,0,2.31,.13,2.85,1.46,.13,.29,.46,.59,.77,.7,1.38,.54,1.78,1.13,1.07,2.23-1.31,2.07-2.03,4.38-2.84,6.65-.24,.66-.62,1.21-1.36,1.43-.93,.29-1.18,.92-.93,1.87,1.32,.35,2.65,.51,3.8-.32,1.06-.76,2.05-1.64,2.93-2.6,2.66-2.94,4.59-6.41,6.66-9.74,1.19-1.92,2.02-4.02,1.58-6.43-.18-.96,0-1.99,.12-2.98,.19-1.44,.13-2.81-.61-4.13-.27-.47-.33-1.06-.5-1.63,.37-.19,.58-.34,.83-.42,2.44-.85,2.6-1.07,2.55-3.58-.04-1.8-.2-1.86-2.02-2.29-.92-.21-2.06-.11-2.59-1.39-.18-.43-.97-1.05-1.74-.74-1.02,.4-1.49-.27-1.87-.95-.45-.8-.91-1.51-1.88-1.77-.43-.12-.82-.46-1.18-.77-.35-.31-.66-.69-.31-1.16,1.39,.15,2.77,.17,4.08,.46,1.52,.34,3.07,.77,4.28,1.88,.73,.67,1.47,1.36,2.11,2.12,.49,.59,1.07,.93,1.78,1.22,.94,.4,1.97,.64,2.64,1.6,1.07,1.55,2.66,2.38,4.49,2.65,1.24,.19,2.27,.58,3.13,1.58,.68,.79,1.56,1.44,2.78,1,.74-.28,1.18,.21,1.53,.77,.48,.75,.91,1.55,1.38,2.3,.86,1.35,1.41,2.81,1.52,4.42,.08,1.15,.11,2.31,.14,3.47,.02,1.14,.51,1.98,1.54,2.57,1.16-.54,1.64-1.4,1.66-2.65,.02-1.15,.17-2.29,.28-3.45,.08-.83,.34-1.67,.28-2.48-.1-1.67-.35-3.34-.58-4.99-.21-1.46-.09-2.8,.81-4.05,.31-.43,.48-1.04,.53-1.59,.17-1.82,.26-3.65,.38-5.47,.06-.89,.2-1.78,.15-2.67-.06-1.14-.95-1.64-2.01-1.19-.48,.2-.91,.53-1.36,.8-1.72,1.05-3.05,.59-4.01-1.48,.3-.08,.59-.21,.88-.22,1.46-.03,2.93-.05,4.39-.06,.26,0,.53,.03,.77,.12,1.13,.42,2.29,.79,3.36,1.33,1.11,.56,2.17,.45,3.18-.02,2.85-1.33,5.19-3.36,7.33-5.62,1.22-1.29,1.04-3.98-1.51-4.52"/></g><path class="g" d="M234.03,68.49c-3.25-.15-6.18-1.25-8.98-2.68-3.46-1.77-6.97-3.41-10.6-4.78-.82-.31-1.52-.92-2.27-1.4-.46-.31-.89-.66-1.31-.96-.74,.53-.62,1.01-.14,1.38,.94,.74,1.85,1.57,2.91,2.1,3.33,1.66,6.76,3.13,10.08,4.8,3.22,1.61,6.51,2.91,10.18,3.01,1.72,.04,3.45,.27,5.17,.39,.48,.04,1.05,.13,1.3-.56-.18-.13-.3-.26-.43-.29-1.96-.37-3.92-.93-5.9-1.02"/><path class="g" d="M227.89,58.33c1.72,.07,3.48,.18,5.18-.03,3.38-.41,6.74-.94,10.08-1.6,2.62-.52,5.13-1.43,7.47-2.72-.03-.11-.06-.21-.08-.32-.33,.1-.68,.18-1.01,.3-3.07,1.09-6.19,1.94-9.44,2.32-2.55,.3-5.1,.58-7.65,.86-.36,.04-.74,.09-1.09,.06-1.56-.14-3.11-.3-4.67-.43-.55-.05-1.23-.43-1.53,.42,.95,.82,1.38,1.08,2.74,1.13"/><path class="g" d="M239.39,42.73c1.48-.29,3.02-.51,4.41-1.05,2.57-1.03,5.07-2.24,7.58-3.45,.46-.23,1.15-.41,1.24-1.34-4.93,2.34-9.68,4.63-15.32,5.05,.73,1.02,1.46,.91,2.09,.8"/><path class="g" d="M203.19,54.65c.08,.3,.31,.58,.46,.86,.1-.01,.2-.02,.31-.03,.08-.38,.24-.76,.22-1.13-.21-3.82,.49-7.54,1.28-11.23,.46-2.15,1.2-4.24,1.85-6.34,.13-.45,.54-.88-.04-1.23-.47-.29-.97-.28-1.45,.13-.68,.58-1.02,1.31-1.21,2.15-.95,4.16-1.49,8.38-1.83,12.63-.11,1.45,.05,2.83,.41,4.21"/><path class="g" d="M141.78,101.86c.43,.27,.95,.4,1.45,.54,1.4,.41,2.58,1.1,3.42,2.33,.17,.24,.38,.47,.68,.84,.56-1.08,.57-1.16,.35-1.74-.56-1.49-3.82-3.64-5.43-3.51-.34,.03-.77,.36-.92,.67-.09,.18,.19,.71,.44,.87"/><path class="g" d="M195.23,39.22c1.09-1.34,3.6-11.38,3.49-13.62-1.11-.13-1.36,.56-1.52,1.3-.63,2.92-1.25,5.85-1.86,8.77-.17,.77-.32,1.55-.4,2.33-.03,.34,.15,.7,.29,1.22"/><path class="g" d="M193.16,40.23c.16-.16,.34-.24,.36-.37,.68-3.39,1.35-6.78,1.99-10.17,.03-.16-.16-.35-.37-.82-1.45,2.92-1.93,5.84-2.39,8.76-.13,.79-.38,1.73,.4,2.59"/><path class="g" d="M203.13,22.16c.09-.17-.15-.74-.3-.77-.36-.06-.86-.03-1.13,.19-.91,.74-1.2,2.78-.57,4.18,1.24-1.01,1.39-2.44,1.99-3.6"/><path class="g" d="M195.52,18.33s0-.02,0-.03l-.05,.02s.03,0,.04,0"/><path class="g" d="M197.98,19.69c.19-.04,.32-.45,.48-.68-.23-.14-.55-.42-.7-.35-.42,.19-.68,.25-1.08-.12-.24-.23-.75-.17-1.16-.21-.1,.5-.22,1.02-.34,1.63,1.08-.09,1.95-.13,2.8-.27"/><path class="g" d="M188.58,17.23c-.53,.24-1.13,.57-.91,1.46,1.12,.16,1.97-.38,2.99-.97-.68-.86-1.41-.81-2.08-.49"/><path class="g" d="M195.53,18.3s-.04,0-.05,.01h0s.05-.01,.05-.01"/><path class="g" d="M194.18,18.67c.44-.04,.86-.22,1.3-.36-.32-.44-.54-.99-.94-1.32-.4-.33-.94-.14-1.2,.32-.18,.33-.36,.84-.21,1.1,.11,.22,.69,.29,1.06,.26"/><path class="g" d="M199.62,15.72c-.82-.35-1.27-.15-1.54,.69,.81,.38,1.24,.13,1.54-.69"/><path class="g" d="M191.85,62.88c.1-.31,.14-.65,.29-1.32-.63,.41-1.03,.56-1.28,.85-.6,.72-1.2,1.46-1.71,2.25-.71,1.1-.66,1.41,.21,2.47-.37,.84-.72,1.72-1.14,2.57-.4,.8-.46,1.55,.12,2.13-.34,.82-.7,1.47-.89,2.18-.08,.32,.14,1.01,.3,1.03,.41,.06,.89-.1,1.29-.29,.17-.08,.19-.47,.31-.7,.53-1.08,1.06-2.15,1.59-3.23,.19-.4,.38-.8,.64-1.36-.63-.07-1.02-.11-1.74-.2,.74-1.23,1.39-2.3,2.02-3.38,.2-.34,.56-.77,.48-1.08-.07-.34-.57-.58-.88-.86,.13-.36,.29-.7,.39-1.05"/><path class="f" d="M7.76,208.31c-1.72,4.23-4.35,8.21-7.76,11.74l.61,.98c3.65-2.5,6.04-4.96,8.33-8.41v11.7h3.32v-12.11l.13,.16c1.19,1.52,2.42,3.04,3.66,4.56,.04,.08,.29,.49,.7,1.11l2.26-2.99c-1.72-1.52-2.99-2.3-5.71-3.49-.16-.08-.36-.17-.57-.25-.04,0-.24-.12-.45-.2v-2.79h7.97v-1.81h-7.97v-5.09h8.58v-1.81h-7.06l.24-.53c1.11-2.18,1.97-4.11,2.67-6.08l.16-.45,.17-.41h3.32v-1.8H12.31v-4.84h-3.49v4.84H.61v1.8H3.73c.57,2.02,1.23,5.14,1.56,7.47H0v1.81H8.95v5.09H.61v1.81H7.76Zm5.83-16.18c-.25,2.14-.7,4.93-1.07,6.53l-.13,.49c0,.08-.04,.25-.08,.45H5.95l2.71-1.77c-.98-2.14-1.85-3.53-3.57-5.71H13.59Zm12.11-3.28l-3.41-1.27v5.29c0,11.7-.13,14.74-.62,18.6-.78,5.17-2.34,8.74-5.33,11.99l.74,.9c6.53-4.43,8.66-10.14,8.58-22.79h5.67v22.74h3.45v-22.74h4.64v-1.8h-13.71l.04-6.9v-2.63c4.76-.13,7.92-.54,12.44-1.72l-2.83-3c-2.55,1.23-6.16,2.51-9.03,3.2l-.29,.04-.33,.08Z"/><path class="f" d="M46.96,224.33h3.16v-21.31c1.31,2.14,2.13,3.94,2.99,6.57l2.34-2.38c-1.15-2.21-2.95-4.02-5.33-5.33v-5.42h4.1v-1.81h-4.1v-9.15h-3.16v9.15h-5.62v1.81h5.26c-.86,5.46-3.2,13.06-5.54,18.15l.9,.66c2.22-3.2,3.45-5.5,5.01-9.44v18.52Zm12.4-18.6h14v-5.5c1.6,1.56,2.99,2.55,5.63,3.86,.57-1.48,.7-1.68,1.48-3.08-3.98-1.56-8.05-4.31-9.61-6.57h8.58v-1.81h-13.55c.62-1.03,.95-1.77,1.85-3.69,4.02-.41,6.04-.7,9.73-1.35l-3.49-2.39c-3.45,1.19-12.52,2.59-19.38,2.96l.12,1.31c5.09-.08,6.86-.13,9.57-.29-.54,1.27-.98,2.18-1.68,3.45h-7.72v1.81h6.53c-2.26,3.16-4.56,5.5-8.25,8.33l.66,.98c2.92-1.6,4.06-2.34,5.54-3.53v5.5Zm2.14-7.39c1.23-1.23,2.3-2.51,3.24-3.9h4.72c.66,1.56,1.31,2.71,2.22,3.9h-10.18Zm.7,5.58v-3.78h8.25v3.78h-8.25Zm-1.11,8.74v7.43h11.25v-7.43h-11.25Zm2.75,5.74v-4.06h5.71v4.06h-5.71Zm14.61-10.22h-23.11v16.14h3.08v-14.33h16.91v10.34c-.08,1.4-.45,1.77-1.84,1.85h-2.71v1.93h4.03c2.54,0,3.57-1.03,3.65-3.49v-12.44Z"/><path class="f" d="M89.26,221.52c-1,0-1.5-.29-1.5-.85,0-.46,.28-.69,.83-.69l1.13,.13c.93,0,1.55-.52,1.88-1.56,.26-.88,.4-2.44,.4-4.71v-16.33c0-2.28-.11-3.76-.33-4.46-.21-.71-.47-1.19-.77-1.44-.31-.25-.7-.38-1.17-.38l-1.13,.08c-.56,0-.83-.22-.83-.67,0-.57,.42-.85,1.27-.85s1.58,.06,2.21,.19c.64,.11,1.26,.17,1.88,.17,1.64,0,3-.07,4.08-.23,1.64-.22,3.51-.33,5.63-.33s4.23,.39,6.33,1.15c2.11,.75,3.92,1.82,5.44,3.21,3.22,2.95,4.83,6.81,4.83,11.6s-1.58,8.35-4.73,11.38c-3.28,3.14-7.57,4.71-12.88,4.71-1.28,0-2.52-.06-3.73-.17-2.24-.2-3.85-.29-4.85-.29l-3.98,.35Zm6.35-11.02c0,2.75,.07,5.31,.21,7.67,2.05,1.06,4.36,1.58,6.92,1.58,1.88,0,3.81-.44,5.81-1.31,3.18-1.39,5.26-3.88,6.23-7.46,.36-1.26,.54-2.9,.54-4.92s-.35-3.96-1.04-5.85c-.68-1.89-1.64-3.48-2.88-4.77-2.52-2.67-5.91-4-10.17-4-3.04,0-4.79,.4-5.23,1.19-.24,.43-.36,.93-.38,1.48-.02,.54-.02,1.08-.02,1.6v14.79Z"/><path class="f" d="M126.9,221.17c-.79,0-1.54,.05-2.23,.17-.68,.13-1.42,.19-2.21,.19s-1.19-.26-1.19-.77,.36-.79,1.08-.79,1.29-.14,1.63-.42c.53-.47,1.04-1.25,1.54-2.33,.51-1.08,.98-2.09,1.42-3.02,.44-.94,.95-2.04,1.52-3.29,.57-1.26,1.19-2.67,1.88-4.23,.69-1.55,1.42-3.2,2.19-4.94,1.97-4.58,3.27-7.67,3.9-9.25,.64-1.58,.99-2.46,1.06-2.63,.07-.17,.14-.32,.21-.46,.21-.33,.38-.5,.52-.5s.25,.02,.33,.06c.09,.04,.2,.12,.31,.23,.23,.29,.46,.73,.69,1.31,.23,.57,.55,1.35,.94,2.33,.4,.99,.85,2.1,1.35,3.35,.51,1.25,1.05,2.6,1.63,4.04,.57,1.43,1.14,2.86,1.71,4.29,.58,1.43,1.15,2.82,1.69,4.17,.55,1.33,1.05,2.54,1.48,3.63,1.33,3.22,2.18,5.16,2.54,5.79,.38,.63,.69,1.06,.94,1.31,.39,.36,.96,.54,1.71,.54s1.15,.27,1.15,.79-.49,.77-1.46,.77c-.42,0-.78-.02-1.08-.06-.31-.04-.61-.08-.92-.1-.89-.13-1.68-.19-2.38-.19l-4.48,.35c-1,0-1.5-.29-1.5-.85,0-.47,.28-.71,.83-.71l1.4,.17c.58,0,.96-.13,1.15-.38,.19-.26,.29-.58,.29-.96,0-.73-.31-1.86-.94-3.4l-1.92-4.81h-12.83c-.38,.93-.72,1.79-1.04,2.56-.32,.77-.61,1.51-.88,2.23-.42,1.18-.63,2.1-.63,2.77s.11,1.16,.35,1.48c.25,.32,.71,.48,1.38,.48l1.38-.13c.55,0,.83,.23,.83,.69,0,.57-.5,.85-1.5,.85l-3.83-.35Zm15.98-12.54l-5.5-13.79c-1.07,2.7-2.97,7.29-5.71,13.79h11.21Z"/><path class="f" d="M164.57,221.52c-1.02,0-1.52-.29-1.52-.85,0-.46,.28-.69,.83-.69l1.15,.13c.92,0,1.53-.52,1.85-1.56,.28-.88,.42-2.44,.42-4.71v-8.1l-7.29-10.75c-.99-1.44-1.68-2.34-2.08-2.71-.66-.55-1.33-.83-2.02-.83s-1.02-.28-1.02-.83c0-.22,.13-.41,.38-.56,.25-.17,.65-.25,1.19-.25s1.1,.06,1.69,.19c.58,.11,1.21,.17,1.9,.17l3.77-.35c1,0,1.5,.26,1.5,.77s-.43,.75-1.29,.75-1.27,.28-1.27,.83c0,.31,.28,.89,.83,1.75l6.38,9.69,4.92-7.77c1-1.58,1.53-2.53,1.6-2.85,.08-.32,.13-.54,.13-.67,0-.65-.49-.98-1.46-.98s-1.44-.25-1.44-.75,.51-.77,1.52-.77c.53,0,1.05,.06,1.58,.19,.53,.11,1.07,.17,1.63,.17s1.07-.05,1.54-.17c.48-.13,1-.19,1.54-.19,1.07,0,1.6,.27,1.6,.81s-.36,.83-1.08,.83-1.33,.19-1.77,.56c-.71,.61-1.61,1.77-2.71,3.46l-6.63,9.96v8.42c0,2.33,.1,3.83,.31,4.5s.46,1.14,.75,1.4c.3,.25,.71,.38,1.21,.38l1.1-.13c.55,0,.83,.23,.83,.69,0,.57-.49,.85-1.48,.85-.52,0-1.06-.05-1.63-.15-1.85-.29-3.43-.34-4.75-.15-1.32,.19-2.22,.29-2.71,.29Z"/><path class="f" d="M203.82,192.51c.74-1.52,1.15-2.58,2.05-5.13l-3.53-.78c-2.54,8.3-6.24,14.08-12.11,18.89l.54,1.03c5.09-2.58,9.28-6.77,12.11-12.07h13.75c-1.03,5.54-4.22,12.28-7.84,16.5-3.86,4.52-10.43,8.34-18.47,10.59l.24,1.27c9.77-1.84,15.4-4.52,20.57-9.85,4.77-5.09,8.01-12.11,9.44-20.45h-16.75Z"/><path class="f" d="M237.63,223.34c5.21-.78,10.18-3.16,13.43-6.49,3.57-3.82,4.47-7.39,4.47-17.24v-12.56h-3.32v12.69c-.08,8.54-.66,11.24-3,14.53-2.58,3.57-6.48,6.16-11.78,7.84l.2,1.23Zm-5.83-35.72v22.7h3.33v-22.7h-3.33Z"/><path class="f" d="M263.94,217.96h36.29v-2.34h-36.29v2.34Zm5.34-23.73h25.41v-2.34h-25.41v2.34Z"/><path class="f" d="M314.26,223.26c4.84-.9,9.03-3.24,12.36-6.94,3.04-3.32,5.25-8.5,6.97-16.42l-3.04-1.07c-1.48,6.65-3.36,11.82-5.46,14.78-2.88,4.1-6.49,6.85-11.13,8.49l.29,1.15Zm.45-14.9c-1.28-4.23-3.33-6.94-6.82-9.16l-.57,.49c1.93,2.42,3.32,5.42,4.52,9.77l2.88-1.11Zm8.33-1.03c-1.28-4.07-3.29-6.9-6.53-9.16l-.62,.49c2.02,2.95,3.29,5.95,4.19,9.77l2.96-1.11Z"/><path class="f" d="M357.48,192.51c.74-1.52,1.15-2.58,2.05-5.13l-3.53-.78c-2.54,8.3-6.24,14.08-12.11,18.89l.54,1.03c5.09-2.58,9.28-6.77,12.11-12.07h13.75c-1.03,5.54-4.22,12.28-7.84,16.5-3.86,4.52-10.43,8.34-18.47,10.59l.24,1.27c9.77-1.84,15.4-4.52,20.57-9.85,4.77-5.09,8.01-12.11,9.44-20.45h-16.75Z"/><path class="f" d="M58.23,245.37c-.36,0-.54-.1-.54-.31,0-.15,.1-.23,.31-.23l.4,.04c.33,0,.56-.19,.69-.56,.08-.32,.13-.89,.13-1.71v-5.9c0-.8-.04-1.33-.13-1.58-.07-.26-.16-.44-.27-.52-.1-.09-.24-.15-.42-.15l-.4,.02c-.21,0-.31-.07-.31-.23,0-.21,.15-.31,.46-.31s.57,.02,.79,.06c.23,.04,.46,.06,.69,.06,.59,0,1.09-.03,1.48-.08,.58-.08,1.26-.13,2.02-.13s1.52,.14,2.27,.42c.76,.28,1.42,.67,1.98,1.17,1.15,1.06,1.73,2.45,1.73,4.19,0,1.64-.57,3-1.71,4.08-1.18,1.14-2.72,1.71-4.63,1.71-.47,0-.93-.02-1.35-.06-.81-.07-1.39-.1-1.75-.1l-1.44,.13Zm2.29-3.98c0,1,.03,1.93,.08,2.77,.73,.39,1.57,.58,2.5,.58,.67,0,1.36-.16,2.08-.48,1.15-.5,1.9-1.4,2.25-2.69,.13-.46,.19-1.05,.19-1.77s-.13-1.44-.38-2.13c-.25-.68-.6-1.25-1.04-1.71-.91-.97-2.12-1.46-3.65-1.46-1.1,0-1.73,.15-1.9,.44-.08,.17-.14,.35-.15,.54v5.9Z"/><path class="f" d="M71.79,245.24c-.28,0-.54,.02-.79,.06s-.52,.06-.81,.06c-.28,0-.42-.09-.42-.27,0-.19,.14-.29,.4-.29s.46-.05,.58-.15c.18-.17,.36-.44,.54-.83,.19-.39,.36-.75,.52-1.08,.17-.34,.34-.75,.54-1.21,.21-.46,.44-.96,.69-1.52,.25-.55,.51-1.15,.79-1.77,.71-1.65,1.17-2.76,1.4-3.33,.23-.57,.36-.88,.38-.94,.03-.07,.05-.13,.08-.19,.07-.11,.13-.17,.19-.17,.05,0,.09,.01,.13,.02,.03,.02,.06,.04,.1,.08,.08,.1,.17,.25,.25,.46s.19,.49,.33,.85c.15,.36,.32,.77,.5,1.21,.18,.45,.38,.93,.58,1.46,.21,.52,.42,1.03,.63,1.54,.21,.52,.41,1.02,.6,1.5,.19,.49,.36,.93,.52,1.31,.48,1.16,.79,1.85,.92,2.08,.14,.22,.26,.39,.35,.48,.14,.13,.34,.19,.6,.19s.42,.1,.42,.29c0,.18-.18,.27-.52,.27-.16,0-.29-.01-.4-.02-.11-.02-.22-.03-.33-.04-.32-.04-.6-.06-.85-.06l-1.6,.13c-.36,0-.54-.1-.54-.31,0-.17,.09-.25,.29-.25l.5,.06c.21,0,.34-.04,.42-.13,.07-.09,.1-.21,.1-.35,0-.26-.11-.67-.33-1.23l-.69-1.73h-4.65c-.13,.33-.25,.64-.38,.92-.11,.28-.21,.55-.29,.81-.16,.42-.23,.75-.23,1s.04,.42,.13,.54c.08,.11,.24,.17,.48,.17l.5-.04c.21,0,.31,.08,.31,.23,0,.21-.18,.31-.54,.31l-1.4-.13Zm5.77-4.52l-1.98-4.98c-.39,.97-1.08,2.64-2.06,4.98h4.04Z"/><path class="f" d="M85.36,245.37c-.36,0-.54-.1-.54-.31,0-.15,.1-.23,.31-.23l.4,.04c.33,0,.55-.19,.67-.56,.11-.32,.17-.89,.17-1.71v-2.92l-2.65-3.88c-.35-.51-.6-.84-.75-.98-.22-.21-.46-.31-.71-.31s-.38-.09-.38-.29c0-.08,.04-.15,.13-.21,.09-.05,.24-.08,.44-.08s.4,.02,.6,.06,.44,.06,.69,.06l1.35-.13c.36,0,.54,.09,.54,.27s-.16,.27-.46,.27-.46,.1-.46,.31c0,.11,.09,.32,.29,.63l2.31,3.5,1.77-2.81c.36-.57,.55-.91,.58-1.02,.03-.11,.04-.19,.04-.25,0-.23-.18-.35-.52-.35s-.52-.09-.52-.27,.18-.27,.54-.27c.19,0,.38,.02,.56,.06,.19,.04,.39,.06,.58,.06,.21,0,.4-.02,.56-.06s.34-.06,.54-.06c.39,0,.58,.1,.58,.29s-.13,.29-.38,.29c-.28,0-.49,.08-.65,.23-.27,.21-.59,.62-.98,1.23l-2.4,3.58v3.04c0,.85,.03,1.39,.1,1.63,.08,.24,.18,.41,.29,.5,.11,.1,.26,.15,.44,.15l.4-.04c.19,0,.29,.08,.29,.23,0,.21-.18,.31-.52,.31-.18,0-.38-.02-.58-.04-.67-.11-1.24-.13-1.73-.06-.47,.07-.8,.1-.98,.1Z"/><path class="f" d="M103.07,234.18l.35-.04c.15,0,.23,.14,.25,.4,.03,.25,.05,.46,.08,.63,.03,.16,.05,.29,.08,.42,.03,.13,.05,.24,.06,.33,.01,.08,.02,.16,.02,.21,0,.06-.04,.11-.1,.17-.06,.06-.12,.08-.19,.08-.13,0-.25-.14-.38-.42-.24-.51-.43-.84-.58-1-.36-.32-.9-.48-1.6-.48-.97,0-1.63,.29-1.96,.88-.11,.2-.17,.43-.17,.71s.06,.52,.19,.75c.14,.24,.34,.48,.6,.73,.28,.24,.63,.49,1.04,.77,.42,.28,.86,.58,1.33,.92,.48,.33,.86,.64,1.13,.9,.26,.27,.48,.52,.65,.77,.32,.5,.48,.99,.48,1.46s-.07,.88-.21,1.25c-.13,.36-.34,.68-.65,.94-.66,.61-1.61,.92-2.88,.92-.66,0-1.37-.14-2.15-.42-.18-.07-.29-.14-.33-.21-.04-.09-.08-.28-.13-.54-.04-.26-.09-.5-.15-.71-.06-.21-.1-.4-.15-.56l-.1-.44c-.04-.13-.06-.23-.06-.31,0-.21,.07-.31,.23-.31,.19,0,.34,.16,.44,.46,.15,.56,.29,.91,.42,1.06,.47,.63,1.02,1.04,1.65,1.23,.18,.06,.42,.08,.73,.08s.6-.05,.9-.15c.3-.09,.55-.22,.75-.38,.38-.29,.56-.65,.56-1.08s-.14-.84-.42-1.19c-.28-.34-.61-.65-1-.9-.39-.26-.68-.45-.88-.56-.18-.13-.35-.24-.52-.35-1.42-.94-2.25-1.88-2.5-2.81-.07-.25-.1-.53-.1-.83s.07-.65,.23-.98c.17-.33,.4-.63,.69-.88,.64-.55,1.46-.83,2.46-.83,.47,0,.84,.05,1.13,.15,.39,.13,.64,.19,.75,.19Z"/><path class="f" d="M109.58,234.47l-.4-.02c-.33,0-.56,.19-.69,.56-.11,.32-.17,.89-.17,1.69v4.13c0,.78,.05,1.33,.17,1.67,.11,.33,.26,.64,.46,.92,.21,.28,.45,.52,.73,.71,.55,.39,1.17,.58,1.85,.58s1.26-.07,1.71-.23c.46-.17,.82-.42,1.08-.75,.5-.59,.75-1.57,.75-2.94l-.02-4.08c0-.8-.04-1.33-.13-1.58-.07-.26-.16-.44-.27-.52-.11-.09-.25-.15-.42-.15l-.42,.02c-.2,0-.29-.07-.29-.23,0-.21,.15-.31,.46-.31s.57,.02,.79,.06c.23,.04,.48,.06,.73,.06l1.38-.13c.36,0,.54,.1,.54,.31,0,.16-.1,.23-.31,.23l-.4-.02c-.33,0-.56,.19-.67,.56-.1,.32-.15,.89-.15,1.69l-.02,4.52c0,1.24-.4,2.25-1.19,3.04s-1.85,1.19-3.17,1.19c-1.45,0-2.58-.4-3.42-1.19-.86-.83-1.29-1.98-1.29-3.44v-4.13c0-.8-.04-1.33-.13-1.58-.08-.26-.18-.44-.29-.52-.11-.09-.25-.15-.42-.15l-.42,.02c-.2,0-.29-.07-.29-.23,0-.21,.15-.31,.46-.31s.6,.02,.9,.06,.59,.06,.92,.06,.65-.02,.96-.06c.3-.04,.61-.06,.92-.06s.46,.1,.46,.31c0,.16-.1,.23-.31,.23Z"/><path class="f" d="M118.74,245.37c-.36,0-.54-.1-.54-.31,0-.15,.1-.23,.31-.23l.4,.04c.33,0,.56-.19,.69-.56,.08-.32,.13-.89,.13-1.71v-5.9c0-.8-.04-1.33-.13-1.58-.07-.26-.16-.44-.27-.52-.1-.09-.24-.15-.42-.15l-.4,.02c-.21,0-.31-.07-.31-.23,0-.21,.15-.31,.46-.31s.59,.02,.88,.06c.28,.04,.57,.06,.88,.06s.57-.02,.85-.06c.28-.04,.63-.06,1.06-.06s.89,.07,1.38,.21c.5,.14,.92,.34,1.27,.6,.69,.53,1.04,1.22,1.04,2.08,0,.97-.4,1.81-1.19,2.52-.25,.22-.54,.41-.85,.56l2.71,3.94c.3,.45,.65,.72,1.02,.81,.09,.03,.23,.05,.4,.06,.29,.03,.44,.13,.44,.29,0,.16-.16,.23-.48,.23h-1.58c-.39,0-.74-.25-1.04-.75l-2.1-3.35c-.2-.3-.39-.52-.56-.65-.17-.13-.43-.19-.79-.19s-.66,.02-.94,.04v2.25c0,.85,.03,1.39,.1,1.63,.08,.24,.18,.41,.29,.5,.11,.1,.26,.15,.44,.15l.4-.04c.19,0,.29,.08,.29,.23,0,.21-.18,.31-.52,.31-.2,0-.39-.02-.58-.04-.67-.11-1.24-.13-1.73-.06-.47,.07-.8,.1-.98,.1Zm2.29-5.77c.36,.04,.71,.06,1.04,.06h.54c.53,0,.98-.18,1.35-.54,.44-.43,.67-1.01,.67-1.75,0-.89-.27-1.59-.81-2.13-.52-.48-1.17-.73-1.96-.73-.28,0-.49,.04-.63,.13-.14,.07-.21,.2-.21,.4v4.56Z"/><path class="f" d="M140.22,239.93c.22,0,.33,.08,.33,.23,0,.08-.03,.15-.08,.19-.04,.04-.12,.08-.23,.13-.1,.04-.18,.1-.23,.17-.06,.06-.1,.15-.13,.27-.06,.25-.08,.55-.08,.9v.67c.01,.11,.03,.22,.04,.33,.03,.41,.05,.67,.08,.79,.03,.13,.04,.25,.04,.38,0,.11-.08,.24-.23,.38-.14,.13-.33,.25-.58,.38-.24,.11-.52,.22-.83,.31-.31,.08-.62,.16-.94,.23-.7,.14-1.33,.21-1.9,.21-2,0-3.58-.57-4.73-1.71-1.06-1.04-1.58-2.36-1.58-3.96,0-1.79,.58-3.23,1.75-4.33,1.17-1.09,2.72-1.65,4.67-1.65,1.43,0,2.57,.18,3.42,.52,.17,.07,.28,.15,.35,.23,.11,.16,.17,.39,.19,.71,.03,.31,.04,.52,.04,.65,.03,.28,.04,.45,.04,.52,0,.22-.08,.33-.23,.33-.14,0-.25-.14-.33-.42-.08-.28-.24-.53-.48-.77-.24-.25-.52-.46-.85-.63-.67-.33-1.41-.5-2.23-.5s-1.49,.11-2.06,.33c-.57,.21-1.05,.52-1.44,.94-.83,.86-1.25,2.02-1.25,3.48,0,1.56,.48,2.87,1.44,3.94,.44,.52,.97,.92,1.58,1.21,.63,.29,1.3,.44,2.04,.44,1.17,0,1.93-.22,2.29-.67,.22-.29,.33-.69,.33-1.19v-1.81c0-.25-.06-.41-.19-.48-.16-.08-.38-.13-.67-.13-.47,0-.71-.1-.71-.31s.19-.31,.56-.31l1.67,.1,1.1-.08Z"/><path class="f" d="M142.11,245.37c-.31,0-.46-.1-.46-.31,0-.15,.09-.23,.29-.23l.42,.04c.3,0,.51-.14,.63-.42,.13-.3,.19-.92,.19-1.83v-5.92c0-.9-.04-1.47-.13-1.71-.08-.23-.18-.38-.29-.44-.1-.07-.23-.1-.4-.1l-.42,.02c-.2,0-.29-.07-.29-.23,0-.21,.15-.31,.44-.31s.55,.01,.73,.02c.19,.02,.4,.03,.6,.04,.51,.04,.92,.06,1.21,.06s.63,0,.96-.02c.33-.01,.7-.03,1.1-.04,1.08-.04,1.83-.06,2.25-.06s.67,.03,.71,.08c.05,.04,.08,.11,.08,.21,0,.08-.01,.17-.02,.25v.25c-.02,.13-.04,.31-.06,.56-.03,.25-.06,.43-.1,.52-.03,.08-.08,.13-.17,.13-.07,0-.12-.01-.15-.04-.03-.04-.06-.13-.1-.25-.04-.14-.13-.26-.25-.38-.13-.13-.31-.23-.56-.31-.5-.15-1.43-.23-2.77-.23h-.75c-.14,0-.23,.02-.27,.06-.03,.04-.04,.14-.04,.27v3.5c.67,.08,1.21,.13,1.65,.13h.94c.18-.01,.33-.03,.46-.06,.22-.04,.38-.14,.48-.29,.18-.29,.33-.44,.46-.44,.15,0,.23,.08,.23,.23l-.29,1.19,.02,.63c0,.41-.09,.6-.27,.6-.17,0-.25-.1-.25-.31,0-.22-.02-.38-.04-.48-.03-.11-.1-.19-.21-.25-.18-.09-.62-.15-1.31-.15s-1.3,.04-1.85,.1v1.98c0,1.22,.03,2.24,.08,3.04,.46,.1,.95,.15,1.48,.15s.98-.01,1.35-.04c.38-.03,.69-.08,.96-.17,.54-.17,.94-.47,1.21-.92,.11-.21,.22-.31,.33-.31s.17,.08,.17,.25c0,.07-.02,.16-.06,.25-.04,.16-.1,.38-.19,.67-.08,.28-.16,.48-.21,.6-.04,.13-.09,.22-.15,.29-.08,.11-.25,.17-.5,.17h-.71c-.22,0-.46-.01-.71-.02-.29-.02-.74-.04-1.33-.06-1.52-.07-2.41-.09-2.67-.08-.27,.03-.47,.05-.6,.06-.13,.01-.26,.03-.4,.04-.13,.01-.27,.02-.44,.02Z"/><path class="f" d="M151.82,245.37c-.36,0-.54-.1-.54-.31,0-.15,.1-.23,.31-.23l.4,.04c.33,0,.56-.19,.69-.56,.08-.32,.13-.89,.13-1.71v-5.9c0-.8-.04-1.33-.13-1.58-.07-.26-.16-.44-.27-.52-.1-.09-.24-.15-.42-.15l-.4,.02c-.21,0-.31-.07-.31-.23,0-.21,.15-.31,.46-.31s.59,.02,.88,.06c.28,.04,.57,.06,.88,.06s.57-.02,.85-.06c.28-.04,.63-.06,1.06-.06s.89,.07,1.38,.21c.5,.14,.92,.34,1.27,.6,.69,.53,1.04,1.22,1.04,2.08,0,.97-.4,1.81-1.19,2.52-.25,.22-.54,.41-.85,.56l2.71,3.94c.3,.45,.65,.72,1.02,.81,.09,.03,.23,.05,.4,.06,.29,.03,.44,.13,.44,.29,0,.16-.16,.23-.48,.23h-1.58c-.39,0-.74-.25-1.04-.75l-2.1-3.35c-.2-.3-.39-.52-.56-.65-.17-.13-.43-.19-.79-.19s-.66,.02-.94,.04v2.25c0,.85,.03,1.39,.1,1.63,.08,.24,.18,.41,.29,.5,.11,.1,.26,.15,.44,.15l.4-.04c.19,0,.29,.08,.29,.23,0,.21-.18,.31-.52,.31-.2,0-.39-.02-.58-.04-.67-.11-1.24-.13-1.73-.06-.47,.07-.8,.1-.98,.1Zm2.29-5.77c.36,.04,.71,.06,1.04,.06h.54c.53,0,.98-.18,1.35-.54,.44-.43,.67-1.01,.67-1.75,0-.89-.27-1.59-.81-2.13-.52-.48-1.17-.73-1.96-.73-.28,0-.49,.04-.63,.13-.14,.07-.21,.2-.21,.4v4.56Z"/><path class="f" d="M165.22,245.37c-.36,0-.54-.1-.54-.31,0-.15,.1-.23,.31-.23l.4,.04c.33,0,.55-.19,.67-.56,.11-.32,.17-.89,.17-1.71v-2.92l-2.65-3.88c-.35-.51-.6-.84-.75-.98-.22-.21-.46-.31-.71-.31s-.38-.09-.38-.29c0-.08,.04-.15,.13-.21,.09-.05,.24-.08,.44-.08s.4,.02,.6,.06,.44,.06,.69,.06l1.35-.13c.36,0,.54,.09,.54,.27s-.16,.27-.46,.27-.46,.1-.46,.31c0,.11,.09,.32,.29,.63l2.31,3.5,1.77-2.81c.36-.57,.55-.91,.58-1.02,.03-.11,.04-.19,.04-.25,0-.23-.18-.35-.52-.35s-.52-.09-.52-.27,.18-.27,.54-.27c.19,0,.38,.02,.56,.06,.19,.04,.39,.06,.58,.06,.21,0,.4-.02,.56-.06s.34-.06,.54-.06c.39,0,.58,.1,.58,.29s-.13,.29-.38,.29c-.28,0-.49,.08-.65,.23-.27,.21-.59,.62-.98,1.23l-2.4,3.58v3.04c0,.85,.03,1.39,.1,1.63,.08,.24,.18,.41,.29,.5,.11,.1,.26,.15,.44,.15l.4-.04c.19,0,.29,.08,.29,.23,0,.21-.18,.31-.52,.31-.18,0-.38-.02-.58-.04-.67-.11-1.24-.13-1.73-.06-.47,.07-.8,.1-.98,.1Z"/><path class="f" d="M178.31,245.24c-.28,0-.54,.02-.79,.06s-.52,.06-.81,.06c-.28,0-.42-.09-.42-.27,0-.19,.14-.29,.4-.29s.46-.05,.58-.15c.18-.17,.36-.44,.54-.83,.19-.39,.36-.75,.52-1.08,.17-.34,.34-.75,.54-1.21,.21-.46,.44-.96,.69-1.52,.25-.55,.51-1.15,.79-1.77,.71-1.65,1.17-2.76,1.4-3.33,.23-.57,.36-.88,.38-.94,.03-.07,.05-.13,.08-.19,.07-.11,.13-.17,.19-.17,.05,0,.09,.01,.13,.02,.03,.02,.06,.04,.1,.08,.08,.1,.17,.25,.25,.46s.19,.49,.33,.85c.15,.36,.32,.77,.5,1.21,.18,.45,.38,.93,.58,1.46,.21,.52,.42,1.03,.63,1.54,.21,.52,.41,1.02,.6,1.5,.19,.49,.36,.93,.52,1.31,.48,1.16,.79,1.85,.92,2.08,.14,.22,.26,.39,.35,.48,.14,.13,.34,.19,.6,.19s.42,.1,.42,.29c0,.18-.18,.27-.52,.27-.16,0-.29-.01-.4-.02-.11-.02-.22-.03-.33-.04-.32-.04-.6-.06-.85-.06l-1.6,.13c-.36,0-.54-.1-.54-.31,0-.17,.09-.25,.29-.25l.5,.06c.21,0,.34-.04,.42-.13,.07-.09,.1-.21,.1-.35,0-.26-.11-.67-.33-1.23l-.69-1.73h-4.65c-.13,.33-.25,.64-.38,.92-.11,.28-.21,.55-.29,.81-.16,.42-.23,.75-.23,1s.04,.42,.13,.54c.08,.11,.24,.17,.48,.17l.5-.04c.21,0,.31,.08,.31,.23,0,.21-.18,.31-.54,.31l-1.4-.13Zm5.77-4.52l-1.98-4.98c-.39,.97-1.08,2.64-2.06,4.98h4.04Z"/><path class="f" d="M189.35,245.37c-.36,0-.54-.1-.54-.31,0-.15,.1-.23,.31-.23l.4,.04c.33,0,.55-.19,.67-.56,.11-.32,.17-.89,.17-1.71v-5.88c0-.82-.04-1.35-.13-1.6s-.18-.42-.29-.5c-.1-.09-.24-.15-.42-.15l-.4,.04c-.21,0-.31-.08-.31-.25,0-.22,.18-.33,.54-.33l1.1,.13c.23,0,.44-.01,.63-.04l7.69,8.94v-6.25c0-.8-.05-1.33-.15-1.58-.08-.26-.18-.44-.29-.52-.11-.09-.26-.15-.44-.15l-.4,.02c-.21,0-.31-.07-.31-.23,0-.21,.18-.31,.54-.31,.14,0,.32,.02,.56,.06,.29,.04,.55,.06,.79,.06s.48-.02,.71-.06c.23-.04,.51-.06,.81-.06s.46,.1,.46,.31c0,.16-.1,.23-.31,.23l-.4-.02c-.35,0-.58,.19-.69,.56-.08,.29-.13,.85-.13,1.69v8.44c0,.18-.02,.3-.06,.35-.03,.07-.08,.1-.15,.1-.11,0-.27-.12-.48-.35l-7.69-8.9v6.25c0,.85,.03,1.39,.1,1.63,.07,.24,.16,.41,.27,.5,.11,.1,.26,.15,.44,.15l.4-.04c.19,0,.29,.08,.29,.23,0,.21-.16,.31-.48,.31s-.6-.02-.85-.06c-.24-.04-.47-.06-.71-.06s-.47,.02-.69,.06c-.22,.04-.42,.06-.58,.06Z"/><path class="f" d="M202.3,245.37c-.36,0-.54-.1-.54-.31,0-.15,.1-.23,.31-.23l.4,.04c.33,0,.56-.19,.69-.56,.08-.32,.13-.89,.13-1.71v-5.9c0-.8-.04-1.33-.13-1.58-.07-.26-.16-.44-.27-.52-.1-.09-.24-.15-.42-.15l-.4,.02c-.21,0-.31-.07-.31-.23,0-.21,.15-.31,.46-.31s.57,.02,.79,.06c.23,.04,.46,.06,.69,.06,.59,0,1.09-.03,1.48-.08,.58-.08,1.26-.13,2.02-.13s1.52,.14,2.27,.42c.76,.28,1.42,.67,1.98,1.17,1.15,1.06,1.73,2.45,1.73,4.19,0,1.64-.57,3-1.71,4.08-1.18,1.14-2.72,1.71-4.63,1.71-.47,0-.93-.02-1.35-.06-.81-.07-1.39-.1-1.75-.1l-1.44,.13Zm2.29-3.98c0,1,.03,1.93,.08,2.77,.73,.39,1.57,.58,2.5,.58,.67,0,1.36-.16,2.08-.48,1.15-.5,1.9-1.4,2.25-2.69,.13-.46,.19-1.05,.19-1.77s-.13-1.44-.38-2.13c-.25-.68-.6-1.25-1.04-1.71-.91-.97-2.12-1.46-3.65-1.46-1.1,0-1.73,.15-1.9,.44-.08,.17-.14,.35-.15,.54v5.9Z"/><path class="f" d="M220.23,245.24c-.28,0-.54,.02-.79,.06s-.52,.06-.81,.06c-.28,0-.42-.09-.42-.27,0-.19,.14-.29,.4-.29s.46-.05,.58-.15c.18-.17,.36-.44,.54-.83,.19-.39,.36-.75,.52-1.08,.17-.34,.34-.75,.54-1.21,.21-.46,.44-.96,.69-1.52,.25-.55,.51-1.15,.79-1.77,.71-1.65,1.17-2.76,1.4-3.33,.23-.57,.36-.88,.38-.94,.03-.07,.05-.13,.08-.19,.07-.11,.13-.17,.19-.17,.05,0,.09,.01,.13,.02,.03,.02,.06,.04,.1,.08,.08,.1,.17,.25,.25,.46s.19,.49,.33,.85c.15,.36,.32,.77,.5,1.21,.18,.45,.38,.93,.58,1.46,.21,.52,.42,1.03,.63,1.54,.21,.52,.41,1.02,.6,1.5,.19,.49,.36,.93,.52,1.31,.48,1.16,.79,1.85,.92,2.08,.14,.22,.26,.39,.35,.48,.14,.13,.34,.19,.6,.19s.42,.1,.42,.29c0,.18-.18,.27-.52,.27-.16,0-.29-.01-.4-.02-.11-.02-.22-.03-.33-.04-.32-.04-.6-.06-.85-.06l-1.6,.13c-.36,0-.54-.1-.54-.31,0-.17,.09-.25,.29-.25l.5,.06c.21,0,.34-.04,.42-.13,.07-.09,.1-.21,.1-.35,0-.26-.11-.67-.33-1.23l-.69-1.73h-4.65c-.13,.33-.25,.64-.38,.92-.11,.28-.21,.55-.29,.81-.16,.42-.23,.75-.23,1s.04,.42,.13,.54c.08,.11,.24,.17,.48,.17l.5-.04c.21,0,.31,.08,.31,.23,0,.21-.18,.31-.54,.31l-1.4-.13Zm5.77-4.52l-1.98-4.98c-.39,.97-1.08,2.64-2.06,4.98h4.04Z"/><path class="f" d="M231.28,245.37c-.36,0-.54-.1-.54-.31,0-.15,.1-.23,.31-.23l.4,.04c.33,0,.55-.19,.67-.56,.11-.32,.17-.89,.17-1.71v-5.88c0-.82-.04-1.35-.13-1.6s-.18-.42-.29-.5c-.1-.09-.24-.15-.42-.15l-.4,.04c-.21,0-.31-.08-.31-.25,0-.22,.18-.33,.54-.33l1.1,.13c.23,0,.44-.01,.63-.04l7.69,8.94v-6.25c0-.8-.05-1.33-.15-1.58-.08-.26-.18-.44-.29-.52-.11-.09-.26-.15-.44-.15l-.4,.02c-.21,0-.31-.07-.31-.23,0-.21,.18-.31,.54-.31,.14,0,.32,.02,.56,.06,.29,.04,.55,.06,.79,.06s.48-.02,.71-.06c.23-.04,.51-.06,.81-.06s.46,.1,.46,.31c0,.16-.1,.23-.31,.23l-.4-.02c-.35,0-.58,.19-.69,.56-.08,.29-.13,.85-.13,1.69v8.44c0,.18-.02,.3-.06,.35-.03,.07-.08,.1-.15,.1-.11,0-.27-.12-.48-.35l-7.69-8.9v6.25c0,.85,.03,1.39,.1,1.63,.07,.24,.16,.41,.27,.5,.11,.1,.26,.15,.44,.15l.4-.04c.19,0,.29,.08,.29,.23,0,.21-.16,.31-.48,.31s-.6-.02-.85-.06c-.24-.04-.47-.06-.71-.06s-.47,.02-.69,.06c-.22,.04-.42,.06-.58,.06Z"/><path class="f" d="M244.12,245.37c-.31,0-.46-.1-.46-.31,0-.15,.09-.23,.29-.23l.42,.04c.3,0,.51-.14,.63-.42,.13-.3,.19-.92,.19-1.83v-5.92c0-.9-.04-1.47-.13-1.71-.08-.23-.18-.38-.29-.44-.1-.07-.23-.1-.4-.1l-.42,.02c-.2,0-.29-.07-.29-.23,0-.21,.15-.31,.44-.31s.55,.01,.73,.02c.19,.02,.4,.03,.6,.04,.51,.04,.92,.06,1.21,.06s.63,0,.96-.02c.33-.01,.7-.03,1.1-.04,1.08-.04,1.83-.06,2.25-.06s.67,.03,.71,.08c.05,.04,.08,.11,.08,.21,0,.08-.01,.17-.02,.25v.25c-.02,.13-.04,.31-.06,.56-.03,.25-.06,.43-.1,.52-.03,.08-.08,.13-.17,.13-.07,0-.12-.01-.15-.04-.03-.04-.06-.13-.1-.25-.04-.14-.13-.26-.25-.38-.13-.13-.31-.23-.56-.31-.5-.15-1.43-.23-2.77-.23h-.75c-.14,0-.23,.02-.27,.06-.03,.04-.04,.14-.04,.27v3.5c.67,.08,1.21,.13,1.65,.13h.94c.18-.01,.33-.03,.46-.06,.22-.04,.38-.14,.48-.29,.18-.29,.33-.44,.46-.44,.15,0,.23,.08,.23,.23l-.29,1.19,.02,.63c0,.41-.09,.6-.27,.6-.17,0-.25-.1-.25-.31,0-.22-.02-.38-.04-.48-.03-.11-.1-.19-.21-.25-.18-.09-.62-.15-1.31-.15s-1.3,.04-1.85,.1v1.98c0,1.22,.03,2.24,.08,3.04,.46,.1,.95,.15,1.48,.15s.98-.01,1.35-.04c.38-.03,.69-.08,.96-.17,.54-.17,.94-.47,1.21-.92,.11-.21,.22-.31,.33-.31s.17,.08,.17,.25c0,.07-.02,.16-.06,.25-.04,.16-.1,.38-.19,.67-.08,.28-.16,.48-.21,.6-.04,.13-.09,.22-.15,.29-.08,.11-.25,.17-.5,.17h-.71c-.22,0-.46-.01-.71-.02-.29-.02-.74-.04-1.33-.06-1.52-.07-2.41-.09-2.67-.08-.27,.03-.47,.05-.6,.06-.13,.01-.26,.03-.4,.04-.13,.01-.27,.02-.44,.02Z"/><path class="f" d="M259.21,234.18l.35-.04c.15,0,.23,.14,.25,.4,.03,.25,.05,.46,.08,.63,.03,.16,.05,.29,.08,.42,.03,.13,.05,.24,.06,.33,.01,.08,.02,.16,.02,.21,0,.06-.04,.11-.1,.17-.06,.06-.12,.08-.19,.08-.13,0-.25-.14-.38-.42-.24-.51-.43-.84-.58-1-.36-.32-.9-.48-1.6-.48-.97,0-1.63,.29-1.96,.88-.11,.2-.17,.43-.17,.71s.06,.52,.19,.75c.14,.24,.34,.48,.6,.73,.28,.24,.63,.49,1.04,.77,.42,.28,.86,.58,1.33,.92,.48,.33,.86,.64,1.13,.9,.26,.27,.48,.52,.65,.77,.32,.5,.48,.99,.48,1.46s-.07,.88-.21,1.25c-.13,.36-.34,.68-.65,.94-.66,.61-1.61,.92-2.88,.92-.66,0-1.37-.14-2.15-.42-.18-.07-.29-.14-.33-.21-.04-.09-.08-.28-.13-.54-.04-.26-.09-.5-.15-.71-.06-.21-.1-.4-.15-.56l-.1-.44c-.04-.13-.06-.23-.06-.31,0-.21,.07-.31,.23-.31,.19,0,.34,.16,.44,.46,.15,.56,.29,.91,.42,1.06,.47,.63,1.02,1.04,1.65,1.23,.18,.06,.42,.08,.73,.08s.6-.05,.9-.15c.3-.09,.55-.22,.75-.38,.38-.29,.56-.65,.56-1.08s-.14-.84-.42-1.19c-.28-.34-.61-.65-1-.9-.39-.26-.68-.45-.88-.56-.18-.13-.35-.24-.52-.35-1.42-.94-2.25-1.88-2.5-2.81-.07-.25-.1-.53-.1-.83s.07-.65,.23-.98c.17-.33,.4-.63,.69-.88,.64-.55,1.46-.83,2.46-.83,.47,0,.84,.05,1.13,.15,.39,.13,.64,.19,.75,.19Z"/><path class="f" d="M264.64,245.37c-.36,0-.54-.1-.54-.31,0-.15,.1-.23,.31-.23l.4,.04c.33,0,.55-.19,.67-.56,.09-.32,.15-.89,.15-1.71v-7.79h-.21c-.97,0-1.75,.1-2.33,.29-.41,.16-.68,.41-.81,.75-.11,.25-.22,.38-.33,.38-.17,0-.25-.09-.25-.27,0-.05,.01-.11,.04-.19,.03-.08,.05-.17,.08-.27,.08-.26,.13-.54,.15-.83,.03-.29,.06-.48,.1-.58,.05-.09,.13-.15,.21-.15s.15,.01,.21,.02c.07,.02,.17,.03,.29,.04,.33,.04,.76,.06,1.27,.06h5.29c.4,0,.69-.02,.88-.06,.19-.04,.33-.06,.42-.06,.18,0,.27,.08,.27,.25,0,.1-.02,.21-.04,.33-.08,.27-.14,.5-.17,.71-.03,.2-.06,.35-.08,.48-.02,.13-.04,.22-.06,.29-.04,.13-.11,.19-.21,.19-.08,0-.14-.03-.17-.08-.02-.07-.04-.19-.06-.38-.03-.19-.08-.34-.15-.46-.07-.13-.16-.21-.27-.27-.2-.13-.52-.19-.96-.19h-1.79v7.79c0,.85,.03,1.39,.1,1.63,.08,.24,.18,.41,.29,.5,.11,.1,.26,.15,.44,.15l.4-.04c.19,0,.29,.08,.29,.23,0,.21-.18,.31-.52,.31-.2,0-.4-.02-.6-.04-.67-.11-1.24-.13-1.71-.06-.47,.07-.8,.1-.98,.1Z"/><path class="f" d="M272.45,245.37c-.36,0-.54-.1-.54-.31,0-.15,.1-.23,.31-.23l.4,.04c.3,0,.51-.15,.63-.44,.13-.32,.19-.93,.19-1.83v-5.9c0-.92-.05-1.49-.15-1.73-.1-.23-.2-.38-.29-.44-.1-.05-.22-.08-.38-.08l-.4,.02c-.21,0-.31-.07-.31-.23,0-.21,.15-.31,.46-.31s.59,.02,.88,.06c.28,.04,.57,.06,.88,.06s.57-.02,.83-.06c.26-.04,.55-.06,.85-.06s.46,.1,.46,.31c0,.16-.1,.23-.29,.23l-.4-.02c-.31,0-.52,.15-.63,.44-.14,.32-.21,.93-.21,1.81v1.9h5.9v-1.9c0-.92-.05-1.49-.15-1.73-.1-.23-.2-.38-.29-.44-.1-.05-.22-.08-.38-.08l-.4,.02c-.21,0-.31-.07-.31-.23,0-.21,.15-.31,.46-.31s.59,.02,.88,.06c.28,.04,.56,.06,.85,.06s.59-.02,.85-.06c.26-.04,.55-.06,.85-.06s.46,.1,.46,.31c0,.16-.1,.23-.29,.23l-.4-.02c-.31,0-.52,.15-.63,.44-.14,.32-.21,.93-.21,1.81v5.9c0,.91,.05,1.48,.15,1.73,.09,.24,.19,.39,.29,.46,.11,.06,.24,.08,.4,.08l.4-.04c.19,0,.29,.08,.29,.23,0,.21-.18,.31-.52,.31-.2,0-.39-.02-.58-.04-.32-.06-.67-.08-1.04-.08s-.69,.02-.98,.06c-.28,.04-.51,.06-.69,.06-.36,0-.54-.1-.54-.31,0-.15,.1-.23,.31-.23l.4,.04c.3,0,.51-.15,.63-.44,.13-.32,.19-.93,.19-1.83v-3.21h-5.9v3.21c0,.91,.05,1.48,.15,1.73,.09,.24,.19,.39,.29,.46,.11,.06,.24,.08,.4,.08l.4-.04c.19,0,.29,.08,.29,.23,0,.21-.18,.31-.52,.31-.2,0-.39-.02-.58-.04-.67-.11-1.24-.13-1.73-.06-.47,.07-.8,.1-.98,.1Z"/><path class="f" d="M285.04,245.37c-.31,0-.46-.1-.46-.31,0-.15,.09-.23,.29-.23l.42,.04c.3,0,.51-.14,.63-.42,.13-.3,.19-.92,.19-1.83v-5.92c0-.9-.04-1.47-.13-1.71-.08-.23-.18-.38-.29-.44-.1-.07-.23-.1-.4-.1l-.42,.02c-.2,0-.29-.07-.29-.23,0-.21,.15-.31,.44-.31s.55,.01,.73,.02c.19,.02,.4,.03,.6,.04,.51,.04,.92,.06,1.21,.06s.63,0,.96-.02c.33-.01,.7-.03,1.1-.04,1.08-.04,1.83-.06,2.25-.06s.67,.03,.71,.08c.05,.04,.08,.11,.08,.21,0,.08-.01,.17-.02,.25v.25c-.02,.13-.04,.31-.06,.56-.03,.25-.06,.43-.1,.52-.03,.08-.08,.13-.17,.13-.07,0-.12-.01-.15-.04-.03-.04-.06-.13-.1-.25-.04-.14-.13-.26-.25-.38-.13-.13-.31-.23-.56-.31-.5-.15-1.43-.23-2.77-.23h-.75c-.14,0-.23,.02-.27,.06-.03,.04-.04,.14-.04,.27v3.5c.67,.08,1.21,.13,1.65,.13h.94c.18-.01,.33-.03,.46-.06,.22-.04,.38-.14,.48-.29,.18-.29,.33-.44,.46-.44,.15,0,.23,.08,.23,.23l-.29,1.19,.02,.63c0,.41-.09,.6-.27,.6-.17,0-.25-.1-.25-.31,0-.22-.02-.38-.04-.48-.03-.11-.1-.19-.21-.25-.18-.09-.62-.15-1.31-.15s-1.3,.04-1.85,.1v1.98c0,1.22,.03,2.24,.08,3.04,.46,.1,.95,.15,1.48,.15s.98-.01,1.35-.04c.38-.03,.69-.08,.96-.17,.54-.17,.94-.47,1.21-.92,.11-.21,.22-.31,.33-.31s.17,.08,.17,.25c0,.07-.02,.16-.06,.25-.04,.16-.1,.38-.19,.67-.08,.28-.16,.48-.21,.6-.04,.13-.09,.22-.15,.29-.08,.11-.25,.17-.5,.17h-.71c-.22,0-.46-.01-.71-.02-.29-.02-.74-.04-1.33-.06-1.52-.07-2.41-.09-2.67-.08-.27,.03-.47,.05-.6,.06-.13,.01-.26,.03-.4,.04-.13,.01-.27,.02-.44,.02Z"/><path class="f" d="M300.13,234.18l.35-.04c.15,0,.23,.14,.25,.4,.03,.25,.05,.46,.08,.63,.03,.16,.05,.29,.08,.42,.03,.13,.05,.24,.06,.33,.01,.08,.02,.16,.02,.21,0,.06-.04,.11-.1,.17-.06,.06-.12,.08-.19,.08-.13,0-.25-.14-.38-.42-.24-.51-.43-.84-.58-1-.36-.32-.9-.48-1.6-.48-.97,0-1.63,.29-1.96,.88-.11,.2-.17,.43-.17,.71s.06,.52,.19,.75c.14,.24,.34,.48,.6,.73,.28,.24,.63,.49,1.04,.77,.42,.28,.86,.58,1.33,.92,.48,.33,.86,.64,1.13,.9,.26,.27,.48,.52,.65,.77,.32,.5,.48,.99,.48,1.46s-.07,.88-.21,1.25c-.13,.36-.34,.68-.65,.94-.66,.61-1.61,.92-2.88,.92-.66,0-1.37-.14-2.15-.42-.18-.07-.29-.14-.33-.21-.04-.09-.08-.28-.13-.54-.04-.26-.09-.5-.15-.71-.06-.21-.1-.4-.15-.56l-.1-.44c-.04-.13-.06-.23-.06-.31,0-.21,.07-.31,.23-.31,.19,0,.34,.16,.44,.46,.15,.56,.29,.91,.42,1.06,.47,.63,1.02,1.04,1.65,1.23,.18,.06,.42,.08,.73,.08s.6-.05,.9-.15c.3-.09,.55-.22,.75-.38,.38-.29,.56-.65,.56-1.08s-.14-.84-.42-1.19c-.28-.34-.61-.65-1-.9-.39-.26-.68-.45-.88-.56-.18-.13-.35-.24-.52-.35-1.42-.94-2.25-1.88-2.5-2.81-.07-.25-.1-.53-.1-.83s.07-.65,.23-.98c.17-.33,.4-.63,.69-.88,.64-.55,1.46-.83,2.46-.83,.47,0,.84,.05,1.13,.15,.39,.13,.64,.19,.75,.19Z"/><path class="f" d="M303.35,245.37c-.36,0-.54-.1-.54-.31,0-.15,.1-.23,.31-.23l.4,.04c.3,0,.51-.15,.63-.44,.14-.32,.21-.93,.21-1.83l-.04-5.9c0-.92-.05-1.49-.15-1.73-.1-.23-.2-.38-.31-.44-.1-.05-.22-.08-.38-.08l-.4,.02c-.21,0-.31-.07-.31-.23,0-.21,.15-.31,.46-.31s.59,.02,.88,.06c.28,.04,.57,.06,.88,.06s.57-.02,.85-.06c.28-.04,.56-.06,.85-.06s.46,.1,.46,.31c0,.16-.1,.23-.29,.23l-.4-.02c-.31,0-.52,.15-.63,.44-.14,.32-.21,.93-.21,1.81l.04,5.9c0,.91,.05,1.48,.17,1.73,.11,.24,.22,.39,.33,.46,.11,.06,.23,.08,.38,.08l.42-.04c.19,0,.29,.08,.29,.23,0,.21-.18,.31-.54,.31-.18,0-.38-.02-.58-.04-.7-.11-1.29-.13-1.77-.06-.49,.07-.82,.1-1,.1Z"/><path class="f" d="M309.65,245.24c-.28,0-.54,.02-.79,.06s-.52,.06-.81,.06c-.28,0-.42-.09-.42-.27,0-.19,.14-.29,.4-.29s.46-.05,.58-.15c.18-.17,.36-.44,.54-.83,.19-.39,.36-.75,.52-1.08,.17-.34,.34-.75,.54-1.21,.21-.46,.44-.96,.69-1.52,.25-.55,.51-1.15,.79-1.77,.71-1.65,1.17-2.76,1.4-3.33,.23-.57,.36-.88,.38-.94,.03-.07,.05-.13,.08-.19,.07-.11,.13-.17,.19-.17,.05,0,.09,.01,.13,.02,.03,.02,.06,.04,.1,.08,.08,.1,.17,.25,.25,.46s.19,.49,.33,.85c.15,.36,.32,.77,.5,1.21,.18,.45,.38,.93,.58,1.46,.21,.52,.42,1.03,.63,1.54,.21,.52,.41,1.02,.6,1.5,.19,.49,.36,.93,.52,1.31,.48,1.16,.79,1.85,.92,2.08,.14,.22,.26,.39,.35,.48,.14,.13,.34,.19,.6,.19s.42,.1,.42,.29c0,.18-.18,.27-.52,.27-.16,0-.29-.01-.4-.02-.11-.02-.22-.03-.33-.04-.32-.04-.6-.06-.85-.06l-1.6,.13c-.36,0-.54-.1-.54-.31,0-.17,.09-.25,.29-.25l.5,.06c.21,0,.34-.04,.42-.13,.07-.09,.1-.21,.1-.35,0-.26-.11-.67-.33-1.23l-.69-1.73h-4.65c-.13,.33-.25,.64-.38,.92-.11,.28-.21,.55-.29,.81-.16,.42-.23,.75-.23,1s.04,.42,.13,.54c.08,.11,.24,.17,.48,.17l.5-.04c.21,0,.31,.08,.31,.23,0,.21-.18,.31-.54,.31l-1.4-.13Zm5.77-4.52l-1.98-4.98c-.39,.97-1.08,2.64-2.06,4.98h4.04Z"/></g></g></svg>